<?xml version="1.0" encoding="utf-8"?>
<!-- Generator: Adobe Illustrator 19.0.0, SVG Export Plug-In . SVG Version: 6.00 Build 0)  -->
<svg version="1.1" id="Layer_1" xmlns="http://www.w3.org/2000/svg" xmlns:xlink="http://www.w3.org/1999/xlink" x="0px" y="0px"
	 viewBox="0 0 1280 530" style="enable-background:new 0 0 1280 530;" xml:space="preserve">
<style type="text/css">
	.st0{fill:#ADBEC4;}
	.st1{fill:#103A44;}
	.st2{fill:#EE6E4C;}
	.st3{fill:#F68B68;}
	.st4{fill:#184453;}
	.st5{fill:#D0D8DC;}
	.st6{fill:#DC624E;}
	.st7{fill:#1C4951;}
	.st8{fill:#6197B1;}
	.st9{fill:#225360;}
	.st10{fill:#8C393F;}
	.st11{fill:#662D34;}
	.st12{fill:#CE384D;}
	.st13{fill:#EF4353;}
	.st14{fill:#A23045;}
	.st15{fill:#FBB879;}
	.st16{fill:#0C486C;}
	.st17{fill:#125F9A;}
	.st18{fill:#255967;}
	.st19{fill:#8CBEDC;}
	.st20{fill:#3F6676;}
</style>
<g id="XMLID_242_">
	<g id="XMLID_531_">
		<path id="XMLID_240_" class="st0" d="M696,465h-70.8c-0.8,0-1.4-0.6-1.4-1.4v-2.8c0-0.8,0.6-1.4,1.4-1.4H696
			c0.8,0,1.4,0.6,1.4,1.4v2.8C697.4,464.4,696.8,465,696,465z"/>
		<path id="XMLID_239_" class="st0" d="M1134.4,465h-20.5c-0.8,0-1.4-0.6-1.4-1.4v-2.8c0-0.8,0.6-1.4,1.4-1.4h20.5
			c0.8,0,1.4,0.6,1.4,1.4v2.8C1135.8,464.4,1135.2,465,1134.4,465z"/>
		<path id="XMLID_238_" class="st0" d="M826.2,465h-70.8c-0.8,0-1.4-0.6-1.4-1.4v-2.8c0-0.8,0.6-1.4,1.4-1.4h70.8
			c0.8,0,1.4,0.6,1.4,1.4v2.8C827.6,464.4,827,465,826.2,465z"/>
		<path id="XMLID_237_" class="st0" d="M927.8,465H857c-0.8,0-1.4-0.6-1.4-1.4v-2.8c0-0.8,0.6-1.4,1.4-1.4h70.8
			c0.8,0,1.4,0.6,1.4,1.4v2.8C929.2,464.4,928.6,465,927.8,465z"/>
		<path id="XMLID_236_" class="st0" d="M1052.2,465h-95.9c-0.8,0-1.4-0.6-1.4-1.4v-2.8c0-0.8,0.6-1.4,1.4-1.4h95.9
			c0.8,0,1.4,0.6,1.4,1.4v2.8C1053.6,464.4,1053,465,1052.2,465z"/>
	</g>
	<g id="XMLID_455_">
		<path id="XMLID_235_" class="st1" d="M718.4,150.8c0,0-7.3-4.9-18-1.1c-10.7,3.8-13.1,18.2-10.5,29.9c2.6,11.7-12,51.5-12,51.5
			s7.7,10.8,34.4,6.6c0,0,19.9-36.2,18.4-62.2C729.2,149.5,718.4,150.8,718.4,150.8z"/>
		<path id="XMLID_234_" class="st2" d="M726.8,195.7c10.1-3.2,16.2,5.2,21.9,20.7s7.7,17.2,7.7,17.2l22.2,14.3l-1.8,8.3
			c0,0-21.1-8.3-26.3-13.6c-5.1-5.3-19.8-31.9-19.8-31.9L726.8,195.7z"/>
		<path id="XMLID_233_" class="st3" d="M677.9,296.3c0,0-4.4,22.1-3.7,55.3c0,0-17.2,25.3-3,97.6h7.4c0,0,6.1-61.4,10.7-78.1
			c4.6-16.7,21.8-21.8,22.7-72.4L677.9,296.3z"/>
		<path id="XMLID_232_" class="st3" d="M643.9,361.2c-4.3-14.2-15.4-38.1-43.9-70.4c0,0-1.7-0.9-4,0.6c-2.4,1.5-2.4,3.2-2.4,3.2
			s14.3,31.1,23.4,53.9c3,7.7,10.5,12.7,18.8,12.7L643.9,361.2L643.9,361.2z"/>
		<path id="XMLID_231_" class="st4" d="M695.8,388.7c0,0,0.1,10.6-6.9,10.8c-9.8,0.2-10.2-10.5-21.4-10.1
			c-11.2,0.3-34.2,3.1-41.5-14.3c-3.8-9,1.4-20.6-10.8-29.3c-12.2-8.7-6.3-18.4,0-23.7c6.3-5.2-2.7-10.9,3.8-13.6
			c1.6-0.6,3.1-0.6,4.5-0.1c0.8,0.3,1.6,0.7,2.4,1.2c3.4,2.3,5.9,6.3,5.9,6.3c18.4-50.6,51.4-57.3,51.4-57.3l32.6,11.3
			C716.6,348.7,695.8,388.7,695.8,388.7z"/>
		<path id="XMLID_230_" class="st5" d="M726.8,195.7c0,0-7.6,2.6-18.4,1c-10.8-1.7-14.3-8.4-21.9-4.1c-11.4,6.5-6.1,29-3.2,40.8
			c1,4.4,2.4,15.9-0.2,25.3c0,0,15.2,11.8,32.6,11.3l9.5-20.6C725.3,249.3,745.8,224.7,726.8,195.7z"/>
		<path id="XMLID_229_" class="st2" d="M707.5,176.8c0,0,1.3,10.7-2.7,20.3c0,0,5.7,8.3,11,2.9c0,0,0.5-9.7,6.5-20.8
			C726.5,171.8,707.5,176.8,707.5,176.8z"/>
		<g id="XMLID_506_">
			<path id="XMLID_228_" class="st3" d="M698.9,177.2c0,0-4.8-3-4.2,1.6c0.6,5.3,5.8,6.4,6.4,4.5
				C701.7,181.5,698.9,177.2,698.9,177.2z"/>
			<path id="XMLID_227_" class="st3" d="M726.2,171.4c0,0,3-4.7,4.5-0.3c1.8,5.1-2.6,8.3-3.8,6.9
				C725.5,176.5,726.2,171.4,726.2,171.4z"/>
			<path id="XMLID_226_" class="st3" d="M716.4,193.2c-8.6,1.9-14.8-2.6-18.5-19.5c-1.9-8.7,1.3-15,10.9-17.2
				c9.7-2.2,14.9,2.2,16.8,11C729.7,185.7,725.3,191.2,716.4,193.2z"/>
			
				<ellipse id="XMLID_225_" transform="matrix(-0.3829 -0.9238 0.9238 -0.3829 837.2304 909.2167)" class="st6" cx="722.3" cy="175" rx="1.6" ry="2.1"/>
			
				<ellipse id="XMLID_224_" transform="matrix(-0.1546 -0.988 0.988 -0.1546 636.6484 902.6532)" class="st6" cx="704.5" cy="178.9" rx="1.6" ry="2.1"/>
			<g id="XMLID_517_">
				<path id="XMLID_223_" class="st1" d="M718.2,166.4c-0.1,0-0.2,0-0.2-0.1c-1.4-1-3.6-0.5-3.6-0.5c-0.2,0.1-0.5-0.1-0.6-0.3
					c-0.1-0.2,0.1-0.5,0.3-0.6c0.1,0,2.5-0.6,4.3,0.6c0.2,0.2,0.2,0.4,0.2,0.6C718.5,166.3,718.3,166.4,718.2,166.4z"/>
			</g>
			<g id="XMLID_515_">
				<path id="XMLID_222_" class="st1" d="M702,169.9c-0.1,0-0.2,0-0.2-0.1c-0.2-0.2-0.2-0.4-0.2-0.6c1.1-1.8,3.5-2.3,3.7-2.3
					c0.2,0,0.5,0.1,0.5,0.3c0.1,0.2-0.1,0.5-0.3,0.5c0,0-2.2,0.4-3,1.9C702.3,169.9,702.1,169.9,702,169.9z"/>
			</g>
			
				<ellipse id="XMLID_221_" transform="matrix(-0.2185 -0.9758 0.9758 -0.2185 707.0211 908.7912)" class="st7" cx="717.4" cy="171.3" rx="2" ry="1.1"/>
			
				<ellipse id="XMLID_220_" transform="matrix(-0.2185 -0.9758 0.9758 -0.2185 689.941 900.2151)" class="st7" cx="705.4" cy="173.8" rx="2" ry="1.1"/>
			<path id="XMLID_219_" class="st7" d="M710.4,183.7c0,0,5.5-0.5,8-2.5c0,0-0.6,4.3-3.7,4.6S710.4,183.7,710.4,183.7z"/>
			<path id="XMLID_218_" class="st7" d="M715.5,171.2c0,0,0.2-2.8,1.3-2.9c1.1-0.1,2.4,2.1,2.4,2.1l1.4-1.1l-1.5,0.6
				c0,0-1.4-2.2-2.3-1.9C715.2,168.1,715.5,171.2,715.5,171.2z"/>
			<path id="XMLID_217_" class="st7" d="M707.2,173.4c0,0-1.4-2.5-2.4-2.1c-1,0.4-1.3,2.9-1.3,2.9l-1.7-0.5l1.6-0.2
				c0,0,0.2-2.6,1.3-2.8C706.2,170.5,707.2,173.4,707.2,173.4z"/>
			<g id="XMLID_508_">
				<path id="XMLID_216_" class="st6" d="M713.2,178.8l-0.5-0.9c0.7-0.4,0.8-0.9,0.7-1.3c-0.1-0.5-0.6-0.9-0.8-1
					c-0.2,0-0.3,0.2-0.4,0.5l-0.9-0.3c0.4-1,1.1-1.1,1.4-1c0.7,0.1,1.5,0.8,1.7,1.7C714.6,177.4,714.2,178.3,713.2,178.8z"/>
			</g>
			<path id="XMLID_215_" class="st1" d="M699.6,180.2c0,0-2.6-9.8-1.1-16.7c0,0,7.5-10.5,21.9-5.3c0,0,4.3,6.9,6.4,16.6
				c0,0,0.6-3.5-0.9-11.2c-1.4-7.7-8.3-12.5-17.7-11C698.9,154.2,688.9,163.6,699.6,180.2z"/>
		</g>
		<path id="XMLID_214_" class="st1" d="M714.8,156.1c0,0,0.6,2.6-1.9,9.1c0,0-1.8-1.8-3.9,0c-2.1,1.8-6.3,1.3-7.8,2.2
			c-1.4,1-1.4,3.4-1.4,3.4s-1.3-2.9,0-6.3c0,0-2.8,3.6-2.5,8c0,0-3.8-0.6-3.7-6.9c0.2-6.3,9.2-16.5,19.2-15.9
			c10.1,0.6,12.4,16.6,12.4,16.6s-1-0.7-2.4-0.4c0,0-0.2-3.4-2.5-7.7c0,0,1,3,0,6.4c0,0-2.8-1.4-5-1
			C715.5,163.6,716.9,161,714.8,156.1z"/>
		<path id="XMLID_213_" class="st3" d="M684,194.6c4.9-3.8,8.7,1,9.7,7.8c1,6.8-7.9,46.8-14.8,45.4c-2.6-0.6-3.8-11.1-3.8-11.1
			s2.6-11.3,4.4-28.2C680.4,200.7,681.4,196.7,684,194.6z"/>
		<path id="XMLID_212_" class="st3" d="M669.8,242.2c-6.6-6.3-18.4-27.1-21.4-37.7l5-2c0,0,15.1,21.5,21.9,27
			c6.9,5.4,9.3,11.5,6.2,16.7C678.4,251.3,671.1,243.5,669.8,242.2z"/>
		<g id="XMLID_499_">
			<path id="XMLID_211_" class="st3" d="M650.4,190.5c-0.3,6.8,5.2,8.5,2.7,13.6c-0.5,1.1-1.3,1.7-2.1,1.9c-1.5,0.6-3.2,0-4.4-1.1
				c-2.6-2.6-6.7-5.5-8.9-6.7c-2.5-1.4-1-1.8-1-1.8c-0.2-0.1-0.5-0.2-0.7-0.3c-1.8-0.7-3.2-1-1.9-1.8c1.4-0.9,6.5,1,6.5,1
				c-6.6-4.4-8.5-3.4-7.3-4.3c1.7-1.3,8,1.7,8.1,1.8c-3.5-3.4-6.1-4.1-4.6-4.5c1.4-0.5,8.4,4.5,10.9,6.4c0.6,0.4,1,0.7,1,0.7
				C648.6,189.7,650.4,190.5,650.4,190.5z"/>
			<path id="XMLID_210_" class="st2" d="M647.8,194.7c0.6,0.4,1,0.7,1,0.7s-1.2,2,0.3,4.5C649.1,199.9,646.3,198.1,647.8,194.7z"/>
			<path id="XMLID_209_" class="st2" d="M642,198.6c-0.6-0.3-3.9-2.2-5.3-2.1c-0.2-0.1-0.5-0.2-0.7-0.3
				C636.9,195,641.3,198.1,642,198.6z"/>
		</g>
		<g id="XMLID_462_">
			<circle id="XMLID_208_" class="st8" cx="667" cy="299.7" r="1.4"/>
			<circle id="XMLID_207_" class="st8" cx="690.9" cy="309" r="1.4"/>
			<circle id="XMLID_206_" class="st8" cx="711.3" cy="313.9" r="1.4"/>
			<circle id="XMLID_205_" class="st8" cx="679.9" cy="282.2" r="1.4"/>
			<circle id="XMLID_204_" class="st8" cx="684.5" cy="295" r="1.4"/>
			<circle id="XMLID_203_" class="st8" cx="705.7" cy="302.2" r="1.4"/>
			<circle id="XMLID_202_" class="st8" cx="708.6" cy="280.2" r="1.4"/>
			<circle id="XMLID_201_" class="st8" cx="694.7" cy="275.7" r="1.4"/>
			<circle id="XMLID_200_" class="st8" cx="655.1" cy="325.9" r="1.4"/>
			<circle id="XMLID_199_" class="st8" cx="636" cy="320.2" r="1.4"/>
			<path id="XMLID_198_" class="st8" d="M626,309.7c-0.2,0.4-0.6,0.6-1.1,0.6c-0.7,0-1.4-0.6-1.4-1.4c0-0.2,0-0.3,0.1-0.5
				C624.5,308.8,625.3,309.2,626,309.7z"/>
			<circle id="XMLID_197_" class="st8" cx="662" cy="343.3" r="1.4"/>
			<circle id="XMLID_196_" class="st8" cx="627.7" cy="362.3" r="1.4"/>
			<circle id="XMLID_195_" class="st8" cx="641.7" cy="350.8" r="1.4"/>
			<circle id="XMLID_194_" class="st8" cx="620.9" cy="340.6" r="1.4"/>
			<circle id="XMLID_193_" class="st8" cx="637.7" cy="380.8" r="1.4"/>
			<circle id="XMLID_192_" class="st8" cx="650.4" cy="310.3" r="1.4"/>
			<circle id="XMLID_191_" class="st8" cx="663.3" cy="287.7" r="1.4"/>
			<circle id="XMLID_190_" class="st8" cx="677.9" cy="269" r="1.4"/>
			<circle id="XMLID_189_" class="st8" cx="648.3" cy="296.3" r="1.4"/>
			<circle id="XMLID_188_" class="st8" cx="664.7" cy="274.3" r="1.4"/>
			<circle id="XMLID_187_" class="st8" cx="639" cy="334.6" r="1.4"/>
			<circle id="XMLID_186_" class="st8" cx="622.2" cy="322.8" r="1.4"/>
			<circle id="XMLID_185_" class="st8" cx="671" cy="318.8" r="1.4"/>
			<circle id="XMLID_184_" class="st8" cx="698.7" cy="325.9" r="1.4"/>
			<circle id="XMLID_183_" class="st8" cx="697.4" cy="287.7" r="1.4"/>
			<circle id="XMLID_182_" class="st8" cx="713.4" cy="290.5" r="1.4"/>
			<circle id="XMLID_181_" class="st8" cx="681.3" cy="336" r="1.4"/>
			<circle id="XMLID_180_" class="st8" cx="669.6" cy="359.9" r="1.4"/>
			<circle id="XMLID_179_" class="st8" cx="649.1" cy="363.7" r="1.4"/>
			<circle id="XMLID_178_" class="st8" cx="705.7" cy="343.3" r="1.4"/>
			<circle id="XMLID_177_" class="st8" cx="687.2" cy="353.5" r="1.4"/>
			<circle id="XMLID_176_" class="st8" cx="659.3" cy="383.4" r="1.4"/>
			<circle id="XMLID_175_" class="st8" cx="679.9" cy="376.5" r="1.4"/>
			<circle id="XMLID_174_" class="st8" cx="699.9" cy="368.6" r="1.4"/>
			<circle id="XMLID_173_" class="st8" cx="690.9" cy="391.6" r="1.4"/>
		</g>
		<g id="XMLID_459_">
			<path id="XMLID_172_" class="st4" d="M690.8,462.2h-22c-1.4-4.1,1.2-8.2,0.8-11.8c-0.8-6.1,2.8-2.7,2.8-2.7
				c0.6-6.5,9.9-7.8,9.7-4.9c-0.2,4.3,0.7,6.9,1.9,8.8c2.5,3.6,6.5,3.6,7.3,6.1c0.1,0.2,0.2,0.5,0.2,0.7
				C692.1,461.5,690.8,462.2,690.8,462.2z"/>
			<path id="XMLID_171_" class="st9" d="M691.4,458.3c-4.5,1-15.1-0.3-15.5-3c-0.4-2.6,5.3-3.8,8.1-3.9c2.5,3.6,6.5,3.6,7.3,6.1
				C691.3,457.9,691.3,458.1,691.4,458.3z"/>
		</g>
		<g id="XMLID_456_">
			<path id="XMLID_170_" class="st4" d="M600.3,291.7c-2.3-2.2-6.1,1.4-6.1,1.4s2.1,3,0.7,4.2s-2.9-1.6-5.4-0.3
				c-0.2,0.1-0.4,0.2-0.6,0.4c-2.1,1.2-4.1,3.8-5.9,5.7c-0.3,0.4-0.7,0.7-1,1c-2,2.1-7.1,3.4-8.1-2.2c-1-5.6,5.3-12.1,12.2-18.1
				s11.3-2.5,11.3-2.5s1.6,2.6,1.6,4.1c0,1.6,1.4,2.3,2.2,3.8C601.9,290.8,600.3,291.7,600.3,291.7z"/>
			<path id="XMLID_169_" class="st9" d="M588.7,297.4c-2.1,1.2-4.1,3.8-5.9,5.7c-2.6,0.6-4.9,0.4-5.3-2c-0.9-5.8,10.8-13.3,9.9-9.2
				C587,293.9,587.8,295.9,588.7,297.4z"/>
		</g>
	</g>
	<g id="XMLID_390_">
		<path id="XMLID_168_" class="st5" d="M996.3,452.7c-1.1-0.6-2.1-1.8-3-3.4c0,0-0.8-4.7,0-9.6c0.8-4.9-1.4-8.9-8.4-10.5
			c-6.8-1.4-10.8,1.8-9.3,15.4l0,0c-1,5.7-1.3,12.1,1.1,17.6h20.8C997.8,462.2,1001,455.1,996.3,452.7z"/>
		<path id="XMLID_167_" class="st3" d="M1014.6,379.3c0,0,0,13.6-7.7,27.5c-7.8,14.2-17.5,33.7-17.5,33.7s-6.5,6.3-10.5-4.1
			c0,0,2.9-36.1,9.5-49.4C995.1,373.7,1014.6,379.3,1014.6,379.3z"/>
		<path id="XMLID_166_" class="st3" d="M1114.7,335c0,0,12.4,52.3,20.3,66c0,0-1.8,5.7-10.4,7.5c0,0-27.1-39.7-28.8-56.4
			C1094.1,335.4,1114.7,335,1114.7,335z"/>
		<g id="XMLID_442_">
			<path id="XMLID_165_" class="st10" d="M1120.7,347.3c-3.3,8-28.8,8.4-28.8,8.4l-1.9-2.9l-0.5-0.7l-4-5.9c0,0-42.3-41.5-50.5-38
				l0,0c-0.2,0.1-0.5,0.2-0.7,0.4c-5.7,4.1-6.2,26.2-12.8,63.4c-0.6,3.5-2.1,7.7-3.1,10.5c-0.2,0.3-0.2,0.6-0.3,0.9
				c-0.6,1.6-1,2.6-1,2.6c-25.9,10.5-34.3-10.2-34.3-10.2s0.3-0.6,0.7-1.6c0.1-0.2,0.2-0.5,0.3-0.7c1.4-3,3.5-8.1,3.5-10.9
				c0-3-0.1-5.9-0.1-8.6c0-0.2,0-0.5,0-0.7c-0.1-8.9,0-16.7,0-23.5v-0.7c0-3,0.1-5.7,0.2-8.2V320c0.2-11.7,0.6-19.6,1-24.8
				c0-0.2,0.1-0.5,0.1-0.7c0.7-8.8,1.4-9.7,1.4-9.7l-5.2-36h56.4c0,0,8.5,8.5,19.5,19.7c0.2,0.2,0.5,0.5,0.7,0.7
				c4,4.1,8.3,8.5,12.6,12.9c0.2,0.2,0.3,0.3,0.5,0.5c1.7,1.8,3.4,3.5,5.1,5.3c0.2,0.2,0.4,0.4,0.6,0.6c5.7,5.9,11.2,11.7,15.9,16.7
				c0.2,0.2,0.3,0.3,0.5,0.5c6.5,6.9,11.3,12.5,13,15.1c4.5,6.9,8,15.7,9.9,21.2l0,0c0.1,0.2,0.2,0.5,0.2,0.7
				C1120.2,345.6,1120.7,347.3,1120.7,347.3z"/>
			<g id="XMLID_443_">
				<path id="XMLID_164_" class="st11" d="M998,290.2c-2.3,2.7-5.7,4.4-10,5c0-0.2,0.1-0.5,0.1-0.7c4.1-0.6,7.2-2.2,9.4-4.7
					c3.9-4.5,3.3-10.8,3.3-10.8l0.7-0.1C1001.4,279.1,1002.1,285.3,998,290.2z"/>
				<path id="XMLID_163_" class="st11" d="M1061,269.2c-0.2,0-0.4,0-0.6,0c-6.3,0-12.8-6.9-13.2-7.2l0.5-0.5c0.1,0.1,6.6,6.9,12.6,7
					C1060.5,268.7,1060.7,269,1061,269.2z"/>
				<path id="XMLID_162_" class="st11" d="M1018.1,382.4c-0.2,0.3-0.2,0.6-0.3,0.9c-4.1,1.5-8,2.2-11.5,2.2
					c-11.2,0-18.9-6.5-23.1-11.3c0.1-0.2,0.2-0.5,0.3-0.7C988.9,379.7,1000.5,389.1,1018.1,382.4z"/>
				<path id="XMLID_161_" class="st11" d="M1033.3,295.2c1,4,1.5,8.4,1.6,12.9c-0.2,0.1-0.5,0.2-0.7,0.4c0-21.1-12.2-37.5-12.4-37.7
					l0.6-0.4c0.1,0.2,7.3,9.9,10.8,24c1.4-1,2.4-2.2,2.8-4c1.8-7.4-6.2-19.5-6.3-19.6l0.6-0.4c0.3,0.5,8.2,12.4,6.4,20.1
					C1036.1,292.6,1035,294.2,1033.3,295.2z"/>
				<path id="XMLID_160_" class="st11" d="M1096.1,305.8c-2.1,2.2-4,4.1-4.2,4.4l-0.4,0.4l-0.2-0.5c-2.7-7.2-20.3-22.7-20.5-22.8
					l-0.2-0.2l3-4.9c0.2,0.2,0.3,0.3,0.5,0.5l-2.5,4.1c3.4,1.2,5.8,1.4,7.6,1.2c0.2,0.2,0.4,0.4,0.6,0.6c-0.6,0.1-1.2,0.2-1.8,0.2
					c-1.6,0-3.4-0.3-5.4-1c4,3.6,16.4,15.1,19.2,21.5c1.1-1.1,2.5-2.6,3.8-4C1095.8,305.4,1095.9,305.6,1096.1,305.8z"/>
				<path id="XMLID_159_" class="st11" d="M999.8,353.7l-0.2,0.1c-0.2,0.1-3.4,0.7-7.1,0.7c-1.8,0-3.8-0.2-5.5-0.6
					c0-0.2,0-0.5,0-0.7c4.6,1.4,10.8,0.3,12.1,0.1l-1.2-29c-0.6,1.6-1.9,3.8-4.4,4.9c-1.1,0.6-2.5,0.9-3.9,0.9
					c-0.9,0-1.8-0.1-2.7-0.3V329c2.4,0.6,4.5,0.4,6.2-0.5c3-1.4,4.1-4.6,4.5-5.8c-2.3,0.3-7-0.8-10.6-1.9V320
					c3.8,1.2,9.1,2.6,10.9,1.8l0.5-0.2L999.8,353.7z"/>
				<path id="XMLID_158_" class="st11" d="M1119.2,342.9c-4.1,4-12.4,10.1-25.1,10.1c-1.4,0-2.8-0.1-4.2-0.2l-0.5-0.7
					c15.6,1.8,25.3-5.5,29.6-9.9C1119.1,342.4,1119.1,342.6,1119.2,342.9z"/>
			</g>
		</g>
		<path id="XMLID_157_" class="st12" d="M1051.2,96c0,0-1.5-3.6-8.1-3.6c-5,0-6.9,2.8-6.9,2.8c-3,8.9-6.3,42.6-7.4,43.8
			c-0.6,0.6-38.1,25.9-38.1,25.9c20.3,0.4,33,25.5,33,25.5c0.6-8.2,23.6-40.9,23.9-43.7C1048,141.1,1057.7,116.6,1051.2,96z"/>
		<path id="XMLID_156_" class="st12" d="M986.2,272.7c0,0-0.2,7,2.1,7.5c2.3,0.5,20.8,6,42.2-3.8c21.4-9.7,25.1-16.9,18.8-22.3
			C1043.1,248.9,986.2,272.7,986.2,272.7z"/>
		<path id="XMLID_155_" class="st13" d="M977.7,169.8c0,0-19.5-2.3-30.6,2.6c0,0-3.1,13.8,12.2,44.7c15.3,30.9,11.7,50.4,29,57.7
			c15.3,6.5,60.5-12.8,61.9-19.2c3.6-16.1-24-44.4-25.8-60.8C1022.7,178.2,1006.6,153.5,977.7,169.8z"/>
		<path id="XMLID_154_" class="st12" d="M947.1,172.3c-13.6,4.8-28.9,20.1-28.9,27.5c0,7.3,12.8,10.2,12.8,10.2l20.9-10.2
			c0,0,6-4.1,2.2-16.4C950.2,171.1,947.1,172.3,947.1,172.3z"/>
		<g id="XMLID_436_">
			<path id="XMLID_153_" class="st5" d="M1002.9,185.9c-4.1,0-9.1-1.4-12.2-3.7c-1.8-1.2-2.8-2.6-3-4c-0.8-4.9,3.9-7.3,4.1-7.4
				l0.6,1.3c-0.2,0.1-4,2.1-3.4,5.9c0.2,1,1,2.1,2.4,3.1c3.5,2.5,9.6,4,13.5,3.3c1.8-0.3,3-1,3.4-1.9c0.6-1.2,0.1-2.5,0.1-2.5
				l1.3-0.6c0,0.1,0.8,1.9-0.2,3.7c-0.7,1.4-2.2,2.2-4.5,2.6C1004.5,185.8,1003.8,185.9,1002.9,185.9z"/>
		</g>
		<g id="XMLID_434_">
			<path id="XMLID_152_" class="st5" d="M985.6,200.6c-3,0-8-1.3-8.7-6.2c-0.3-2.5-0.2-4.6,0.1-6.5c0.3-2.7,0.6-4.9-1-7.4
				c-2.6-4.2-6.1-4.5-6.3-4.5l0.1-1.4c0.2,0,4.4,0.3,7.4,5.2c1.8,3,1.5,5.6,1.3,8.3c-0.2,1.8-0.4,3.8-0.1,6.1c0.7,5.3,7.6,5,7.8,4.9
				l0.1,1.4C986,200.6,985.9,200.6,985.6,200.6z"/>
		</g>
		<path id="XMLID_151_" class="st12" d="M989.9,175.6c0,0,10.3-7,7.8-14.6c-2.5-7.6-35.5-7-44,2c-8.5,9.1,18.4,15.1,18.4,15.1
			C974.2,173.9,987.6,173.4,989.9,175.6z"/>
		<path id="XMLID_150_" class="st14" d="M971.4,174.4c-4.9-1.7-7.7-5.2-6.7-9.3c1-4.1,22-4.1,26-1
			C994.7,167.4,989.1,180.4,971.4,174.4z"/>
		<path id="XMLID_149_" class="st2" d="M969.1,163c0,0,4.3,7.3,2.3,11.4c0,0,14.8,5.1,14.8-3.2c0,0-2.8-6.2-1.8-10.2L969.1,163z"/>
		<g id="XMLID_414_">
			<path id="XMLID_148_" class="st15" d="M964.2,156.5c0,0-7.3-11.7-6.6-22.7c0.3-5.6,3.2-7.7,3.2-7.7s-2.3-3.2,0.2-8.1
				c0,0,3.4,4,15.5,2.7c11.6-1.2,12.8,7,12.8,7c8.3,1.2,2.7,26.3-3.1,28.9L964.2,156.5L964.2,156.5z"/>
			<path id="XMLID_147_" class="st3" d="M961.1,145.8c0,0-4.1-4.1-4.7,0.7c-0.6,5.7,4.5,7.9,5.5,6.1
				C962.9,150.8,961.1,145.8,961.1,145.8z"/>
			<path id="XMLID_146_" class="st3" d="M990.3,146.1c0,0,4.1-4.1,4.7,0.7c0.6,5.7-4.5,7.9-5.5,6.1
				C988.5,151.1,990.3,146.1,990.3,146.1z"/>
			<path id="XMLID_145_" class="st3" d="M975.3,166.3c-9.3,0-14.5-6.1-14.5-24.3c0-9.3,4.8-15.2,15.2-15.2s14.8,5.7,14.8,15.2
				C990.7,161.6,984.8,166.3,975.3,166.3z"/>
			
				<ellipse id="XMLID_144_" transform="matrix(-0.1719 -0.9851 0.9851 -0.1719 1008.2314 1145.243)" class="st6" cx="985.5" cy="148.9" rx="1.7" ry="2.2"/>
			
				<ellipse id="XMLID_143_" transform="matrix(6.507739e-002 -0.9979 0.9979 6.507739e-002 754.9644 1103.5602)" class="st6" cx="966.4" cy="148.9" rx="1.7" ry="2.2"/>
			<g id="XMLID_423_">
				<path id="XMLID_142_" class="st15" d="M983.6,138.7c-0.2,0-0.2,0-0.3-0.1c-1.5-1.1-3.7-0.7-3.8-0.7c-0.2,0.1-0.5-0.1-0.6-0.4
					c-0.1-0.2,0.1-0.5,0.4-0.6c0.1,0,2.6-0.5,4.5,0.9c0.2,0.2,0.2,0.5,0.1,0.6C983.7,138.7,983.6,138.7,983.6,138.7z"/>
			</g>
			<g id="XMLID_421_">
				<path id="XMLID_141_" class="st15" d="M965.8,138.8c-0.1,0-0.2-0.1-0.3-0.2c-0.2-0.2-0.2-0.5,0.1-0.6c1.8-1.4,4.3-1,4.5-1
					c0.2,0.1,0.4,0.2,0.4,0.6c0,0.2-0.3,0.4-0.6,0.4c0,0-2.2-0.3-3.7,0.9C966,138.8,965.9,138.8,965.8,138.8z"/>
			</g>
			<ellipse id="XMLID_140_" class="st7" cx="981.4" cy="144" rx="1.2" ry="2.1"/>
			<ellipse id="XMLID_139_" class="st7" cx="969" cy="144" rx="1.2" ry="2.1"/>
			<path id="XMLID_138_" class="st15" d="M963.6,128.9c0,0,9.9,3.6,24.1,2.6c0,0,3,3.8,2.6,17.1c0,0,8.3-23.9-16-23.9
				s-13.3,23.4-13.3,23.4S959.1,133.4,963.6,128.9z"/>
			<g id="XMLID_416_">
				<path id="XMLID_137_" class="st6" d="M975.8,150.2l-0.7-0.7l1.8-1.8c-1.8-2.6-1.8-8.3-1.8-8.6h1c0,0.1,0,6.3,1.8,8.3l0.3,0.3
					L975.8,150.2z"/>
			</g>
			<path id="XMLID_136_" class="st7" d="M969.7,153.2c0,0,9.1,0.4,13.7-0.8c0,0,0.8,6.6-6.2,6.9
				C969.7,159.7,969.7,153.2,969.7,153.2z"/>
		</g>
		<path id="XMLID_135_" class="st5" d="M1008.7,178.3c1.8-0.3,1.6,4.2,0,3C1007.2,179.9,1006.9,178.6,1008.7,178.3z"/>
		<path id="XMLID_134_" class="st5" d="M987.7,200.4c-0.2,1.8-4.5,0.1-2.8-1C986.7,198.4,988,198.7,987.7,200.4z"/>
		<path id="XMLID_133_" class="st2" d="M969,209.9c0,0-2.8,7.1-2.6,11.1s1.4,3.5,1.4,3.5s-2.1,0.8-2.5,3.1s5.4,4,5.8,4
			s4.5-1.6,4.5-1.6l0.9-13.1l-3.7-2.3L969,209.9z"/>
		<path id="XMLID_132_" class="st3" d="M971.2,209c0,0,5,3.1,7,5c1.9,1.9,0.8,16.8,0,17.4c-0.8,0.7-7.3,2.2-8.5,1.4
			c-1.2-0.8,0.5-5.2,0.5-5.2s3.2-0.7,2.8,0.6c-0.5,1.2,0,2.2,0,2.2l1.4-0.6c0,0-0.6-3.3,0-5.7s-4.5-5-5.2-9.5
			C968.5,210.2,971.2,209,971.2,209z"/>
		<path id="XMLID_131_" class="st12" d="M919,201.8c-1.6-6.9,5.3-9.4,14.9-8.2c11.2,1.4,34.1,4.3,39,16.4c0,0,1.6,4.8-2.6,7
			C958.6,223.4,922,214.9,919,201.8z"/>
		<path id="XMLID_130_" class="st14" d="M953.9,197.2c0,0-13.3-5.5-19.9-6.1C927.3,190.5,943.1,196.4,953.9,197.2z"/>
		<g id="XMLID_405_">
			<path id="XMLID_129_" class="st3" d="M1053.5,77.5c-1,1.1-2.6,5.6-2.6,5.6c-0.7,3.8-1.1,5.8-2.4,7.5c-1.3,1.7-0.6,4.7-0.6,4.7
				s-5.1,2.6-9.3-0.6c0,0,0.5-3,0-3.8c-0.9-1.7-3.7-2.6-4.6-6.1c-1-3.4-3.8-7.3-3.8-7.3s0.8-1.8,2.3-0.7c1.5,1.1,2.5,3.8,3.3,4.1
				c0.2,0.1,0.3,0.1,0.5,0.1c0,0,0,0,0.1,0c0.6,0.1,1.3-0.1,1.7-0.4l0.1-0.1c1.4-1.6,1.7-6.3,1.7-8.5c-0.1-3,0-6.9,1.8-6.3
				c1.8,0.7,0.2,2.3,1.5,8.8l0.6,0.1c0.2,0.5,1.4-3.9,1.7-8.1c0.2-2.8,2.1-1.8,2.5-0.9c0.4,0.9-0.2,3.7-0.3,5.7
				c-0.1,1.4-0.2,2.8-0.2,3.6l0.8,0.4c2.8-4.9,1.8-6.9,3.5-7c1.6-0.1,1,4.1,0.2,5.6c-0.4,0.7-0.7,2.1-1,3.5c2.9-3.4,2.6-5.1,3.9-4.9
				C1055.7,73.1,1054.5,76.3,1053.5,77.5z"/>
			<path id="XMLID_128_" class="st2" d="M1041,85.2c-1-2.7-4.5-3.9-4.9-4.1c0.6,0.1,1.3-0.1,1.7-0.4
				C1041.3,82.2,1041,85.2,1041,85.2z"/>
		</g>
		<g id="XMLID_400_">
			<path id="XMLID_127_" class="st5" d="M980.4,441.7c0,0-1.9-3.9-0.2-5.7c1.8-1.7,3.8,1.4,6.7,0.7c3-0.7,3.6-2.8,4.4,0.1
				C992.1,439.7,991.1,448.7,980.4,441.7z"/>
			<path id="XMLID_126_" class="st0" d="M991.5,441.6c0,0-7.9,2.8-12,0l1,3.4c0,0,8.5,0.9,9.7-1.3L991.5,441.6z"/>
			<path id="XMLID_125_" class="st0" d="M991.5,445.8c0,0-7.3-1-10.7,0.8v1.7c0,0,9.4-2.2,12.4,0L991.5,445.8z"/>
			<path id="XMLID_124_" class="st0" d="M980.4,451.8c0,0,1.4-3.4,5.8-3.7c4.4-0.2,7.3,2.2,7.3,2.2S986.6,447.5,980.4,451.8z"/>
		</g>
		<g id="XMLID_393_">
			<path id="XMLID_123_" class="st5" d="M1166.3,404.4c-13.9,18.5-32.7,22.1-32.7,22.1c-5.5-4.4-5.6-9.6-5.6-9.6s-5.3-4.7-6-6.9
				c-0.7-2.2,4.5-9.1,7.7-8.4c2.2,0.5,3.4,2.2,4,3.2c-2.6-5.8-0.5-7.9,3.2-7.3c3.8,0.5,0.2,1.4,3,4.5c0.2,0.2,0.4,0.4,0.6,0.6
				c0.5,0.3,1.1,0.6,1.8,0.7c0.6,0.1,1.3,0.2,2,0.1c0.4,0,0.7-0.1,1.1-0.1c0.7-0.1,1.4-0.3,2.2-0.6c1.1-0.4,2.4-0.9,3.5-1.5
				c4.8-2.6,6.8-3.5,10.5-2.6c3.7,1,3.6,3.7,3.6,3.7L1166.3,404.4z"/>
			<path id="XMLID_122_" class="st0" d="M1166.3,404.4c-13.9,18.5-32.7,22.1-32.7,22.1c9.7-4.1,18.5-9.6,24.5-16.3
				C1164.1,403.5,1166.3,404.4,1166.3,404.4z"/>
			<g id="XMLID_394_">
				<path id="XMLID_121_" class="st0" d="M1140.4,402.5c0.5,0.3,1.1,0.6,1.8,0.7c-3.7,0.7-3.9,4-3.9,4l-1.6-0.5
					C1137,402.7,1140.1,402.5,1140.4,402.5z"/>
				<path id="XMLID_120_" class="st0" d="M1142.8,407.6l-1.6,0.1c-0.6-2.3,0.2-3.7,1-4.5c0.6,0.1,1.3,0.2,2,0.1
					C1142.2,405.2,1142.8,407.6,1142.8,407.6z"/>
				<path id="XMLID_119_" class="st0" d="M1146.9,406.7l-1.6,0.2c-0.6-1.7-0.5-2.9,0-3.8c0.7-0.1,1.4-0.3,2.2-0.6
					C1146.1,404.6,1146.9,406.7,1146.9,406.7z"/>
			</g>
		</g>
		<path id="XMLID_118_" class="st12" d="M991.7,234.8c0,0,3.6,19.3-3.7,27.1c-7.3,7.7-2.5,1.4-0.3-8.5
			C989.9,243.4,988.3,232.9,991.7,234.8z"/>
		<path id="XMLID_117_" class="st12" d="M1025.1,226.2c0,0,11.4,3.8,17.4,14.3C1042.5,240.5,1034.5,223.3,1025.1,226.2z"/>
	</g>
	<g id="XMLID_350_">
		<g id="XMLID_387_">
			<path id="XMLID_116_" class="st3" d="M728.8,82.6c1.5,0,5.9,1.8,5.9,1.8c3.3,2,5,3.1,7.2,3.3c2.2,0.2,3,3.8,3,3.8
				s8.5,1.8,8.9-3.5c0,0-4.7-6.7-5-7.6c-0.6-1.8,0.6-4.5-1.4-7.5c-1.9-3-2.8-7.7-2.8-7.7s-1.8-0.6-2.1,1.3s1.2,4.4,0.9,5.2
				c-0.1,0.2-0.2,0.3-0.2,0.5c0,0,0,0,0,0.1c-0.3,0.6-0.9,0.9-1.4,1c0,0-0.1,0-0.2,0c-2.1-0.1-5.8-3-7.3-4.5c-2.1-2-5.2-4.6-5.9-2.9
				c-0.7,1.8,1.6,1.7,5.5,7l-0.4,0.6c0.2,0.4-3.8-1.6-7-4.1c-2.2-1.8-2.7,0.3-2.3,1.2s2.9,2.3,4.5,3.6c1,0.8,2.2,1.7,2.9,2.2
				l-0.2,0.9c-5.5-1.2-6.4-3.3-7.6-2.2c-1.2,1.1,2.3,3.5,4.1,3.9c0.8,0.2,2.1,0.9,3.3,1.6c-4.4-0.1-5.5-1.5-6.2-0.4
				C723.9,81.3,727.2,82.6,728.8,82.6z"/>
			<path id="XMLID_115_" class="st2" d="M742.8,78.6c-1.4-2.6,0.1-5.9,0.2-6.4c-0.3,0.6-0.9,0.9-1.4,1
				C740.5,76.7,742.8,78.6,742.8,78.6z"/>
		</g>
		<g id="XMLID_384_">
			<path id="XMLID_114_" class="st3" d="M977.2,82.6c-1.5,0-5.9,1.8-5.9,1.8c-3.3,2-5,3.1-7.2,3.3c-2.2,0.2-3,3.8-3,3.8
				s-8.5,1.8-8.9-3.5c0,0,4.7-6.7,5-7.6c0.6-1.8-0.6-4.5,1.4-7.5c1.9-3,2.8-7.7,2.8-7.7s1.8-0.6,2.1,1.3s-1.2,4.4-0.9,5.2
				c0.1,0.2,0.2,0.3,0.2,0.5c0,0,0,0,0,0.1c0.3,0.6,0.9,0.9,1.4,1c0,0,0.1,0,0.2,0c2.1-0.1,5.8-3,7.3-4.5c2.1-2,5.2-4.6,5.9-2.9
				c0.7,1.8-1.6,1.7-5.5,7l0.4,0.6c-0.2,0.4,3.8-1.6,7-4.1c2.2-1.8,2.7,0.3,2.3,1.2s-2.9,2.3-4.5,3.6c-1,0.8-2.2,1.7-2.9,2.2
				l0.2,0.9c5.5-1.2,6.4-3.3,7.6-2.2s-2.3,3.5-4.1,3.9c-0.8,0.2-2.1,0.9-3.3,1.6c4.4-0.1,5.5-1.5,6.2-0.4
				C982,81.3,978.7,82.6,977.2,82.6z"/>
			<path id="XMLID_113_" class="st2" d="M963.1,78.6c1.4-2.6-0.1-5.9-0.2-6.4c0.3,0.6,0.9,0.9,1.4,1
				C965.4,76.7,963.1,78.6,963.1,78.6z"/>
		</g>
		<path id="XMLID_112_" class="st1" d="M903,338.6l-16.2-100.5l-32.5,3.6l-32.5-3.6l-16.2,100.5l-7.8,97.4c0,0,2.5,8.1,18.7,2.5
			c0,0,12-90.3,13.9-92.3c1.8-2,20.9-61,20.9-61h6c0,0,19.1,59,20.9,61c1.8,2,13.9,92.3,13.9,92.3c16.2,5.6,18.7-2.5,18.7-2.5
			L903,338.6z"/>
		<path id="XMLID_111_" class="st16" d="M844,140.9c2.1,2,12.1,5.6,17.5,0l3.6,3.5c0,0-4.1,9.7-11.3,10.1
			c-7.3,0.3-12.4-8.6-12.4-8.6L844,140.9z"/>
		<path id="XMLID_110_" class="st16" d="M872.6,139.8c12-5.2,51.1-19,51.1-19s26.3-32.9,31.6-37.7c0,0,5.8,1,7.5,8.3
			c0,0-16.9,36.1-26.1,46.5s-55.7,32.7-55.7,32.7L872.6,139.8z"/>
		<path id="XMLID_109_" class="st15" d="M830.3,139.1c3.6-2.2,21.6,9.8,21.6,9.8s23.5-12.4,29-10.1c0,0,4.9,6.6,6.9,23.7
			c2,17.1,2.1,87.3,2.1,87.3s-15.8,5.6-37.1,5.6c-24.3,0-37.4-6.9-37.4-6.9S811.1,151.2,830.3,139.1z"/>
		<path id="XMLID_108_" class="st2" d="M845,137.2c0,0,2.6,8.1,0,11.3c0,0,2.7,5.7,7.6,5.9c5.6,0.3,7.6-5.9,7.6-5.9s-3-7.9,0-10.7
			L845,137.2z"/>
		<g id="XMLID_362_">
			<path id="XMLID_107_" class="st10" d="M838.5,129.2c0,0-5.5-10.5-4.4-21.8s18-13.8,29.4-8.3c0,0-3.4-3.4-2.1-4.2
				c1.4-1,3.6,4.9,3.6,4.9s3.6-1.1,4.1,0s-3.7,1.7-3.7,1.7s7.3,4.1,0.5,25.9L838.5,129.2z"/>
			<path id="XMLID_106_" class="st3" d="M837.7,122.5c0,0-4.1-4.1-4.5,0.7c-0.6,5.5,4.4,7.7,5.4,6
				C839.4,127.4,837.7,122.5,837.7,122.5z"/>
			<path id="XMLID_105_" class="st3" d="M866.2,122.8c0,0,4.1-4.1,4.5,0.7c0.6,5.5-4.4,7.7-5.4,6
				C864.4,127.7,866.2,122.8,866.2,122.8z"/>
			<path id="XMLID_104_" class="st3" d="M851.5,142.5c-9,0-14.1-5.9-14.1-23.6c0-9.2,4.6-14.8,14.8-14.8c10.1,0,14.4,5.6,14.4,14.8
				C866.6,137.9,860.8,142.5,851.5,142.5z"/>
			
				<ellipse id="XMLID_103_" transform="matrix(-0.1718 -0.9851 0.9851 -0.1718 885.7945 995.7137)" class="st6" cx="861.4" cy="125.5" rx="1.7" ry="2.1"/>
			
				<ellipse id="XMLID_102_" transform="matrix(6.502865e-002 -0.9979 0.9979 6.502865e-002 662.8464 958.4421)" class="st6" cx="842.9" cy="125.5" rx="1.7" ry="2.1"/>
			<g id="XMLID_371_">
				<path id="XMLID_101_" class="st10" d="M859.4,116c-0.1,0-0.2-0.1-0.3-0.2c-1.3-1.3-3.4-1.3-3.5-1.3c-0.2,0-0.5-0.2-0.5-0.4
					c0-0.2,0.2-0.5,0.4-0.5c0.1,0,2.6-0.1,4.1,1.5c0.2,0.2,0.2,0.5,0,0.6C859.6,115.9,859.6,116,859.4,116z"/>
			</g>
			<g id="XMLID_369_">
				<path id="XMLID_100_" class="st10" d="M842.4,116c-0.1,0-0.2-0.1-0.3-0.2c-0.2-0.2-0.2-0.5,0-0.6c1.5-1.6,4.1-1.5,4.1-1.5
					c0.2,0,0.5,0.2,0.4,0.5c0,0.2-0.2,0.5-0.5,0.4c0,0-2.2-0.1-3.5,1.3C842.6,115.9,842.5,116,842.4,116z"/>
			</g>
			<ellipse id="XMLID_99_" class="st7" cx="857.5" cy="120.8" rx="1.1" ry="2"/>
			<ellipse id="XMLID_98_" class="st7" cx="845.4" cy="120.8" rx="1.1" ry="2"/>
			<path id="XMLID_97_" class="st7" d="M846.5,132.8c0,0,8,1,12-1c0,0-2.3,5.4-6.7,4.9C847.6,136.3,846.5,132.8,846.5,132.8z"/>
			<path id="XMLID_96_" class="st10" d="M865.6,124.8c0,0-0.3-9.8-4.1-17.4c0,0-6.8,3.1-8.2,2.4c-1.5-0.7,1.4-2.4,1.4-2.4
				s-11.2,3.7-11.8,3c-0.6-0.7,3.7-3,3.7-3l-6.9,2.4c0,0-2.2,8.9-1.3,15c0,0-3-5.1-3.4-8.7c-0.4-3.6,1.2-13.6,11.7-14.4
				c10.5-0.7,16.4,1.6,18.9,6.5C868.2,113,867.9,118.9,865.6,124.8z"/>
			<g id="XMLID_363_">
				<path id="XMLID_95_" class="st6" d="M853.1,130c-0.9,0-1.8-0.2-2.1-0.3l0.2-1c1,0.2,2.5,0.4,2.8,0c0.1-0.2,0.1-0.5-0.2-0.9
					c-1.3-2.8-1.6-9.8-1.6-10.1h1c0,0.1,0.2,7.1,1.5,9.7c0.4,0.8,0.4,1.4,0,1.9C854.4,129.8,853.7,130,853.1,130z"/>
			</g>
		</g>
		<path id="XMLID_94_" class="st17" d="M863.1,143.4c0,0,16.4,50.8,18,92.2c0,0,5.9,1.6,12.5-7.4c6.6-9.1,2.7-80.8-10.1-92.8
			C883.6,135.5,877.7,134.1,863.1,143.4z"/>
		<path id="XMLID_93_" class="st16" d="M865.8,152.4c0,0,3-6.8,1.6-11.5s-5.9,0-5.9,0S863.4,148.6,865.8,152.4z"/>
		<path id="XMLID_92_" class="st16" d="M832.9,139.8c-12-5.2-51.1-19-51.1-19S755.5,87,750.2,82.1c0,0-6.6,3.8-7.1,11.5
			c0,0,16.5,33.9,25.7,44.3s55.7,32.7,55.7,32.7L832.9,139.8z"/>
		<path id="XMLID_91_" class="st17" d="M842.4,143.4c0,0-16.4,50.8-18,92.2c0,0-5.9,1.6-12.5-7.4c-6.6-9.1-2.7-80.8,10.1-92.8
			C822,135.5,827.7,134.1,842.4,143.4z"/>
		<path id="XMLID_90_" class="st16" d="M839.8,152.4c0,0-3-6.8-1.6-11.5c1.4-4.7,5.9,0,5.9,0S842.2,148.6,839.8,152.4z"/>
		<g id="XMLID_354_">
			<path id="XMLID_89_" class="st11" d="M925.1,462.2h-32.5c-2.2-12.9,1.4-25.9,1.4-25.9l14.8-2.6c1.4,8.1,3,11.4,5.3,13.1l0,0
				c1.7,1.2,3.6,1.6,6.1,2.5c2.8,1,4.3,2.7,5,4.7C926.7,457.8,925.1,462.2,925.1,462.2z"/>
			<path id="XMLID_88_" class="st10" d="M925.2,453.9c-8,1-25.6,2.7-24.6-1.9c0.9-3.9,8.3-4.9,13.5-5.2l0,0c1.7,1.2,3.6,1.6,6.1,2.5
				C923,450.2,924.5,452,925.2,453.9z"/>
		</g>
		<g id="XMLID_351_">
			<path id="XMLID_87_" class="st11" d="M816.3,462.2h-32.5c0,0-1-3-0.6-6.2c0.4-2.6,1.8-5.3,5.5-6.7c2.8-1,4.9-1.4,6.8-3
				c1.9-1.8,3.4-5.2,4.5-12.5l14.8,2.6C814.9,436.3,818.5,449.2,816.3,462.2z"/>
			<path id="XMLID_86_" class="st10" d="M783.3,455.9c0.4-2.6,1.8-5.3,5.5-6.7c2.8-1,4.9-1.4,6.8-3c4.1,1.3,9.9,3.6,11.7,7.1
				C809.7,458.3,790.7,457.5,783.3,455.9z"/>
		</g>
	</g>
	<g id="XMLID_306_">
		<g id="XMLID_345_">
			<path id="XMLID_85_" class="st4" d="M1049.7,459.9c0,1.4-0.2,2.3-0.2,2.3h-39.5c0-0.8,0-1.6,0.1-2.3c0.5-10.3,3.7-19.3,3.7-19.3
				l9.9-4.2c0.9,5.1,3,8.3,5.7,10.5c0.7,0.6,1.5,1,2.2,1.4c0.4,0.2,0.7,0.4,1.1,0.6c0.8,0.4,1.7,0.7,2.6,1c3.5,1,7,1.3,9.5,1.7
				C1049.1,452,1049.7,456.9,1049.7,459.9z"/>
			<path id="XMLID_84_" class="st18" d="M1049.7,459.9c0,1.4-0.2,2.3-0.2,2.3h-39.5c0-0.8,0-1.6,0.1-2.3H1049.7L1049.7,459.9z"/>
			<path id="XMLID_83_" class="st18" d="M1031.8,448.2l-5.5,1.8l-1.1-2l4.4-1.2C1030.2,447.3,1031,447.8,1031.8,448.2z"/>
			<path id="XMLID_82_" class="st18" d="M1035.4,449.7l-3.7,2.5l-2.2-0.9l3.4-2.5C1033.7,449.2,1034.5,449.5,1035.4,449.7z"/>
		</g>
		<g id="XMLID_340_">
			<path id="XMLID_81_" class="st4" d="M898.8,459.9c-0.1,1.4-0.5,2.3-0.5,2.3H872c-0.3-0.8-0.6-1.5-0.7-2.3
				c-2.6-12.6,14.9-28,14.9-28l5.6,7.4c0,0-0.6,11.8,4.1,14.3C898.7,455.1,899,457.9,898.8,459.9z"/>
			<path id="XMLID_80_" class="st18" d="M871.3,459.9h27.5c-0.1,1.4-0.5,2.3-0.5,2.3h-26.3C871.7,461.4,871.4,460.6,871.3,459.9z"/>
			<path id="XMLID_79_" class="st18" d="M894.6,452.7c0,0-11.1-2.6-16.1,0.7v-1.8C878.5,451.6,887.8,447,894.6,452.7z"/>
			<path id="XMLID_78_" class="st18" d="M892.4,449.8c0,0-7.1-3.3-14,0l0.8-1.8C879.3,448,887.5,444.8,892.4,449.8z"/>
		</g>
		<path id="XMLID_77_" class="st19" d="M1037.7,348c0,10.6-9.4,96.9-9.4,96.9c-9.4,1-16.9-1-16.9-1c-2.6-43.7-2.8-81.3-2.8-81.3
			l-45-33.8l-0.1-0.1c0,0-0.2,0.8-0.5,2.2c-2.2,9.9-11.7,51.4-15.6,60.8c-4.5,10.9-53.4,56.3-53.4,56.3c-9.1-1.3-16.8-7.8-16.8-7.8
			c17.6-29.1,41.5-58.3,41.5-58.3c1.8-10.5,3.2-33.8,4-51.3c0-0.2,0-0.6,0.1-0.8c0.6-11.8,0.8-20.7,0.8-20.7l-8.2-16.9l52.4-19.2
			l11.7,15c0,0,2.7,2.5,6.9,6.5c0.2,0.2,0.4,0.4,0.6,0.6C1002.7,309.7,1037.7,343.2,1037.7,348z"/>
		<g id="XMLID_335_">
			<path id="XMLID_76_" class="st8" d="M922.8,330.5c0-0.2,0-0.6,0.1-0.8c11-6,9.2-15.6,9.2-15.6l0.7-0.2
				C932.6,314,934.6,324.3,922.8,330.5z"/>
			<path id="XMLID_75_" class="st8" d="M962.8,322c0.4,2.1,0.6,4.4,0.8,6.8l-0.1-0.1c0,0-0.2,0.8-0.5,2.2
				c-0.5-16.4-7.3-26.1-7.3-26.2l0.6-0.4c0.1,0.1,4.3,6.2,6.4,17c8-7.1,0.2-21.6,0.1-21.7l0.6-0.3
				C963.5,299.3,971.7,314.7,962.8,322z"/>
			<path id="XMLID_74_" class="st8" d="M987,294.8L987,294.8c-0.4,0.2-0.7,0.2-1.1,0.2c-3.8,0-10.4-5.4-10.6-5.7l0.5-0.6
				c2.1,1.8,8,6.1,10.8,5.4C986.6,294.4,986.8,294.7,987,294.8z"/>
		</g>
		<path id="XMLID_73_" class="st0" d="M919,201.8c0,0,16-2.6,23.9,2.6s18.5,18.4,18.5,18.4s-12.4,1.7-13.9,10.1
			C947.6,232.8,938.5,211.3,919,201.8z"/>
		<path id="XMLID_72_" class="st5" d="M895,210.1c-6.8,3.7-18,17.3-18.5,25.8c-0.5,8.2,5.6,15.8,9.7,22.2c12.8,20,26.3,37.7,32,61.2
			c0,0.2,29.3,11.7,63.6-29.5c0,0-19.4-26.1-26.1-48.3c-2.7-9-5.5-18.7-10.8-26.6c-5.7-8.8-15.6-14-25.9-13.1
			C910.3,202.5,901.6,206.5,895,210.1z"/>
		<path id="XMLID_71_" class="st2" d="M892.2,201.7c0,0,4.3,7.3,2.3,11.4c0,0,14.8,5.1,14.8-3.2c0,0-2.8-6.2-1.8-10.2L892.2,201.7z"
			/>
		<path id="XMLID_70_" class="st2" d="M925.1,252.2c0,0-8.2,2.3-10.3,5.3c-2.1,3-3.9,9.4-3.9,9.4h14.2l2.7-4.9l3.1-6.5L925.1,252.2z
			"/>
		<g id="XMLID_311_">
			<path id="XMLID_69_" class="st4" d="M911.4,193.5c0,0,5.7-2.4,2.1-19.8c-2.5-11.5-6.1-13.2-8.4-13.3c0,0-2.8-4.2-12.6-2.2
				c-6.7,1.4-12,5.5-14.4,13c-2.5,7.9,2.5,24.7,8.9,26.4L911.4,193.5z"/>
			<path id="XMLID_68_" class="st3" d="M912.9,181.8c0,0,3.7-5.1,5-0.1c1.6,5.8-3.4,9-4.7,7.3C911.7,187.3,912.9,181.8,912.9,181.8z
				"/>
			<path id="XMLID_67_" class="st3" d="M882.3,187.1c0,0-5.1-3.7-4.8,1.5c0.3,6,6.1,7.5,6.9,5.4C885.1,192,882.3,187.1,882.3,187.1z
				"/>
			<path id="XMLID_66_" class="st3" d="M901.5,205.5c9.7-1.6,14.1-8.9,10.9-27.8c-1.6-9.8-7.6-14.9-18.4-13.2
				c-10.9,1.8-14.4,8.5-12.8,18.4C884.6,203.3,891.6,207.1,901.5,205.5z"/>
			
				<ellipse id="XMLID_65_" transform="matrix(-9.196662e-003 1 -1 -9.196662e-003 1085.0924 -696.9332)" class="st6" cx="887.8" cy="189.1" rx="1.8" ry="2.2"/>
			
				<ellipse id="XMLID_64_" transform="matrix(0.2266 0.974 -0.974 0.2266 883.1204 -740.3937)" class="st6" cx="907.8" cy="185.9" rx="1.8" ry="2.2"/>
			<g id="XMLID_323_">
				<path id="XMLID_63_" class="st7" d="M888.4,178.6c-0.1,0-0.2,0-0.2-0.1c-0.2-0.2-0.3-0.5-0.2-0.7c1.4-2,4.1-2.4,4.1-2.4
					c0.3,0,0.5,0.2,0.6,0.4c0,0.2-0.2,0.5-0.4,0.6c0,0-2.4,0.3-3.5,2C888.6,178.5,888.5,178.6,888.4,178.6z"/>
			</g>
			<g id="XMLID_321_">
				<path id="XMLID_62_" class="st7" d="M906.6,175.5c-0.1,0-0.2,0-0.3-0.1c-1.6-1.2-3.9-0.7-3.9-0.7c-0.2,0.1-0.6-0.2-0.6-0.4
					c-0.1-0.2,0.2-0.6,0.4-0.6c0.1,0,2.8-0.6,4.7,0.9c0.2,0.2,0.2,0.5,0.1,0.7C906.9,175.5,906.7,175.5,906.6,175.5z"/>
			</g>
			
				<ellipse id="XMLID_61_" transform="matrix(0.1628 0.9867 -0.9867 0.1628 927.097 -725.8342)" class="st7" cx="891.3" cy="183.4" rx="2.2" ry="1.2"/>
			
				<ellipse id="XMLID_60_" transform="matrix(0.1628 0.9867 -0.9867 0.1628 935.83 -740.3553)" class="st7" cx="904.2" cy="181.3" rx="2.2" ry="1.2"/>
			<path id="XMLID_59_" class="st7" d="M906.6,192.4c0,0-8.4,2.2-13.1,1.4c0,0,3.2,4.1,7.8,2.9S906.6,192.4,906.6,192.4z"/>
			<path id="XMLID_58_" class="st1" d="M907,168.9c0,0-10.9,7.9-24.7,8.5l0.4,12.2c0,0-12.8-23.5,12.5-27.7s18,22.1,18,22.1
				S912.5,172.7,907,168.9z"/>
			<g id="XMLID_315_">
				<path id="XMLID_57_" class="st6" d="M898.1,189.1l-0.1-1c0,0,1.4-0.1,1.8-1c0.2-0.4-0.5-1.6-1-2.6c-0.8-1.4-1.7-3.3-2.1-5.3
					l1-0.2c0.4,1.8,1.3,3.6,2,4.9c0.8,1.5,1.4,2.6,1,3.5C900.3,188.9,898.2,189,898.1,189.1z"/>
			</g>
			<path id="XMLID_56_" class="st12" d="M912.9,169c-18.4-8-35.7,8.5-35.7,8.5s-2-13.4,1.5-16.5c1-0.8,1.9-1.5,3-2.2
				c8.1-5.1,18.9-5,23.9-3.3c1,0.4,1.8,0.8,2.2,1.3C910.7,159.8,912.9,169,912.9,169z"/>
			<path id="XMLID_55_" class="st5" d="M910.7,166c0,0-15.4-3-29.8,6.5c0,0-1-8.6,0.8-13.6c8.1-5.1,18.9-5,23.9-3.3
				C908.5,158.9,910.7,166,910.7,166z"/>
			<path id="XMLID_54_" class="st14" d="M878.8,175.9c0,0,2.5-10.4,5.7-13.3c5.5-4.9,20.9-6.5,29-3.6c8.1,3,0,11.8,0,11.8
				S900.6,161.6,878.8,175.9z"/>
		</g>
		<path id="XMLID_53_" class="st3" d="M902.6,245c0,0,6.3,9.7,17.1,15.5c0,0,13.4-11.7,30.9-10.6c0,0-14.4,26-26.8,29
			c-6.5,1.5-30.1-14.1-30.1-14.1S898.3,248.1,902.6,245z"/>
		<path id="XMLID_52_" class="st0" d="M879.3,227.3c5.7-9.4,19.1,4.5,23.6,14.4c4.5,9.9,7.8,12,7.8,12s-13.3,5.6-13.2,15.6
			C897.6,269.2,866.8,247.8,879.3,227.3z"/>
		<path id="XMLID_51_" class="st2" d="M919.6,256.2c0,0,8.1-8,34.7-18.4l-3.4-10.9c3-4,8.7-4,8.7-4s13.6,19.3,11.3,25.1
			C969.4,251.7,940.9,255.5,919.6,256.2z"/>
		<path id="XMLID_50_" class="st3" d="M948.8,240.5c0,0,0.2-1.1,1.2-2.6c1-1.4,0.7-3.9,1-4.7c0.3-0.8,2.5-4,3.8-4.6
			c1.4-0.6,3.2-1.7,3.6,0.2c0.4,1.8-2.5,1.3-3.8,3.8c0,0,2.8-0.9,5.1-0.4c2.2,0.6,2.9,2.6,0.1,2.6c-2.2-0.1-5,1.5-5,1.5
			s2.9,0.4,2.4,1.8C956.7,239.8,953.2,238.7,948.8,240.5z"/>
	</g>
	<g id="XMLID_243_">
		<path id="XMLID_49_" class="st20" d="M751.7,276.8c2.4,6.1,12.1,16.5,12.1,16.5s23.9-14.3,34.8-8.3c11,6,19.7,9.7,26.9,7
			c7.1-2.6-23.5-58.3-23.5-58.3l-39.7-15.2c0,0-0.9,10.1-5.4,11.8c-4.5,1.8-9.3,18.4-9,21.5C748.4,255.2,751.7,276.8,751.7,276.8z"
			/>
		<path id="XMLID_48_" class="st2" d="M796.4,293.7c0,0-10.2,20-31.4,45.7c0,0-2.2,30.5-58,78.5l-5.8-4.6c0,0,33.3-52,39.9-68.1
			c6.6-16-3.7-30.6,26.9-70.9L796.4,293.7z"/>
		<path id="XMLID_47_" class="st11" d="M763.8,258.2c-8.8,16.8-11.7,38.4-11.7,38.4l-4,10.1c0,0,14.2,7.7,30.6,10.5l6.5-17.4
			L763.8,258.2z"/>
		<path id="XMLID_46_" class="st3" d="M809.8,292.1c0,0,4.4,22.1,3.7,55.3c0,0,17.2,25.3,3,97.6H809c0,0-6.1-61.4-10.7-78.1
			c-4.6-16.7-21.8-21.8-22.7-72.4L809.8,292.1z"/>
		<g id="XMLID_297_">
			<path id="XMLID_45_" class="st10" d="M814.1,315.8c0,0-14,2.5-38.6,1.4l-0.4-2.8l-0.1-0.7l-2.6-18c0,0-2.4-3-4.8-7.7
				c-0.3-0.6-0.6-1.1-0.9-1.8c-3.4-7.1-6.2-17.3-3-28.1l5.2,0.2l0.7,0.1l17.4,0.8l0.7,0.1l5.7,0.2l0.9,0.1l3.7,0.2
				c0,0,18.8,17,15.5,48.4l0.2,4.4v0.7L814.1,315.8z"/>
			<g id="XMLID_298_">
				<path id="XMLID_44_" class="st11" d="M769.8,258.5c-0.5,1.4-3.8,12-2.2,29.5c-0.3-0.6-0.6-1.1-0.9-1.8
					c-1.3-16,1.6-25.9,2.2-27.8c0.1-0.2,0.2-0.3,0.2-0.4l0.6,0.2C769.8,258.4,769.8,258.4,769.8,258.5z"/>
				<path id="XMLID_43_" class="st11" d="M814,313.3c-4.9,1.3-13.3,1.6-21.3,1.6c-7.2,0-14-0.3-17.6-0.5l-0.1-0.7
					c6.2,0.3,22.7,1,33.4-0.2l-0.7-11.3c0.2-13.1-3.8-24.3-7.6-32c-9.7-1.8-12.4-8.9-12.9-10.9c-0.1-0.3-0.2-0.5-0.2-0.6l0.7-0.1
					c0,0,0.1,0.2,0.2,0.7c0.6,2.1,3.2,8.3,11.7,10.1c-2.6-5-5-8.5-6.1-9.8c-0.3-0.4-0.5-0.6-0.5-0.6l0.6-0.5c0,0,0.3,0.4,0.9,1.1
					c3.3,4.4,14.1,20.9,13.9,42.5l0.7,11.2c1.8-0.2,3.5-0.5,4.9-0.9L814,313.3z"/>
			</g>
		</g>
		<path id="XMLID_42_" class="st19" d="M778.3,182.6c-5.6-3-45.6,12.6-45.6,12.6s-5.9,10.5-2.2,14.7c3.7,4.1,16.8,2.3,20.7,0
			c4-2.3,14.6-4.1,14.6-4.1L778.3,182.6z"/>
		<path id="XMLID_41_" class="st13" d="M813.7,149.4c0,0,8.3,3.2,11.3,12.7c3,9.5-6,33.6-2.9,44.7c3.1,11.1,2.6,32-7.1,36.4
			s-29.8-3.5-34-15.6c-4.3-12-2.5-57.9,5.8-73.4C795,138.6,811.7,146.4,813.7,149.4z"/>
		<path id="XMLID_40_" class="st19" d="M804.2,190.4c2.2,2.3,7.7-1.8,7.7-1.8s-0.1,20.7-6.1,22.3c-6.1,1.6-21.4-16.4-20.7-21.2
			C785.7,184.8,799.4,185.2,804.2,190.4z"/>
		<path id="XMLID_39_" class="st1" d="M781,185.2c0,0,6.1,5.2,16.8,7.7c10.6,2.5,16.4-2.6,21.9,4.3c8.1,10.3-5.1,29.3-12.1,39.1
			c-2.6,3.7-8.1,13.8-9.2,23.6c0,0-18.4,5.3-34.4-1.6l-1.2-22.7C762.7,235.6,752.6,205.1,781,185.2z"/>
		<path id="XMLID_38_" class="st19" d="M800,207.2c0,0,8.5-20.1,10.9-21.4c2.5-1.3,8.6,1.8,9.9,4.5s0,8.8,0,8.8
			S814.1,191.6,800,207.2z"/>
		<path id="XMLID_37_" class="st8" d="M840.4,292.1c-3.8,7.8-13.2,10.1-13.2,10.1s-0.7-1.1-1.9-3c-0.2-0.2-0.2-0.4-0.4-0.6
			c-7.4-12-30-50.4-29.6-70.4c0.5-23.9,16.1-36.9,16.1-36.9c7.9,1.9,10.4,4.1,10.4,4.1s2.6,13.6,0.2,29.9
			c-2.5,16.4-6.9,20.7-4.6,21.9c2.2,1.2,0,3.7,0,3.7s13.1,18.3,15.6,23.9c1.6,3.7,4.3,10,6,14c0.1,0.2,0.2,0.6,0.3,0.8
			C839.9,291.1,840.4,292.1,840.4,292.1z"/>
		<path id="XMLID_36_" class="st3" d="M817.6,195.2c0,0-9.4,6.9-3.9,17.6l26,27c-14.3,15.2-15.7,21.5-26,28.5l3.9,6.1
			c0,0,36.1-27.8,36.2-34.6C853.9,236.9,831.7,201.9,817.6,195.2z"/>
		<path id="XMLID_35_" class="st3" d="M813.1,268.3c0,0-4.9,0.6-8.1,1.4c-3.1,0.8-7.3,1.6-7.4,2.2c-0.2,0.6,6.9,0,6.9,0
			s-5.7,2.3-5.8,3.3c-0.2,0.9,7.3-0.6,7.3-0.6s-4.7,2.9-4.4,3.7c0.2,0.8,6.1-1.2,6.1-1.2s-1,2.7-2.2,4.1c0,0,1.1,0.6,3.4-1.9
			c2.2-2.6,5.9-1.7,8.8-3.9C820.4,272.9,815.7,267.9,813.1,268.3z"/>
		<path id="XMLID_34_" class="st8" d="M786.5,188.5c0,0-7.2,4.6-11.7,15.8c-4.5,11.2-18.8,32.2-22.1,37.6c-3.4,5.4-1,35-1,35
			s-4.1-17.9-6.1-24.9c-1.8-6.9,6-24.2,7.2-25.1c1.2-0.9,7.2,0.8,6.1-6.2c-1.2-7,15.1-37.1,19.4-38
			C778.3,182.6,785.3,183.9,786.5,188.5z"/>
		<path id="XMLID_33_" class="st8" d="M764.4,190.1c-0.2,0.2-0.2,0.5-0.4,0.7c-1.6,2.3-4.6,4.1-4.6,4.1s-5.4,7.7-5.5,8.5
			c-0.1,0.7-9.5,7.6-13.6,7.4l0,0c-0.6,0-1-0.2-1.4-0.5c-2.5-2.3,8.5-22,10.9-26.3c0.2-0.2,0.2-0.5,0.4-0.6c0.1-0.1,0.1-0.2,0.1-0.2
			s-1.9-7.2,6.1-5.8c6.7,1.1,8,6.4,8.7,10C765.1,188.4,764.8,189.2,764.4,190.1z"/>
		<path id="XMLID_32_" class="st3" d="M736.4,197.5c5.5-7.3,24.9-21.3,35.1-25.5l2.6,4.8c0,0-19.8,17.4-24.4,24.8
			s-10.4,10.5-15.9,8.1C728.3,207,735.2,199,736.4,197.5z"/>
		<path id="XMLID_31_" class="st19" d="M762.5,188.5l-1,1.2l-0.6,0.6l-1.8,2c0,0-4.4,5.3-4.1,7.4c0.2,1.5-8.2,8.3-14.8,11.2
			c-2.6,1.1-5,1.7-6.4,0.9c-4.7-2.7-3.7-10.9-1-16.5c2.3-4.9,12.7-11.1,15.4-12.6c0.3-0.2,0.6-0.3,0.6-0.4l0,0l1-3.8
			c0,0,3.6-2.2,6.5-0.8c0,0-6.3,0.2-5.3,2.7C752.1,182.7,760.8,188.5,762.5,188.5z"/>
		<g id="XMLID_281_">
			<path id="XMLID_30_" class="st3" d="M785.3,168.4c-6.3,2.6-5.4,8.3-11.2,8.3c-3.6,0-4.1-4.1-4.1-4.1c1.6-3.5,2.6-9.5,2.9-12.3
				c0.2-2.9,1.2-1.8,1.2-1.8c0-0.2,0-0.5,0-0.8c-0.1-1.9-0.4-3.3,0.8-2.5c1.4,1,1.9,6.3,1.9,6.3c1.2-7.9-0.6-9.1,0.8-8.4
				c1.8,1,1.9,7.9,1.9,8.1c1.5-4.5,1.1-7.2,2.2-6.1c1,1-0.6,9.5-1.1,12.6c-0.2,0.7-0.2,1.1-0.2,1.1
				C785.2,166.5,785.3,168.4,785.3,168.4z"/>
			<path id="XMLID_29_" class="st2" d="M780.5,167.9c-0.2,0.7-0.2,1.1-0.2,1.1s-2.3-0.2-4,2.2C776.2,171.2,776.7,167.9,780.5,167.9z
				"/>
			<path id="XMLID_28_" class="st2" d="M774.4,164.3c0.1-0.6,0.3-4.5-0.3-5.7c0-0.2,0-0.5,0-0.8
				C775.5,158.1,774.6,163.5,774.4,164.3z"/>
		</g>
		<path id="XMLID_27_" class="st19" d="M778.3,197.5c0,0,4.2-11.6,5.6-14.1c1.4-2.6,8.5-2.2,13.8-1.1s6.5,8.1,6.5,8.1
			S787.9,182.7,778.3,197.5z"/>
		<path id="XMLID_26_" class="st2" d="M805.8,174.7c0,0-5.1,9.4-5,19.9c0,0-8.3,5.7-11.3-1.4c0,0,3.2-9.3,1.6-21.8
			C790.1,163.1,805.8,174.7,805.8,174.7z"/>
		<g id="XMLID_261_">
			<path id="XMLID_25_" class="st3" d="M789.5,161.6c0,0-1.5-5.4-4.2-1.6c-3.1,4.4,0.1,8.7,1.8,7.7
				C788.7,166.7,789.5,161.6,789.5,161.6z"/>
			<path id="XMLID_24_" class="st3" d="M813.7,175.5c0,0,5.4-1.5,3.6,2.8c-2.2,4.9-7.5,4.5-7.4,2.5
				C809.8,178.9,813.7,175.5,813.7,175.5z"/>
			<path id="XMLID_23_" class="st3" d="M791.7,185.3c-7.7-4.3-9.2-11.8-0.7-26.9c4.4-7.7,11-10.3,19.6-5.4
				c8.6,4.9,9.6,11.7,5.2,19.5C806.7,188.5,799.7,189.7,791.7,185.3z"/>
			
				<ellipse id="XMLID_22_" transform="matrix(0.3337 -0.9427 0.9427 0.3337 373.0231 879.0152)" class="st6" cx="808.3" cy="175.6" rx="1.6" ry="2.1"/>
			
				<ellipse id="XMLID_21_" transform="matrix(0.5463 -0.8376 0.8376 0.5463 219.9595 739.4484)" class="st6" cx="792.5" cy="166.7" rx="1.6" ry="2.1"/>
			<g id="XMLID_272_">
				<path id="XMLID_20_" class="st7" d="M811.4,166.5c-0.2,0-0.4-0.2-0.4-0.3c-0.4-1.8-2.3-2.7-2.4-2.7c-0.2-0.1-0.3-0.4-0.2-0.6
					c0.1-0.2,0.4-0.3,0.6-0.2c0.1,0.1,2.2,1.2,2.8,3.3C811.8,166.3,811.7,166.5,811.4,166.5C811.4,166.5,811.4,166.5,811.4,166.5z"
					/>
			</g>
			<g id="XMLID_270_">
				<path id="XMLID_19_" class="st7" d="M800.8,159c-0.1,0-0.2,0-0.2-0.1c0,0-1.8-1.1-3.6-0.6c-0.2,0.1-0.5-0.1-0.6-0.3
					c-0.1-0.2,0.1-0.5,0.3-0.6c2.1-0.6,4.1,0.6,4.3,0.7c0.2,0.2,0.2,0.4,0.2,0.6C801.1,158.9,801,159,800.8,159z"/>
			</g>
			
				<ellipse id="XMLID_18_" transform="matrix(0.4907 -0.8713 0.8713 0.4907 263.329 789.8015)" class="st7" cx="807.2" cy="169.7" rx="2" ry="1.1"/>
			
				<ellipse id="XMLID_17_" transform="matrix(0.4907 -0.8713 0.8713 0.4907 262.8066 777.3865)" class="st7" cx="796.4" cy="163.9" rx="2" ry="1.1"/>
			<path id="XMLID_16_" class="st7" d="M793.6,174.3c0,0,4.4,3.4,7.6,3.4c0,0-3.4,2.8-5.8,1C793,176.9,793.6,174.3,793.6,174.3z"/>
			<path id="XMLID_15_" class="st7" d="M805.8,168.3c0,0,2-2,2.9-1.3c0.8,0.7,0.4,3.1,0.4,3.1l1.8,0.1l-1.4-0.6c0,0,0.5-2.5-0.5-3
				C807.7,165.8,805.8,168.3,805.8,168.3z"/>
			<path id="XMLID_14_" class="st7" d="M798.3,164.4c0,0,0.6-2.7-0.4-3.1c-1-0.3-2.9,1.3-2.9,1.3l-1-1.5l1.3,1c0,0,1.9-1.7,2.8-1.2
				C799.4,161.5,798.3,164.4,798.3,164.4z"/>
			<path id="XMLID_13_" class="st13" d="M812.7,156.1c0,0-2.8-3.8-6.5-0.8c-3.8,3-12.4,7.9-16.6,6.3s9.3-19.6,20.9-14.4
				c11.7,5.3,10.6,22.4,5.7,27.8c-4.9,5.4-2.6,0.4-2.6,0.4s0.3-7.7,1.9-12.8C817.3,157.6,812.7,156.1,812.7,156.1z"/>
			<g id="XMLID_262_">
				<path id="XMLID_12_" class="st6" d="M799.7,172.5c-0.2,0-0.4,0-0.6-0.1l0.2-1c0.8,0.2,1.2-0.2,1.4-0.5c0.2-0.5,0.2-1,0-1.3
					c-0.2-0.2-0.3-0.1-0.6,0l-0.5-0.9c1-0.5,1.5-0.1,1.8,0.2c0.6,0.6,0.6,1.6,0.1,2.4C801.1,172.1,800.5,172.5,799.7,172.5z"/>
			</g>
		</g>
		<g id="XMLID_257_">
			<path id="XMLID_11_" class="st19" d="M856,238.7c-0.5,6.8-17.2,28.8-19.9,29.5c-0.7,0.2-1.4,0.6-2.2,1c-0.3,0.2-0.6,0.4-0.9,0.6
				c-1.6,1.3-2.8,2.8-2.8,2.8c-4.9-0.3-18.6-6.6-14.2-8.1c0.2-0.1,0.6-0.2,0.9-0.5c0.2-0.2,0.4-0.2,0.6-0.5
				c5.2-4.4,15.2-22,15.3-23.3c0.1-1.4,1.8-1.8,1.8-1.8s-9.5-14-15-15.6c-5.5-1.7-8.3-8.4-8.3-8.4c-5.4-23.1,10.4-19.5,10.4-19.5
				C833.5,202.2,856.5,231.9,856,238.7z"/>
			<g id="XMLID_258_">
				<path id="XMLID_10_" class="st20" d="M833.9,269.4c-0.3,0.2-0.6,0.4-0.9,0.6c-7.5-0.5-13.7-4.2-16.1-5.7
					c0.2-0.2,0.4-0.2,0.6-0.5C820.1,265.4,826.4,269.1,833.9,269.4z"/>
			</g>
		</g>
		<g id="XMLID_255_">
			<path id="XMLID_9_" class="st20" d="M764.4,190.1c-0.2,0.2-0.2,0.5-0.4,0.7c-1-0.1-2.1-0.2-3-0.4c-4.9-1-8.8-3.8-11.3-6.2
				c-0.6-0.6-1-1.1-1.5-1.6c0.3-0.2,0.6-0.3,0.6-0.4c0.4,0.4,0.8,0.9,1.3,1.3c2.5,2.5,6.3,5.3,11.4,6.2
				C762.4,189.9,763.4,190.1,764.4,190.1z"/>
		</g>
		<g id="XMLID_253_">
			<path id="XMLID_8_" class="st20" d="M839.2,289.4c-2.3,3.9-6.5,8.6-14,9.8c-0.2-0.2-0.2-0.4-0.4-0.6c7.7-1.1,11.8-6.1,14-10
				C839,288.8,839.1,289.2,839.2,289.4z"/>
		</g>
		<g id="XMLID_248_">
			<path id="XMLID_7_" class="st5" d="M712.3,416.2c0,0-1.8,1.7-3.6,4.9c-1.8,3.1,0.2,6.1-8.6,13.3c0,0-17.7-10.4-25.7-23.7
				c0,0,0.2-3.8,4-4.7c2.1-0.5,7.8,2.2,13.2,3.3c0.8,0.2,1.6,0.2,2.3,0.3c1,0.1,1.9,0.1,2.8,0c0.8-0.1,1.6-0.2,2.4-0.6l0,0
				c1.8-0.8,3.4-2.3,4.1-4.9c0,0,4.7,2.7,1.6,7.2C705.1,411.3,710.6,408.9,712.3,416.2z"/>
			<path id="XMLID_6_" class="st0" d="M700.2,434.5c0,0-17.7-10.4-25.7-23.7c0,0,3-0.6,5.4,3.8C682.4,419,701.6,429,700.2,434.5z"/>
			<path id="XMLID_5_" class="st0" d="M700.3,413.5c-1.4,2.2-1.4-1.9-3.4-3.9c0.8-0.1,1.6-0.2,2.4-0.6l0,0
				C700.2,410,701.4,411.7,700.3,413.5z"/>
			<path id="XMLID_4_" class="st0" d="M694.7,413.6c-1.5,1.4-2-2.3-2.9-4.3c0.8,0.2,1.6,0.2,2.3,0.3
				C695,410.9,695.9,412.5,694.7,413.6z"/>
		</g>
		<g id="XMLID_244_">
			<path id="XMLID_3_" class="st5" d="M821.2,462.2h-25.1c0,0-1-3.5,0-7.3c0.5-1.7,3-3.2,5.4-5.3c0.6-0.6,1.3-1.2,1.9-1.9
				c0.5-0.6,0.9-1.2,1.3-1.8c0.5-0.8,0.8-1.7,1-2.6c0.4-1.9,0.2-4.1-0.8-6.8c0,0,8.5-1.8,11.6,2.9c0,0,0.3-2.2,3-0.7
				c0,0-0.4,4.3,0.2,7.9C820.2,450,823.6,451,821.2,462.2z"/>
			<path id="XMLID_2_" class="st0" d="M814.7,447.1c-0.2,0.2-0.6,0.4-0.8,0.4s-0.5-0.1-0.7-0.2c-1.3-1-4.1-2.6-8.3-1.5
				c0.5-0.8,0.8-1.7,1-2.6c1.7-0.6,4.8-1,8.7,2.3C815,445.9,815.1,446.6,814.7,447.1z"/>
			<path id="XMLID_1_" class="st0" d="M812.6,451.2l-0.2,0.2c-0.3,0.5-1,0.7-1.5,0.4c-1.7-1-5.5-2.9-9.3-2.4
				c0.6-0.6,1.3-1.2,1.9-1.9c1.8-0.4,5.3-0.6,8.8,2.2C812.8,450.1,812.9,450.8,812.6,451.2z"/>
		</g>
	</g>
</g>
</svg>
