<?xml version="1.0" encoding="utf-8"?>
<!-- Generator: Adobe Illustrator 19.0.0, SVG Export Plug-In . SVG Version: 6.00 Build 0)  -->
<svg version="1.1" id="Layer_1" xmlns="http://www.w3.org/2000/svg" xmlns:xlink="http://www.w3.org/1999/xlink" x="0px" y="0px"
	 viewBox="0 0 960 430" style="enable-background:new 0 0 960 430;" xml:space="preserve">
<style type="text/css">
	.st0{fill:#ADBEC4;}
	.st1{fill:#103A44;}
	.st2{fill:#EE6E4C;}
	.st3{fill:#F68B68;}
	.st4{fill:#184453;}
	.st5{fill:#D0D8DC;}
	.st6{fill:#DC624E;}
	.st7{fill:#1C4951;}
	.st8{fill:#6197B1;}
	.st9{fill:#225360;}
	.st10{fill:#8C393F;}
	.st11{fill:#662D34;}
	.st12{fill:#CE384D;}
	.st13{fill:#EF4353;}
	.st14{fill:#A23045;}
	.st15{fill:#FBB879;}
	.st16{fill:#0C486C;}
	.st17{fill:#125F9A;}
	.st18{fill:#255967;}
	.st19{fill:#8CBEDC;}
	.st20{fill:#3F6676;}
</style>
<g id="XMLID_242_">
	<g id="XMLID_531_">
		<path id="XMLID_240_" class="st0" d="M475,402.8h-64.4c-0.7,0-1.3-0.6-1.3-1.4v-2.6c0-0.8,0.6-1.4,1.3-1.4H475
			c0.7,0,1.3,0.6,1.3,1.4v2.6C476.2,402.2,475.6,402.8,475,402.8z"/>
		<path id="XMLID_239_" class="st0" d="M873.9,402.8h-18.7c-0.7,0-1.3-0.6-1.3-1.4v-2.6c0-0.8,0.6-1.4,1.3-1.4h18.7
			c0.7,0,1.3,0.6,1.3,1.4v2.6C875.3,402.2,874.7,402.8,873.9,402.8z"/>
		<path id="XMLID_238_" class="st0" d="M593.4,402.8H529c-0.7,0-1.3-0.6-1.3-1.4v-2.6c0-0.8,0.6-1.4,1.3-1.4h64.4
			c0.7,0,1.3,0.6,1.3,1.4v2.6C594.7,402.2,594.2,402.8,593.4,402.8z"/>
		<path id="XMLID_237_" class="st0" d="M685.9,402.8h-64.4c-0.7,0-1.3-0.6-1.3-1.4v-2.6c0-0.8,0.6-1.4,1.3-1.4h64.4
			c0.7,0,1.3,0.6,1.3,1.4v2.6C687.2,402.2,686.6,402.8,685.9,402.8z"/>
		<path id="XMLID_236_" class="st0" d="M799.1,402.8h-87.3c-0.7,0-1.3-0.6-1.3-1.4v-2.6c0-0.8,0.6-1.4,1.3-1.4h87.3
			c0.7,0,1.3,0.6,1.3,1.4v2.6C800.4,402.2,799.9,402.8,799.1,402.8z"/>
	</g>
	<g id="XMLID_455_">
		<path id="XMLID_235_" class="st1" d="M495.3,107.1c0,0-6.7-4.7-16.3-1.1c-9.7,3.6-11.9,17.1-9.5,28.2c2.4,11-11,48.5-11,48.5
			s7,10.1,31.3,6.2c0,0,18.2-34.1,16.8-58.6S495.3,107.1,495.3,107.1z"/>
		<path id="XMLID_234_" class="st2" d="M503,149.4c9.2-3,14.7,4.9,20,19.5s7,16.1,7,16.1l20.2,13.4l-1.7,7.8c0,0-19.2-7.8-23.9-12.8
			c-4.6-5-18-30-18-30L503,149.4z"/>
		<path id="XMLID_233_" class="st3" d="M458.4,244.1c0,0-4,20.8-3.3,52c0,0-15.6,23.8-2.8,91.8h6.8c0,0,5.5-57.8,9.7-73.5
			c4.2-15.7,19.8-20.5,20.7-68.1L458.4,244.1z"/>
		<path id="XMLID_232_" class="st3" d="M427.5,305.1c-3.9-13.4-14-35.8-39.9-66.2c0,0-1.5-0.8-3.6,0.5c-2.2,1.4-2.2,3-2.2,3
			s13,29.3,21.3,50.8c2.8,7.2,9.5,11.9,17.1,11.9L427.5,305.1L427.5,305.1z"/>
		<path id="XMLID_231_" class="st4" d="M474.7,331c0,0,0.1,10-6.2,10.1c-8.9,0.2-9.3-9.8-19.5-9.5s-31.1,2.9-37.8-13.4
			c-3.4-8.5,1.2-19.4-9.8-27.6c-11.1-8.2-5.7-17.3,0-22.3c5.7-4.9-2.5-10.3,3.5-12.8c1.5-0.6,2.8-0.5,4.1-0.1
			c0.7,0.3,1.5,0.7,2.2,1.1c3.1,2.2,5.4,5.9,5.4,5.9c16.8-47.6,46.8-53.9,46.8-53.9l29.6,10.6C493.6,293.3,474.7,331,474.7,331z"/>
		<path id="XMLID_230_" class="st5" d="M503,149.4c0,0-6.9,2.4-16.7,0.9c-9.8-1.6-13-7.9-19.9-3.8c-10.4,6.2-5.5,27.3-2.9,38.4
			c0.9,4.1,2.2,14.9-0.1,23.8c0,0,13.8,11.1,29.6,10.6l8.6-19.4C501.5,199.8,520.3,176.6,503,149.4z"/>
		<path id="XMLID_229_" class="st2" d="M485.4,131.6c0,0,1.2,10.1-2.5,19.1c0,0,5.2,7.8,10,2.7c0,0,0.4-9.2,6-19.6
			C502.6,126.9,485.4,131.6,485.4,131.6z"/>
		<g id="XMLID_506_">
			<path id="XMLID_228_" class="st3" d="M477.6,132c0,0-4.4-2.9-3.8,1.5c0.6,5,5.3,6,5.8,4.3C480.1,136,477.6,132,477.6,132z"/>
			<path id="XMLID_227_" class="st3" d="M502.4,126.5c0,0,2.8-4.4,4.1-0.3c1.6,4.8-2.3,7.8-3.5,6.5
				C501.8,131.3,502.4,126.5,502.4,126.5z"/>
			<path id="XMLID_226_" class="st3" d="M493.5,147.1c-7.8,1.8-13.4-2.5-16.9-18.3c-1.7-8.2,1.2-14.1,10-16.2
				c8.8-2,13.6,2.1,15.3,10.4C505.6,139.9,501.5,145.2,493.5,147.1z"/>
			<path id="XMLID_225_" class="st6" d="M498.3,128.5c1-0.4,2-0.1,2.3,0.6c0.3,0.8-0.2,1.7-1.2,2.1c-1,0.4-2,0.1-2.3-0.6
				C496.8,129.8,497.3,128.9,498.3,128.5z"/>
			<path id="XMLID_224_" class="st6" d="M482.4,132.1c1-0.2,2,0.4,2.1,1.2s-0.6,1.6-1.6,1.8c-1,0.2-2-0.4-2.1-1.2
				C480.7,133.1,481.4,132.3,482.4,132.1z"/>
			<g id="XMLID_517_">
				<path id="XMLID_223_" class="st1" d="M495.1,121.7c-0.1,0-0.1,0-0.2-0.1c-1.3-0.9-3.3-0.5-3.3-0.5c-0.2,0.1-0.4-0.1-0.5-0.3
					c-0.1-0.2,0.1-0.5,0.3-0.5c0.1,0,2.3-0.6,3.9,0.5c0.2,0.2,0.2,0.4,0.1,0.6C495.4,121.7,495.2,121.7,495.1,121.7z"/>
			</g>
			<g id="XMLID_515_">
				<path id="XMLID_222_" class="st1" d="M480.3,125.1c-0.1,0-0.1,0-0.2-0.1c-0.2-0.2-0.2-0.4-0.1-0.6c1-1.7,3.2-2.2,3.3-2.2
					c0.2,0,0.4,0.1,0.4,0.3c0.1,0.2-0.1,0.5-0.3,0.5c0,0-2,0.4-2.8,1.8C480.6,125,480.5,125.1,480.3,125.1z"/>
			</g>
			<path id="XMLID_221_" class="st7" d="M494,124.6c0.5-0.1,1.2,0.6,1.4,1.6c0.2,1,0,1.9-0.6,2.1c-0.5,0.1-1.2-0.6-1.4-1.6
				C493.2,125.6,493.5,124.7,494,124.6z"/>
			<path id="XMLID_220_" class="st7" d="M483.1,127c0.5-0.1,1.2,0.6,1.4,1.6c0.2,1,0,1.9-0.6,2.1c-0.5,0.1-1.2-0.6-1.4-1.6
				C482.3,128,482.6,127.1,483.1,127z"/>
			<path id="XMLID_219_" class="st7" d="M488,138.1c0,0,5-0.5,7.3-2.3c0,0-0.6,4.1-3.3,4.4C489.2,140.4,488,138.1,488,138.1z"/>
			<path id="XMLID_218_" class="st7" d="M492.7,126.3c0,0,0.1-2.6,1.2-2.7c1-0.1,2.2,2,2.2,2l1.2-1.1l-1.4,0.5c0,0-1.2-2-2.1-1.8
				C492.4,123.4,492.7,126.3,492.7,126.3z"/>
			<path id="XMLID_217_" class="st7" d="M485.1,128.4c0,0-1.2-2.3-2.2-2c-0.9,0.4-1.2,2.7-1.2,2.7l-1.5-0.5l1.5-0.2
				c0,0,0.2-2.4,1.2-2.6C484.2,125.6,485.1,128.4,485.1,128.4z"/>
			<g id="XMLID_508_">
				<path id="XMLID_216_" class="st6" d="M490.6,133.5l-0.4-0.8c0.7-0.4,0.7-0.8,0.7-1.2c-0.1-0.5-0.5-0.8-0.7-0.9
					c-0.1,0-0.3,0.2-0.4,0.5l-0.8-0.3c0.4-1,1-1.1,1.3-1c0.7,0.1,1.4,0.8,1.5,1.6C491.9,132.2,491.4,133,490.6,133.5z"/>
			</g>
			<path id="XMLID_215_" class="st1" d="M478.2,134.8c0,0-2.4-9.2-1-15.7c0,0,6.8-9.8,20-5c0,0,3.9,6.5,5.8,15.6
				c0,0,0.5-3.3-0.8-10.5c-1.3-7.3-7.6-11.8-16.1-10.4C477.6,110.3,468.4,119.1,478.2,134.8z"/>
		</g>
		<path id="XMLID_214_" class="st1" d="M492,112.1c0,0,0.5,2.4-1.7,8.6c0,0-1.6-1.7-3.6,0c-1.9,1.7-5.7,1.2-7.1,2.1
			c-1.3,1-1.3,3.2-1.3,3.2s-1.2-2.7,0-5.9c0,0-2.5,3.4-2.3,7.5c0,0-3.5-0.6-3.3-6.5c0.1-5.9,8.4-15.5,17.5-14.9
			c9.2,0.6,11.3,15.6,11.3,15.6s-0.9-0.7-2.2-0.4c0,0-0.2-3.2-2.3-7.2c0,0,0.9,2.9,0,6c0,0-2.5-1.4-4.6-1
			C492.7,119.2,493.9,116.7,492,112.1z"/>
		<path id="XMLID_213_" class="st3" d="M464,148.3c4.4-3.6,7.9,1,8.8,7.4c0.9,6.4-7.2,44.1-13.4,42.7c-2.4-0.5-3.4-10.4-3.4-10.4
			s2.4-10.6,4-26.6C460.7,154.1,461.7,150.3,464,148.3z"/>
		<path id="XMLID_212_" class="st3" d="M451.1,193.1c-6-5.9-16.8-25.5-19.5-35.5l4.6-1.9c0,0,13.7,20.3,20,25.4
			c6.2,5.1,8.4,10.8,5.7,15.7C458.9,201.6,452.3,194.4,451.1,193.1z"/>
		<g id="XMLID_499_">
			<path id="XMLID_211_" class="st3" d="M433.4,144.5c-0.3,6.4,4.7,8,2.5,12.8c-0.4,1.1-1.2,1.6-1.9,1.8c-1.4,0.5-2.9,0-4-1.1
				c-2.4-2.5-6.1-5.2-8.1-6.3c-2.3-1.4-0.9-1.7-0.9-1.7c-0.2-0.1-0.4-0.2-0.7-0.3c-1.6-0.7-2.9-1-1.7-1.7c1.3-0.8,6,0.9,6,0.9
				c-6-4.1-7.7-3.2-6.6-4.1c1.5-1.2,7.3,1.6,7.4,1.7c-3.2-3.2-5.5-3.8-4.2-4.3s7.6,4.3,9.9,6c0.5,0.4,0.9,0.7,0.9,0.7
				C431.8,143.7,433.4,144.5,433.4,144.5z"/>
			<path id="XMLID_210_" class="st2" d="M431.1,148.4c0.5,0.4,0.9,0.7,0.9,0.7s-1.1,1.9,0.3,4.3
				C432.2,153.4,429.6,151.6,431.1,148.4z"/>
			<path id="XMLID_209_" class="st2" d="M425.8,152.1c-0.5-0.3-3.6-2.1-4.8-2c-0.2-0.1-0.4-0.2-0.7-0.3
				C421.1,148.7,425.1,151.6,425.8,152.1z"/>
		</g>
		<g id="XMLID_462_">
			<ellipse id="XMLID_208_" class="st8" cx="448.5" cy="247.2" rx="1.2" ry="1.3"/>
			<ellipse id="XMLID_207_" class="st8" cx="470.2" cy="255.9" rx="1.2" ry="1.3"/>
			<ellipse id="XMLID_206_" class="st8" cx="488.8" cy="260.6" rx="1.2" ry="1.3"/>
			<ellipse id="XMLID_205_" class="st8" cx="460.3" cy="230.8" rx="1.2" ry="1.3"/>
			<ellipse id="XMLID_204_" class="st8" cx="464.4" cy="242.8" rx="1.2" ry="1.3"/>
			<ellipse id="XMLID_203_" class="st8" cx="483.7" cy="249.6" rx="1.2" ry="1.3"/>
			<ellipse id="XMLID_202_" class="st8" cx="486.4" cy="228.9" rx="1.2" ry="1.3"/>
			<ellipse id="XMLID_201_" class="st8" cx="473.7" cy="224.6" rx="1.2" ry="1.3"/>
			<ellipse id="XMLID_200_" class="st8" cx="437.7" cy="271.9" rx="1.2" ry="1.3"/>
			<ellipse id="XMLID_199_" class="st8" cx="420.3" cy="266.5" rx="1.2" ry="1.3"/>
			<path id="XMLID_198_" class="st8" d="M411.2,256.6c-0.2,0.4-0.6,0.6-1,0.6c-0.7,0-1.2-0.6-1.2-1.3c0-0.2,0-0.3,0.1-0.5
				C409.8,255.8,410.5,256.2,411.2,256.6z"/>
			<ellipse id="XMLID_197_" class="st8" cx="443.9" cy="288.3" rx="1.2" ry="1.3"/>
			<ellipse id="XMLID_196_" class="st8" cx="412.7" cy="306.2" rx="1.2" ry="1.3"/>
			<ellipse id="XMLID_195_" class="st8" cx="425.5" cy="295.4" rx="1.2" ry="1.3"/>
			<ellipse id="XMLID_194_" class="st8" cx="406.5" cy="285.8" rx="1.2" ry="1.3"/>
			<ellipse id="XMLID_193_" class="st8" cx="421.9" cy="323.5" rx="1.2" ry="1.3"/>
			<ellipse id="XMLID_192_" class="st8" cx="433.4" cy="257.2" rx="1.2" ry="1.3"/>
			<ellipse id="XMLID_191_" class="st8" cx="445.2" cy="236" rx="1.2" ry="1.3"/>
			<ellipse id="XMLID_190_" class="st8" cx="458.4" cy="218.3" rx="1.2" ry="1.3"/>
			<ellipse id="XMLID_189_" class="st8" cx="431.5" cy="244.1" rx="1.2" ry="1.3"/>
			<ellipse id="XMLID_188_" class="st8" cx="446.4" cy="223.3" rx="1.2" ry="1.3"/>
			<ellipse id="XMLID_187_" class="st8" cx="423" cy="280.1" rx="1.2" ry="1.3"/>
			<ellipse id="XMLID_186_" class="st8" cx="407.7" cy="269" rx="1.2" ry="1.3"/>
			<ellipse id="XMLID_185_" class="st8" cx="452.1" cy="265.3" rx="1.2" ry="1.3"/>
			<ellipse id="XMLID_184_" class="st8" cx="477.4" cy="271.9" rx="1.2" ry="1.3"/>
			<ellipse id="XMLID_183_" class="st8" cx="476.2" cy="236" rx="1.2" ry="1.3"/>
			<ellipse id="XMLID_182_" class="st8" cx="490.8" cy="238.6" rx="1.2" ry="1.3"/>
			<ellipse id="XMLID_181_" class="st8" cx="461.5" cy="281.4" rx="1.2" ry="1.3"/>
			<ellipse id="XMLID_180_" class="st8" cx="450.9" cy="303.9" rx="1.2" ry="1.3"/>
			<ellipse id="XMLID_179_" class="st8" cx="432.2" cy="307.5" rx="1.2" ry="1.3"/>
			<ellipse id="XMLID_178_" class="st8" cx="483.7" cy="288.3" rx="1.2" ry="1.3"/>
			<ellipse id="XMLID_177_" class="st8" cx="466.9" cy="297.8" rx="1.2" ry="1.3"/>
			<ellipse id="XMLID_176_" class="st8" cx="441.5" cy="326" rx="1.2" ry="1.3"/>
			<ellipse id="XMLID_175_" class="st8" cx="460.3" cy="319.5" rx="1.2" ry="1.3"/>
			<ellipse id="XMLID_174_" class="st8" cx="478.4" cy="312" rx="1.2" ry="1.3"/>
			<ellipse id="XMLID_173_" class="st8" cx="470.2" cy="333.7" rx="1.2" ry="1.3"/>
		</g>
		<g id="XMLID_459_">
			<path id="XMLID_172_" class="st4" d="M470.2,400.1h-20c-1.3-3.8,1.1-7.7,0.7-11.1c-0.7-5.8,2.5-2.6,2.5-2.6
				c0.6-6.2,9-7.4,8.9-4.6c-0.1,4.1,0.7,6.5,1.7,8.3c2.3,3.4,6,3.4,6.6,5.8c0.1,0.2,0.1,0.5,0.1,0.7
				C471.3,399.5,470.2,400.1,470.2,400.1z"/>
			<path id="XMLID_171_" class="st9" d="M470.7,396.5c-4.1,1-13.7-0.3-14.1-2.8c-0.4-2.4,4.8-3.5,7.3-3.7c2.3,3.4,6,3.4,6.6,5.8
				C470.6,396.1,470.7,396.3,470.7,396.5z"/>
		</g>
		<g id="XMLID_456_">
			<path id="XMLID_170_" class="st4" d="M387.8,239.7c-2.1-2-5.6,1.3-5.6,1.3s1.9,2.9,0.7,4c-1.2,1.1-2.6-1.5-4.9-0.3
				c-0.2,0.1-0.4,0.2-0.6,0.4c-1.9,1.1-3.8,3.5-5.4,5.3c-0.3,0.4-0.7,0.7-0.9,1c-1.8,2-6.5,3.2-7.3-2.1c-0.9-5.3,4.9-11.4,11.1-17
				c6.2-5.6,10.3-2.3,10.3-2.3s1.5,2.4,1.5,3.8c0,1.5,1.2,2.2,2,3.6C389.2,238.8,387.8,239.7,387.8,239.7z"/>
			<path id="XMLID_169_" class="st9" d="M377.3,245.1c-1.9,1.1-3.8,3.5-5.4,5.3c-2.3,0.6-4.4,0.4-4.8-1.9c-0.8-5.5,9.8-12.5,9-8.6
				C375.7,241.8,376.5,243.7,377.3,245.1z"/>
		</g>
	</g>
	<g id="XMLID_390_">
		<path id="XMLID_168_" class="st5" d="M748.3,391.2c-1-0.5-1.9-1.7-2.7-3.2c0,0-0.7-4.4,0-9c0.7-4.7-1.2-8.4-7.6-9.8
			c-6.2-1.4-9.8,1.7-8.4,14.5l0,0c-0.9,5.3-1.2,11.4,1,16.5h19C749.6,400.1,752.6,393.5,748.3,391.2z"/>
		<path id="XMLID_167_" class="st3" d="M764.9,322.1c0,0,0,12.8-7,25.9c-7.1,13.4-15.9,31.7-15.9,31.7s-5.9,5.9-9.6-3.9
			c0,0,2.6-34,8.6-46.5C747.2,316.8,764.9,322.1,764.9,322.1z"/>
		<path id="XMLID_166_" class="st3" d="M856,280.4c0,0,11.3,49.2,18.5,62.1c0,0-1.7,5.4-9.4,7.1c0,0-24.6-37.4-26.2-53.1
			S856,280.4,856,280.4z"/>
		<g id="XMLID_442_">
			<path id="XMLID_165_" class="st10" d="M861.5,292c-3,7.5-26.2,7.9-26.2,7.9l-1.7-2.7l-0.4-0.7l-3.6-5.6c0,0-38.5-39-46-35.7l0,0
				c-0.2,0.1-0.4,0.2-0.7,0.4c-5.2,3.8-5.7,24.6-11.7,59.6c-0.6,3.3-1.9,7.2-2.8,9.8c-0.1,0.3-0.2,0.6-0.3,0.8
				c-0.6,1.5-0.9,2.4-0.9,2.4c-23.5,9.8-31.2-9.6-31.2-9.6s0.3-0.6,0.7-1.5c0.1-0.2,0.2-0.5,0.3-0.7c1.2-2.8,3.2-7.7,3.2-10.2
				c0-2.9-0.1-5.6-0.1-8.1c0-0.2,0-0.5,0-0.7c-0.1-8.4,0-15.7,0-22.1v-0.7c0-2.8,0.1-5.3,0.1-7.7v-0.7c0.2-11,0.6-18.5,0.9-23.4
				c0-0.2,0.1-0.5,0.1-0.7c0.7-8.3,1.3-9.1,1.3-9.1l-4.7-33.9H789c0,0,7.7,8,17.7,18.5c0.2,0.2,0.4,0.5,0.7,0.7
				c3.6,3.8,7.6,8,11.5,12.2c0.1,0.2,0.3,0.3,0.4,0.5c1.5,1.7,3.1,3.3,4.6,5c0.2,0.2,0.4,0.4,0.6,0.6c5.2,5.6,10.2,11,14.5,15.7
				c0.1,0.2,0.3,0.3,0.4,0.5c5.9,6.5,10.3,11.8,11.8,14.2c4.1,6.5,7.3,14.8,9,20l0,0c0.1,0.2,0.1,0.5,0.2,0.7
				C861,290.4,861.5,292,861.5,292z"/>
			<g id="XMLID_443_">
				<path id="XMLID_164_" class="st11" d="M749.8,238.3c-2.1,2.6-5.2,4.1-9.1,4.7c0-0.2,0.1-0.5,0.1-0.7c3.7-0.5,6.5-2,8.6-4.4
					c3.6-4.3,3-10.1,3-10.1l0.7-0.1C752.9,227.9,753.5,233.7,749.8,238.3z"/>
				<path id="XMLID_163_" class="st11" d="M807.1,218.5c-0.2,0-0.4,0-0.6,0c-5.7,0-11.7-6.5-12-6.8l0.4-0.5c0.1,0.1,6,6.5,11.5,6.6
					C806.7,218.1,806.9,218.3,807.1,218.5z"/>
				<path id="XMLID_162_" class="st11" d="M768.1,325c-0.1,0.3-0.2,0.6-0.3,0.8c-3.8,1.4-7.3,2-10.5,2c-10.2,0-17.2-6.1-21.1-10.7
					c0.1-0.2,0.2-0.5,0.3-0.7C741.5,322.6,752.1,331.4,768.1,325z"/>
				<path id="XMLID_161_" class="st11" d="M781.9,243c0.9,3.8,1.4,7.9,1.5,12.2c-0.2,0.1-0.4,0.2-0.7,0.4
					c0-19.8-11.1-35.3-11.3-35.4l0.5-0.4c0.1,0.2,6.7,9.3,9.8,22.6c1.3-0.9,2.2-2.1,2.5-3.8c1.6-7-5.7-18.3-5.7-18.4l0.5-0.4
					c0.3,0.5,7.5,11.7,5.8,18.9C784.5,240.5,783.4,242,781.9,243z"/>
				<path id="XMLID_160_" class="st11" d="M839.1,252.9c-1.9,2.1-3.6,3.9-3.8,4.1l-0.4,0.4l-0.1-0.5c-2.5-6.8-18.4-21.3-18.7-21.5
					l-0.2-0.2l2.7-4.6c0.1,0.2,0.3,0.3,0.4,0.5l-2.3,3.8c3.1,1.1,5.3,1.3,6.9,1.1c0.2,0.2,0.4,0.4,0.6,0.6c-0.5,0.1-1.1,0.2-1.7,0.2
					c-1.5,0-3.1-0.3-4.9-0.9c3.6,3.4,14.9,14.2,17.5,20.2c1-1.1,2.3-2.4,3.5-3.8C838.8,252.6,838.9,252.8,839.1,252.9z"/>
				<path id="XMLID_159_" class="st11" d="M751.4,298.1l-0.2,0.1c-0.2,0.1-3.1,0.7-6.5,0.7c-1.7,0-3.4-0.2-5-0.6c0-0.2,0-0.5,0-0.7
					c4.2,1.3,9.8,0.3,11,0.1l-1.1-27.3c-0.6,1.5-1.7,3.5-4,4.7c-1,0.5-2.3,0.8-3.6,0.8c-0.8,0-1.6-0.1-2.5-0.3v-0.7
					c2.2,0.5,4.1,0.4,5.7-0.5c2.7-1.4,3.8-4.4,4.1-5.5c-2.1,0.3-6.4-0.8-9.7-1.8v-0.7c3.5,1.1,8.3,2.4,10,1.7l0.4-0.2L751.4,298.1z"
					/>
				<path id="XMLID_158_" class="st11" d="M860.1,287.9c-3.7,3.8-11.3,9.5-22.9,9.5c-1.2,0-2.5-0.1-3.8-0.2l-0.4-0.7
					c14.2,1.7,23-5.2,26.9-9.3C860,287.4,860.1,287.6,860.1,287.9z"/>
			</g>
		</g>
		<path id="XMLID_157_" class="st12" d="M798.3,55.5c0,0-1.4-3.4-7.4-3.4c-4.6,0-6.3,2.6-6.3,2.6c-2.8,8.3-5.7,40.1-6.8,41.2
			c-0.5,0.6-34.6,24.3-34.6,24.3c18.5,0.4,30.1,24,30.1,24c0.6-7.7,21.5-38.4,21.7-41.2C795.4,97.9,804.1,74.9,798.3,55.5z"/>
		<path id="XMLID_156_" class="st12" d="M739.1,221.8c0,0-0.1,6.6,1.9,7.1c2.1,0.5,19,5.6,38.4-3.5c19.5-9.2,22.8-15.9,17.1-21
			C790.8,199.4,739.1,221.8,739.1,221.8z"/>
		<path id="XMLID_155_" class="st13" d="M731.3,125c0,0-17.7-2.2-27.8,2.4c0,0-2.8,13,11.1,42.1s10.7,47.4,26.4,54.3
			c13.9,6.1,55.1-12.1,56.4-18.1c3.3-15.2-21.9-41.8-23.5-57.2C772.3,132.9,757.7,109.7,731.3,125z"/>
		<path id="XMLID_154_" class="st12" d="M703.5,127.3c-12.3,4.5-26.3,18.9-26.3,25.8c0,6.9,11.6,9.6,11.6,9.6l19-9.6
			c0,0,5.4-3.9,2-15.4C706.3,126.3,703.5,127.3,703.5,127.3z"/>
		<g id="XMLID_436_">
			<path id="XMLID_153_" class="st5" d="M754.2,140.1c-3.7,0-8.3-1.4-11.1-3.5c-1.6-1.1-2.5-2.5-2.7-3.8c-0.7-4.6,3.6-6.8,3.8-7
				l0.6,1.2c-0.1,0.1-3.6,2-3.1,5.6c0.1,1,0.9,2,2.2,2.9c3.2,2.3,8.7,3.8,12.3,3.1c1.6-0.3,2.7-0.9,3.1-1.8c0.6-1.1,0.1-2.3,0.1-2.3
				l1.2-0.5c0,0.1,0.7,1.8-0.1,3.5c-0.7,1.3-2,2.1-4.1,2.5C755.8,140.1,755,140.1,754.2,140.1z"/>
		</g>
		<g id="XMLID_434_">
			<path id="XMLID_152_" class="st5" d="M738.6,154c-2.8,0-7.3-1.2-7.9-5.9c-0.3-2.3-0.1-4.4,0.1-6.1c0.3-2.6,0.5-4.6-0.9-7
				c-2.4-4-5.6-4.3-5.7-4.3l0.1-1.3c0.1,0,4,0.3,6.8,4.9c1.7,2.8,1.4,5.3,1.2,7.8c-0.2,1.7-0.4,3.5-0.1,5.8c0.7,5,6.9,4.7,7.1,4.7
				l0.1,1.3C738.9,154,738.8,154,738.6,154z"/>
		</g>
		<path id="XMLID_151_" class="st12" d="M742.4,130.5c0,0,9.4-6.6,7.1-13.7c-2.3-7.1-32.3-6.6-40.1,1.9
			c-7.8,8.6,16.8,14.2,16.8,14.2C728.2,128.8,740.3,128.4,742.4,130.5z"/>
		<path id="XMLID_150_" class="st14" d="M725.6,129.3c-4.4-1.6-7-4.9-6.1-8.7c0.9-3.8,20-3.9,23.7-0.9
			C746.8,122.7,741.7,135,725.6,129.3z"/>
		<path id="XMLID_149_" class="st2" d="M723.5,118.6c0,0,3.9,6.9,2.1,10.7c0,0,13.5,4.8,13.5-3c0,0-2.5-5.9-1.6-9.6L723.5,118.6z"/>
		<g id="XMLID_414_">
			<path id="XMLID_148_" class="st15" d="M719,112.5c0,0-6.6-11-6-21.4c0.3-5.3,2.9-7.3,2.9-7.3s-2.1-3,0.1-7.7
				c0,0,3.1,3.8,14.1,2.6c10.5-1.1,11.6,6.6,11.6,6.6c7.6,1.1,2.5,24.8-2.8,27.2L719,112.5L719,112.5z"/>
			<path id="XMLID_147_" class="st3" d="M716.2,102.4c0,0-3.8-3.9-4.3,0.7c-0.5,5.3,4.1,7.4,5,5.8
				C717.9,107.1,716.2,102.4,716.2,102.4z"/>
			<path id="XMLID_146_" class="st3" d="M742.8,102.7c0,0,3.8-3.9,4.3,0.7c0.5,5.3-4.1,7.4-5,5.8
				C741.2,107.4,742.8,102.7,742.8,102.7z"/>
			<path id="XMLID_145_" class="st3" d="M729.1,121.7c-8.4,0-13.2-5.7-13.2-22.8c0-8.8,4.4-14.3,13.8-14.3c9.4,0,13.4,5.4,13.4,14.3
				C743.1,117.2,737.8,121.7,729.1,121.7z"/>
			<path id="XMLID_144_" class="st6" d="M738.1,103.7c1.1-0.2,2,0.3,2.2,1.2s-0.6,1.7-1.7,1.9s-2-0.3-2.2-1.2
				C736.3,104.8,737.1,103.9,738.1,103.7z"/>
			<path id="XMLID_143_" class="st6" d="M721.2,103.7c1.1,0.1,1.9,0.8,1.9,1.7s-1,1.5-2.1,1.4c-1.1-0.1-1.9-0.8-1.9-1.7
				S720.1,103.7,721.2,103.7z"/>
			<g id="XMLID_423_">
				<path id="XMLID_142_" class="st15" d="M736.7,95.8c-0.1,0-0.2,0-0.3-0.1C735,94.6,733,95,733,95c-0.2,0.1-0.4-0.1-0.5-0.4
					c-0.1-0.2,0.1-0.5,0.4-0.5c0.1,0,2.4-0.5,4.1,0.8c0.2,0.2,0.2,0.5,0.1,0.6C736.8,95.7,736.7,95.8,736.7,95.8z"/>
			</g>
			<g id="XMLID_421_">
				<path id="XMLID_141_" class="st15" d="M720.5,95.8c-0.1,0-0.2-0.1-0.3-0.2c-0.1-0.2-0.1-0.5,0.1-0.6c1.6-1.4,3.9-1,4.1-1
					c0.2,0.1,0.4,0.2,0.4,0.5c0,0.2-0.3,0.4-0.5,0.4c0,0-2-0.3-3.3,0.8C720.7,95.8,720.6,95.8,720.5,95.8z"/>
			</g>
			<ellipse id="XMLID_140_" class="st7" cx="734.7" cy="100.7" rx="1.1" ry="2"/>
			<ellipse id="XMLID_139_" class="st7" cx="723.4" cy="100.7" rx="1.1" ry="2"/>
			<path id="XMLID_138_" class="st15" d="M718.5,86.5c0,0,9,3.4,21.9,2.5c0,0,2.8,3.5,2.4,16.1c0,0,7.6-22.5-14.5-22.5
				s-12.1,22-12.1,22S714.4,90.7,718.5,86.5z"/>
			<g id="XMLID_416_">
				<path id="XMLID_137_" class="st6" d="M729.6,106.5l-0.7-0.7l1.7-1.7c-1.6-2.4-1.6-7.8-1.6-8.1h0.9c0,0.1,0,5.9,1.7,7.8l0.3,0.3
					L729.6,106.5z"/>
			</g>
			<path id="XMLID_136_" class="st7" d="M724,109.4c0,0,8.3,0.4,12.5-0.8c0,0,0.7,6.2-5.7,6.5C724,115.5,724,109.4,724,109.4z"/>
		</g>
		<path id="XMLID_135_" class="st5" d="M759.5,133c1.6-0.3,1.5,4,0,2.8C758.2,134.5,757.9,133.3,759.5,133z"/>
		<path id="XMLID_134_" class="st5" d="M740.4,153.8c-0.2,1.7-4.1,0.1-2.5-0.9C739.5,151.9,740.7,152.2,740.4,153.8z"/>
		<path id="XMLID_133_" class="st2" d="M723.4,162.7c0,0-2.5,6.7-2.4,10.4s1.3,3.3,1.3,3.3s-1.9,0.8-2.3,2.9
			c-0.4,2.2,4.9,3.8,5.3,3.8s4.1-1.5,4.1-1.5l0.8-12.3l-3.3-2.2L723.4,162.7z"/>
		<path id="XMLID_132_" class="st3" d="M725.4,161.8c0,0,4.6,2.9,6.4,4.7c1.7,1.8,0.7,15.8,0,16.4c-0.7,0.7-6.6,2-7.7,1.3
			s0.4-4.9,0.4-4.9s2.9-0.7,2.5,0.5c-0.4,1.1,0,2.1,0,2.1l1.2-0.5c0,0-0.6-3.1,0-5.4c0.6-2.3-4.1-4.7-4.7-8.9
			C722.9,163,725.4,161.8,725.4,161.8z"/>
		<path id="XMLID_131_" class="st12" d="M677.9,155.1c-1.5-6.5,4.8-8.9,13.6-7.7c10.2,1.3,31,4.1,35.5,15.4c0,0,1.5,4.5-2.3,6.6
			C713.9,175.4,680.7,167.4,677.9,155.1z"/>
		<path id="XMLID_130_" class="st14" d="M709.6,150.7c0,0-12.1-5.2-18.2-5.7C685.5,144.5,699.8,150,709.6,150.7z"/>
		<g id="XMLID_405_">
			<path id="XMLID_129_" class="st3" d="M800.3,38.2c-0.9,1.1-2.4,5.3-2.4,5.3c-0.7,3.5-1,5.5-2.2,7.1s-0.6,4.4-0.6,4.4
				s-4.6,2.5-8.5-0.6c0,0,0.4-2.9,0-3.6c-0.8-1.6-3.3-2.5-4.2-5.7c-0.9-3.2-3.5-6.8-3.5-6.8s0.7-1.7,2.1-0.7c1.4,1.1,2.3,3.6,3,3.9
				c0.1,0.1,0.3,0.1,0.4,0.1c0,0,0,0,0.1,0c0.6,0.1,1.2-0.1,1.5-0.4l0.1-0.1c1.2-1.5,1.5-5.9,1.5-8c-0.1-2.8,0-6.5,1.7-5.9
				c1.6,0.7,0.1,2.2,1.4,8.3l0.6,0.1c0.1,0.5,1.2-3.7,1.5-7.6c0.2-2.6,1.9-1.7,2.3-0.8c0.4,0.8-0.2,3.5-0.3,5.4
				c-0.1,1.3-0.2,2.6-0.2,3.4l0.7,0.4c2.5-4.6,1.7-6.5,3.2-6.6c1.5-0.1,0.9,3.8,0.1,5.3c-0.4,0.7-0.7,2-0.9,3.3
				c2.6-3.2,2.3-4.8,3.6-4.6C802.3,34,801.2,37,800.3,38.2z"/>
			<path id="XMLID_128_" class="st2" d="M789,45.4c-0.9-2.6-4.1-3.7-4.4-3.8c0.6,0.1,1.2-0.1,1.5-0.4C789.2,42.6,789,45.4,789,45.4z
				"/>
		</g>
		<g id="XMLID_400_">
			<path id="XMLID_127_" class="st5" d="M733.8,380.9c0,0-1.7-3.7-0.2-5.3c1.6-1.6,3.4,1.4,6.1,0.7c2.7-0.7,3.3-2.6,4,0.1
				C744.4,379,743.6,387.4,733.8,380.9z"/>
			<path id="XMLID_126_" class="st0" d="M743.9,380.8c0,0-7.2,2.6-10.9,0l0.9,3.2c0,0,7.8,0.8,8.9-1.2L743.9,380.8z"/>
			<path id="XMLID_125_" class="st0" d="M743.9,384.7c0,0-6.6-1-9.7,0.8v1.6c0,0,8.6-2.1,11.3,0L743.9,384.7z"/>
			<path id="XMLID_124_" class="st0" d="M733.8,390.4c0,0,1.3-3.2,5.3-3.5c4-0.2,6.7,2,6.7,2S739.4,386.3,733.8,390.4z"/>
		</g>
		<g id="XMLID_393_">
			<path id="XMLID_123_" class="st5" d="M903,345.8c-12.6,17.4-29.8,20.8-29.8,20.8c-5-4.1-5.1-9-5.1-9s-4.8-4.4-5.4-6.5
				c-0.7-2.1,4.1-8.6,7-7.9c2,0.5,3.1,2.1,3.6,3c-2.3-5.5-0.4-7.4,2.9-6.9c3.5,0.5,0.2,1.4,2.7,4.2c0.1,0.2,0.4,0.4,0.6,0.5
				c0.4,0.3,1,0.5,1.6,0.7c0.6,0.1,1.2,0.2,1.8,0.1c0.4,0,0.7-0.1,1-0.1c0.7-0.1,1.3-0.3,2-0.5c1-0.4,2.2-0.8,3.2-1.4
				c4.4-2.5,6.2-3.3,9.5-2.4c3.3,0.9,3.3,3.5,3.3,3.5L903,345.8z"/>
			<path id="XMLID_122_" class="st0" d="M903,345.8c-12.6,17.4-29.8,20.8-29.8,20.8c8.8-3.9,16.9-9,22.3-15.3
				C901,344.9,903,345.8,903,345.8z"/>
			<g id="XMLID_394_">
				<path id="XMLID_121_" class="st0" d="M879.4,344c0.4,0.3,1,0.5,1.6,0.7c-3.3,0.7-3.6,3.8-3.6,3.8l-1.5-0.5
					C876.3,344.2,879.2,344,879.4,344z"/>
				<path id="XMLID_120_" class="st0" d="M881.6,348.8l-1.5,0.1c-0.6-2.2,0.1-3.5,0.9-4.2c0.6,0.1,1.2,0.2,1.8,0.1
					C881.1,346.5,881.6,348.8,881.6,348.8z"/>
				<path id="XMLID_119_" class="st0" d="M885.3,347.9l-1.5,0.2c-0.6-1.6-0.4-2.7,0-3.5c0.7-0.1,1.3-0.3,2-0.5
					C884.6,346,885.3,347.9,885.3,347.9z"/>
			</g>
		</g>
		<path id="XMLID_118_" class="st12" d="M744.1,186.2c0,0,3.3,18.2-3.3,25.5c-6.6,7.2-2.3,1.3-0.3-8
			C742.4,194.3,740.9,184.4,744.1,186.2z"/>
		<path id="XMLID_117_" class="st12" d="M774.4,178.1c0,0,10.4,3.5,15.8,13.4C790.3,191.5,783,175.4,774.4,178.1z"/>
	</g>
	<g id="XMLID_350_">
		<g id="XMLID_387_">
			<path id="XMLID_116_" class="st3" d="M504.7,43c1.4,0,5.4,1.7,5.4,1.7c3,1.9,4.6,2.9,6.5,3.1c2,0.2,2.8,3.6,2.8,3.6
				s7.7,1.7,8.1-3.3c0,0-4.3-6.3-4.6-7.1c-0.6-1.7,0.5-4.2-1.2-7.1c-1.7-2.9-2.5-7.3-2.5-7.3s-1.7-0.5-1.9,1.2s1.1,4.1,0.8,4.9
				c-0.1,0.2-0.1,0.3-0.2,0.5c0,0,0,0,0,0.1c-0.3,0.5-0.8,0.8-1.3,0.9c0,0-0.1,0-0.1,0c-1.9-0.1-5.3-2.8-6.7-4.2
				c-1.9-1.9-4.7-4.4-5.4-2.7c-0.7,1.7,1.5,1.6,5,6.6l-0.4,0.5c0.2,0.4-3.5-1.5-6.4-3.9c-2-1.7-2.5,0.3-2.1,1.1s2.6,2.2,4.1,3.4
				c0.9,0.8,2,1.6,2.6,2.1l-0.2,0.8c-5-1.1-5.8-3.1-6.9-2c-1.1,1.1,2.1,3.3,3.7,3.7c0.7,0.2,1.9,0.8,3,1.5c-4-0.1-5-1.4-5.7-0.4
				C500.3,41.7,503.3,43,504.7,43z"/>
			<path id="XMLID_115_" class="st2" d="M517.5,39.1c-1.2-2.4,0.1-5.6,0.2-6c-0.3,0.5-0.8,0.8-1.3,0.9
				C515.4,37.4,517.5,39.1,517.5,39.1z"/>
		</g>
		<g id="XMLID_384_">
			<path id="XMLID_114_" class="st3" d="M730.9,43c-1.4,0-5.4,1.7-5.4,1.7c-3,1.9-4.6,2.9-6.5,3.1c-2,0.2-2.8,3.6-2.8,3.6
				S708.5,53,708,48c0,0,4.3-6.3,4.6-7.1c0.6-1.7-0.5-4.2,1.2-7.1c1.7-2.9,2.5-7.3,2.5-7.3s1.7-0.5,1.9,1.2c0.2,1.7-1.1,4.1-0.8,4.9
				c0.1,0.2,0.1,0.3,0.2,0.5c0,0,0,0,0,0.1c0.3,0.5,0.8,0.8,1.3,0.9c0,0,0.1,0,0.1,0c1.9-0.1,5.3-2.8,6.7-4.2
				c1.9-1.9,4.7-4.4,5.4-2.7c0.7,1.7-1.5,1.6-5,6.6l0.4,0.5c-0.2,0.4,3.5-1.5,6.4-3.9c2-1.7,2.5,0.3,2.1,1.1
				c-0.4,0.8-2.6,2.2-4.1,3.4c-0.9,0.8-2,1.6-2.6,2.1l0.2,0.8c5-1.1,5.8-3.1,6.9-2c1.1,1.1-2.1,3.3-3.7,3.7c-0.7,0.2-1.9,0.8-3,1.5
				c4-0.1,5-1.4,5.7-0.4C735.2,41.7,732.2,43,730.9,43z"/>
			<path id="XMLID_113_" class="st2" d="M718,39.1c1.2-2.4-0.1-5.6-0.2-6c0.3,0.5,0.8,0.8,1.3,0.9C720.1,37.4,718,39.1,718,39.1z"/>
		</g>
		<path id="XMLID_112_" class="st1" d="M663.3,283.8l-14.7-94.5l-29.6,3.4l-29.6-3.4l-14.7,94.5l-7.1,91.7c0,0,2.3,7.6,17,2.3
			c0,0,11-85,12.6-86.9c1.7-1.9,19-57.4,19-57.4h5.4c0,0,17.4,55.5,19,57.4c1.7,1.9,12.6,86.9,12.6,86.9c14.7,5.3,17-2.3,17-2.3
			L663.3,283.8z"/>
		<path id="XMLID_111_" class="st16" d="M609.6,97.8c1.9,1.9,11,5.3,15.9,0l3.3,3.3c0,0-3.8,9.1-10.3,9.5
			c-6.6,0.3-11.3-8.1-11.3-8.1L609.6,97.8z"/>
		<path id="XMLID_110_" class="st16" d="M635.6,96.7c11-4.9,46.5-17.9,46.5-17.9s23.9-30.9,28.8-35.5c0,0,5.3,1,6.8,7.8
			c0,0-15.4,34-23.8,43.8s-50.7,30.8-50.7,30.8L635.6,96.7z"/>
		<path id="XMLID_109_" class="st15" d="M597.2,96.1c3.3-2.1,19.7,9.2,19.7,9.2s21.4-11.7,26.4-9.5c0,0,4.5,6.2,6.3,22.3
			s1.9,82.2,1.9,82.2s-14.4,5.3-33.8,5.3c-22.2,0-34.1-6.5-34.1-6.5S579.7,107.5,597.2,96.1z"/>
		<path id="XMLID_108_" class="st2" d="M610.5,94.3c0,0,2.4,7.7,0,10.7c0,0,2.5,5.3,6.9,5.6c5.1,0.3,6.9-5.6,6.9-5.6
			s-2.7-7.4,0-10.1L610.5,94.3z"/>
		<g id="XMLID_362_">
			<path id="XMLID_107_" class="st10" d="M604.6,86.8c0,0-5-9.9-4-20.5c1-10.6,16.4-13,26.8-7.8c0,0-3.1-3.2-1.9-4
				c1.2-0.9,3.3,4.7,3.3,4.7s3.3-1.1,3.8,0c0.5,1.1-3.3,1.6-3.3,1.6s6.7,3.8,0.4,24.3L604.6,86.8z"/>
			<path id="XMLID_106_" class="st3" d="M603.9,80.5c0,0-3.7-3.8-4.1,0.7c-0.5,5.2,4,7.3,4.9,5.6C605.5,85.1,603.9,80.5,603.9,80.5z
				"/>
			<path id="XMLID_105_" class="st3" d="M629.8,80.7c0,0,3.7-3.8,4.1,0.7c0.5,5.2-4,7.3-4.9,5.6C628.2,85.4,629.8,80.7,629.8,80.7z"
				/>
			<path id="XMLID_104_" class="st3" d="M616.5,99.3c-8.2,0-12.9-5.6-12.9-22.2c0-8.6,4.2-13.9,13.4-13.9c9.2,0,13.1,5.3,13.1,13.9
				C630.2,94.9,624.9,99.3,616.5,99.3z"/>
			<path id="XMLID_103_" class="st6" d="M625.2,81.8c1-0.2,2,0.4,2.1,1.2c0.1,0.9-0.6,1.7-1.6,1.9c-1,0.2-2-0.4-2.1-1.2
				C623.5,82.8,624.2,81.9,625.2,81.8z"/>
			<path id="XMLID_102_" class="st6" d="M608.7,81.7c1,0.1,1.8,0.8,1.8,1.7c-0.1,0.9-0.9,1.5-2,1.4c-1-0.1-1.8-0.8-1.8-1.7
				C606.8,82.3,607.7,81.7,608.7,81.7z"/>
			<g id="XMLID_371_">
				<path id="XMLID_101_" class="st10" d="M623.6,74.4c-0.1,0-0.2-0.1-0.3-0.2c-1.2-1.2-3.1-1.2-3.2-1.2c-0.2,0-0.4-0.2-0.4-0.4
					s0.1-0.5,0.4-0.5c0.1,0,2.4-0.1,3.8,1.4c0.1,0.2,0.1,0.5,0,0.6C623.9,74.3,623.8,74.4,623.6,74.4z"/>
			</g>
			<g id="XMLID_369_">
				<path id="XMLID_100_" class="st10" d="M608.2,74.4c-0.1,0-0.2-0.1-0.3-0.2c-0.1-0.2-0.1-0.5,0-0.6c1.4-1.5,3.7-1.4,3.8-1.4
					c0.2,0,0.4,0.2,0.4,0.5c0,0.2-0.2,0.5-0.4,0.4c0,0-2-0.1-3.2,1.2C608.4,74.3,608.2,74.4,608.2,74.4z"/>
			</g>
			<ellipse id="XMLID_99_" class="st7" cx="621.9" cy="78.9" rx="1" ry="1.9"/>
			<ellipse id="XMLID_98_" class="st7" cx="610.9" cy="78.9" rx="1" ry="1.9"/>
			<path id="XMLID_97_" class="st7" d="M611.9,90.1c0,0,7.3,1,11-0.9c0,0-2.1,5.1-6.1,4.7C612.9,93.4,611.9,90.1,611.9,90.1z"/>
			<path id="XMLID_96_" class="st10" d="M629.3,82.6c0,0-0.3-9.2-3.8-16.4c0,0-6.2,2.9-7.5,2.3c-1.4-0.7,1.3-2.3,1.3-2.3
				s-10.2,3.5-10.8,2.8c-0.6-0.7,3.3-2.8,3.3-2.8l-6.3,2.3c0,0-2,8.3-1.2,14.1c0,0-2.7-4.8-3.1-8.2c-0.4-3.4,1.1-12.8,10.6-13.6
				c9.5-0.7,14.9,1.5,17.2,6.1C631.6,71.5,631.3,77.1,629.3,82.6z"/>
			<g id="XMLID_363_">
				<path id="XMLID_95_" class="st6" d="M617.9,87.5c-0.8,0-1.6-0.2-1.9-0.3l0.2-0.9c0.9,0.2,2.3,0.4,2.5,0c0.1-0.2,0.1-0.5-0.1-0.8
					c-1.2-2.6-1.5-9.2-1.5-9.5h0.9c0,0.1,0.2,6.7,1.4,9.2c0.4,0.8,0.4,1.4,0,1.8C619.1,87.4,618.5,87.5,617.9,87.5z"/>
			</g>
		</g>
		<path id="XMLID_94_" class="st17" d="M627,100.2c0,0,14.9,47.8,16.3,86.7c0,0,5.4,1.5,11.4-7c6-8.6,2.5-76.1-9.2-87.3
			C645.7,92.7,640.3,91.4,627,100.2z"/>
		<path id="XMLID_93_" class="st16" d="M629.5,108.6c0,0,2.7-6.4,1.5-10.8s-5.4,0-5.4,0S627.3,105,629.5,108.6z"/>
		<path id="XMLID_92_" class="st16" d="M599.5,96.7c-11-4.9-46.5-17.9-46.5-17.9s-24-31.8-28.8-36.4c0,0-6,3.5-6.5,10.8
			c0,0,15,31.9,23.4,41.7s50.7,30.8,50.7,30.8L599.5,96.7z"/>
		<path id="XMLID_91_" class="st17" d="M608.2,100.2c0,0-14.9,47.8-16.3,86.7c0,0-5.4,1.5-11.4-7c-6-8.6-2.5-76.1,9.2-87.3
			C589.6,92.7,594.8,91.4,608.2,100.2z"/>
		<path id="XMLID_90_" class="st16" d="M605.8,108.6c0,0-2.7-6.4-1.5-10.8c1.2-4.4,5.4,0,5.4,0S608,105,605.8,108.6z"/>
		<g id="XMLID_354_">
			<path id="XMLID_89_" class="st11" d="M683.5,400.1h-29.6c-2-12.2,1.2-24.3,1.2-24.3l13.5-2.4c1.2,7.7,2.7,10.7,4.8,12.3l0,0
				c1.5,1.1,3.3,1.5,5.5,2.3c2.5,0.9,3.9,2.6,4.6,4.4C684.9,396,683.5,400.1,683.5,400.1z"/>
			<path id="XMLID_88_" class="st10" d="M683.6,392.4c-7.3,1-23.3,2.6-22.4-1.8c0.8-3.7,7.6-4.7,12.3-4.9l0,0
				c1.5,1.1,3.3,1.5,5.5,2.3C681.5,388.9,682.9,390.6,683.6,392.4z"/>
		</g>
		<g id="XMLID_351_">
			<path id="XMLID_87_" class="st11" d="M584.4,400.1h-29.6c0,0-0.9-2.9-0.5-5.9c0.4-2.5,1.6-5,5-6.3c2.5-0.9,4.5-1.3,6.2-2.9
				c1.7-1.7,3.1-4.9,4.1-11.8l13.5,2.4C583.2,375.8,586.5,388,584.4,400.1z"/>
			<path id="XMLID_86_" class="st10" d="M554.3,394.3c0.4-2.5,1.6-5,5-6.3c2.5-0.9,4.5-1.3,6.2-2.9c3.8,1.2,9,3.4,10.6,6.7
				C578.4,396.4,561.1,395.7,554.3,394.3z"/>
		</g>
	</g>
	<g id="XMLID_306_">
		<g id="XMLID_345_">
			<path id="XMLID_85_" class="st4" d="M796.9,397.9c0,1.3-0.1,2.2-0.1,2.2h-36c0-0.8,0-1.5,0.1-2.2c0.4-9.7,3.3-18.2,3.3-18.2l9-4
				c0.8,4.8,2.8,7.8,5.2,9.8c0.7,0.5,1.4,1,2,1.4c0.4,0.2,0.7,0.4,1,0.5c0.7,0.4,1.5,0.7,2.3,0.9c3.2,1,6.4,1.2,8.6,1.6
				C796.3,390.6,796.9,395.2,796.9,397.9z"/>
			<path id="XMLID_84_" class="st18" d="M796.9,397.9c0,1.3-0.1,2.2-0.1,2.2h-36c0-0.8,0-1.5,0.1-2.2L796.9,397.9L796.9,397.9z"/>
			<path id="XMLID_83_" class="st18" d="M780.5,387l-5,1.7l-1-1.9l4-1.1C779.1,386.2,779.8,386.6,780.5,387z"/>
			<path id="XMLID_82_" class="st18" d="M783.8,388.4l-3.3,2.3l-2-0.8l3.1-2.3C782.3,387.9,783,388.2,783.8,388.4z"/>
		</g>
		<g id="XMLID_340_">
			<path id="XMLID_81_" class="st4" d="M659.5,397.9c-0.1,1.3-0.4,2.2-0.4,2.2h-24c-0.3-0.8-0.5-1.4-0.7-2.2
				c-2.3-11.9,13.6-26.4,13.6-26.4l5.1,7c0,0-0.6,11.1,3.7,13.4C659.4,393.4,659.7,396.1,659.5,397.9z"/>
			<path id="XMLID_80_" class="st18" d="M634.5,397.9h25c-0.1,1.3-0.4,2.2-0.4,2.2h-24C634.8,399.4,634.6,398.7,634.5,397.9z"/>
			<path id="XMLID_79_" class="st18" d="M655.7,391.2c0,0-10.1-2.4-14.7,0.7v-1.7C641,390.1,649.5,385.9,655.7,391.2z"/>
			<path id="XMLID_78_" class="st18" d="M653.7,388.5c0,0-6.5-3.1-12.7,0l0.7-1.7C641.7,386.8,649.2,383.8,653.7,388.5z"/>
		</g>
		<path id="XMLID_77_" class="st19" d="M786,292.7c0,10-8.6,91.2-8.6,91.2c-8.6,0.9-15.4-0.9-15.4-0.9c-2.3-41.2-2.5-76.5-2.5-76.5
			l-41-31.8l-0.1-0.1c0,0-0.1,0.8-0.4,2c-2,9.3-10.6,48.4-14.2,57.2c-4.1,10.2-48.6,53-48.6,53c-8.3-1.2-15.3-7.4-15.3-7.4
			c16-27.4,37.8-54.9,37.8-54.9c1.7-9.9,2.9-31.8,3.6-48.3c0-0.2,0-0.5,0.1-0.8c0.5-11.1,0.7-19.5,0.7-19.5l-7.5-15.9l47.7-18.1
			l10.7,14.1c0,0,2.5,2.3,6.3,6.1c0.1,0.2,0.4,0.4,0.5,0.5C754.1,256.6,786,288.2,786,292.7z"/>
		<g id="XMLID_335_">
			<path id="XMLID_76_" class="st8" d="M681.3,276.2c0-0.2,0-0.5,0.1-0.8c10-5.6,8.4-14.6,8.4-14.7l0.7-0.2
				C690.3,260.7,692.1,270.4,681.3,276.2z"/>
			<path id="XMLID_75_" class="st8" d="M717.8,268.3c0.4,2,0.6,4.1,0.7,6.4l-0.1-0.1c0,0-0.1,0.8-0.4,2c-0.4-15.4-6.6-24.6-6.7-24.6
				l0.5-0.4c0.1,0.1,3.9,5.9,5.8,16c7.3-6.7,0.1-20.4,0.1-20.4l0.6-0.3C718.4,246.9,725.8,261.3,717.8,268.3z"/>
			<path id="XMLID_74_" class="st8" d="M739.8,242.6L739.8,242.6c-0.4,0.2-0.7,0.2-1,0.2c-3.5,0-9.4-5.1-9.7-5.3l0.4-0.5
				c1.9,1.7,7.3,5.7,9.8,5.1C739.4,242.3,739.6,242.5,739.8,242.6z"/>
		</g>
		<path id="XMLID_73_" class="st0" d="M677.9,155.1c0,0,14.5-2.4,21.8,2.4c7.3,4.8,16.9,17.3,16.9,17.3s-11.3,1.6-12.6,9.5
			C703.9,184.3,695.6,164,677.9,155.1z"/>
		<path id="XMLID_72_" class="st5" d="M656,162.9c-6.2,3.5-16.4,16.3-16.9,24.3c-0.4,7.7,5.1,14.9,8.8,20.9
			c11.6,18.8,23.9,35.5,29.1,57.6c0,0.2,26.7,11,57.9-27.8c0,0-17.7-24.6-23.8-45.4c-2.5-8.5-5-17.6-9.8-25
			c-5.2-8.3-14.2-13.1-23.6-12.3C670,155.8,662.1,159.5,656,162.9z"/>
		<path id="XMLID_71_" class="st2" d="M653.5,155c0,0,3.9,6.9,2.1,10.7c0,0,13.5,4.8,13.5-3c0,0-2.5-5.9-1.6-9.6L653.5,155z"/>
		<path id="XMLID_70_" class="st2" d="M683.4,202.5c0,0-7.5,2.2-9.4,5c-1.9,2.8-3.6,8.9-3.6,8.9h12.9l2.5-4.7l2.8-6.2L683.4,202.5z"
			/>
		<g id="XMLID_311_">
			<path id="XMLID_69_" class="st4" d="M671,147.3c0,0,5.2-2.3,1.9-18.6c-2.3-10.8-5.5-12.5-7.6-12.5c0,0-2.5-4-11.5-2.1
				c-6.1,1.3-11,5.2-13.1,12.2c-2.3,7.4,2.3,23.3,8.1,24.9L671,147.3z"/>
			<path id="XMLID_68_" class="st3" d="M672.3,136.2c0,0,3.3-4.8,4.6-0.1c1.5,5.5-3.1,8.5-4.3,6.9
				C671.3,141.4,672.3,136.2,672.3,136.2z"/>
			<path id="XMLID_67_" class="st3" d="M644.5,141.3c0,0-4.6-3.5-4.4,1.4c0.3,5.6,5.5,7.1,6.2,5.1
				C647,145.9,644.5,141.3,644.5,141.3z"/>
			<path id="XMLID_66_" class="st3" d="M662,158.6c8.8-1.5,12.9-8.3,10-26.1c-1.5-9.2-6.9-14-16.8-12.4c-9.9,1.7-13.1,8-11.6,17.3
				C646.6,156.5,652.9,160.1,662,158.6z"/>
			
				<ellipse id="XMLID_65_" transform="matrix(-8.895424e-003 1 -1 -8.895424e-003 798.4551 -505.0541)" class="st6" cx="649.5" cy="143.2" rx="1.7" ry="2"/>
			<path id="XMLID_64_" class="st6" d="M668.1,141.8c-1.1,0.3-2.2-0.3-2.4-1.2c-0.2-0.9,0.5-1.9,1.6-2.2c1.1-0.3,2.2,0.3,2.4,1.2
				C669.9,140.6,669.1,141.5,668.1,141.8z"/>
			<g id="XMLID_323_">
				<path id="XMLID_63_" class="st7" d="M650,133.2c-0.1,0-0.1,0-0.2-0.1c-0.2-0.2-0.3-0.5-0.1-0.7c1.2-1.9,3.7-2.3,3.8-2.3
					c0.3,0,0.4,0.2,0.5,0.4c0,0.2-0.1,0.5-0.4,0.5c0,0-2.2,0.3-3.2,1.9C650.2,133.2,650.2,133.2,650,133.2z"/>
			</g>
			<g id="XMLID_321_">
				<path id="XMLID_62_" class="st7" d="M666.6,130.4c-0.1,0-0.2,0-0.3-0.1c-1.5-1.1-3.6-0.7-3.6-0.7c-0.2,0.1-0.5-0.2-0.5-0.4
					c-0.1-0.2,0.1-0.5,0.4-0.5c0.1,0,2.5-0.5,4.3,0.8c0.2,0.2,0.2,0.5,0.1,0.7C666.9,130.4,666.7,130.4,666.6,130.4z"/>
			</g>
			<path id="XMLID_61_" class="st7" d="M653,139.8c-0.6,0.1-1.2-0.7-1.4-1.9c-0.2-1.1,0.2-2.2,0.7-2.3c0.6-0.1,1.2,0.7,1.4,1.9
				S653.6,139.7,653,139.8z"/>
			<path id="XMLID_60_" class="st7" d="M664.7,137.9c-0.6,0.1-1.2-0.7-1.4-1.9c-0.2-1.1,0.2-2.2,0.7-2.3c0.6-0.1,1.2,0.7,1.4,1.9
				S665.3,137.8,664.7,137.9z"/>
			<path id="XMLID_59_" class="st7" d="M666.6,146.2c0,0-7.6,2.1-11.9,1.3c0,0,2.9,3.8,7.1,2.7S666.6,146.2,666.6,146.2z"/>
			<path id="XMLID_58_" class="st1" d="M667,124.1c0,0-10,7.4-22.4,8l0.4,11.5c0,0-11.6-22.2,11.4-26.1c23-3.9,16.3,20.8,16.3,20.8
				S671.9,127.8,667,124.1z"/>
			<g id="XMLID_315_">
				<path id="XMLID_57_" class="st6" d="M658.9,143.1l-0.1-1c0,0,1.3-0.1,1.7-1c0.1-0.4-0.4-1.5-0.9-2.5c-0.7-1.4-1.5-3.1-1.9-5
					l0.9-0.2c0.4,1.7,1.2,3.4,1.8,4.7c0.7,1.4,1.3,2.5,0.9,3.3C660.8,143,658.9,143.1,658.9,143.1z"/>
			</g>
			<path id="XMLID_56_" class="st12" d="M672.4,124.2c-16.7-7.5-32.5,8-32.5,8s-1.8-12.6,1.4-15.5c0.9-0.8,1.7-1.4,2.7-2
				c7.4-4.8,17.2-4.7,21.7-3.1c0.9,0.4,1.7,0.8,2,1.2C670.3,115.6,672.4,124.2,672.4,124.2z"/>
			<path id="XMLID_55_" class="st5" d="M670.3,121.4c0,0-14-2.9-27.2,6.1c0,0-0.9-8.1,0.7-12.8c7.4-4.8,17.2-4.7,21.7-3.1
				C668.3,114.7,670.3,121.4,670.3,121.4z"/>
			<path id="XMLID_54_" class="st14" d="M641.3,130.8c0,0,2.3-9.8,5.2-12.5c5-4.6,19-6.2,26.4-3.4c7.3,2.8,0,11.1,0,11.1
				S661.1,117.2,641.3,130.8z"/>
		</g>
		<path id="XMLID_53_" class="st3" d="M662.9,195.8c0,0,5.7,9.2,15.5,14.6c0,0,12.2-11,28.1-10c0,0-13.1,24.5-24.4,27.3
			c-6,1.4-27.4-13.3-27.4-13.3S659,198.7,662.9,195.8z"/>
		<path id="XMLID_52_" class="st0" d="M641.8,179.1c5.2-8.9,17.4,4.2,21.5,13.6c4.1,9.3,7.1,11.3,7.1,11.3s-12.1,5.3-12.1,14.6
			C658.4,218.5,630.4,198.4,641.8,179.1z"/>
		<path id="XMLID_51_" class="st2" d="M678.5,206.3c0,0,7.4-7.5,31.6-17.3l-3.1-10.2c2.8-3.8,7.9-3.8,7.9-3.8s12.4,18.2,10.3,23.6
			C723.8,202,697.9,205.6,678.5,206.3z"/>
		<path id="XMLID_50_" class="st3" d="M705.1,191.5c0,0,0.2-1.1,1.1-2.4c0.9-1.3,0.7-3.7,0.9-4.4c0.3-0.8,2.3-3.8,3.5-4.4
			c1.2-0.6,2.9-1.6,3.3,0.2c0.4,1.7-2.3,1.2-3.4,3.6c0,0,2.5-0.8,4.6-0.4c2,0.5,2.6,2.4,0.1,2.4c-2-0.1-4.6,1.4-4.6,1.4
			s2.6,0.4,2.2,1.7C712.2,190.9,709,189.9,705.1,191.5z"/>
	</g>
	<g id="XMLID_243_">
		<path id="XMLID_49_" class="st20" d="M525.7,225.7c2.2,5.7,11,15.5,11,15.5s21.7-13.4,31.7-7.8c10,5.6,17.9,9.1,24.5,6.6
			c6.5-2.5-21.4-54.8-21.4-54.8l-36.1-14.3c0,0-0.8,9.5-4.9,11.1s-8.5,17.3-8.2,20.2C522.6,205.3,525.7,225.7,525.7,225.7z"/>
		<path id="XMLID_48_" class="st2" d="M566.3,241.6c0,0-9.3,18.8-28.5,43c0,0-2,28.7-52.8,73.9l-5.3-4.4c0,0,30.3-49,36.3-64.1
			c6-15-3.3-28.8,24.5-66.8L566.3,241.6z"/>
		<path id="XMLID_47_" class="st11" d="M536.6,208.2c-8,15.8-10.7,36.1-10.7,36.1l-3.6,9.5c0,0,12.9,7.2,27.9,9.8l6-16.4
			L536.6,208.2z"/>
		<path id="XMLID_46_" class="st3" d="M578.5,240.1c0,0,4,20.8,3.3,52c0,0,15.6,23.8,2.8,91.8h-6.8c0,0-5.5-57.8-9.7-73.5
			c-4.2-15.7-19.8-20.5-20.7-68.1L578.5,240.1z"/>
		<g id="XMLID_297_">
			<path id="XMLID_45_" class="st10" d="M582.4,262.4c0,0-12.7,2.3-35.2,1.3l-0.4-2.6l-0.1-0.7l-2.3-16.9c0,0-2.2-2.8-4.4-7.2
				c-0.3-0.5-0.5-1.1-0.8-1.7c-3.1-6.7-5.7-16.3-2.7-26.4l4.7,0.2l0.7,0.1l15.8,0.8l0.7,0.1l5.2,0.2l0.8,0.1l3.3,0.2
				c0,0,17.1,16,14.1,45.5l0.2,4.1v0.7L582.4,262.4z"/>
			<g id="XMLID_298_">
				<path id="XMLID_44_" class="st11" d="M542.1,208.5c-0.4,1.4-3.4,11.3-2,27.8c-0.3-0.5-0.5-1.1-0.8-1.7c-1.2-15,1.5-24.3,2-26.2
					c0.1-0.2,0.1-0.3,0.1-0.4l0.6,0.2C542.1,208.3,542.1,208.4,542.1,208.5z"/>
				<path id="XMLID_43_" class="st11" d="M582.3,260c-4.5,1.2-12.1,1.5-19.4,1.5c-6.5,0-12.7-0.3-16-0.5l-0.1-0.7
					c5.7,0.3,20.7,0.9,30.4-0.2l-0.7-10.6c0.1-12.3-3.5-22.8-6.9-30.1c-8.8-1.7-11.3-8.4-11.8-10.3c-0.1-0.3-0.1-0.5-0.1-0.5
					l0.7-0.1c0,0,0.1,0.2,0.1,0.7c0.6,2,2.9,7.8,10.7,9.5c-2.3-4.7-4.6-8-5.5-9.2c-0.3-0.4-0.4-0.6-0.4-0.6l0.5-0.5
					c0,0,0.3,0.4,0.8,1.1c3,4.1,12.9,19.7,12.6,40l0.7,10.5c1.7-0.2,3.2-0.5,4.4-0.8L582.3,260z"/>
			</g>
		</g>
		<path id="XMLID_42_" class="st19" d="M549.8,137.1c-5.1-2.9-41.5,11.9-41.5,11.9s-5.4,9.9-2,13.8c3.3,3.9,15.3,2.2,18.9,0
			c3.6-2.2,13.3-3.8,13.3-3.8L549.8,137.1z"/>
		<path id="XMLID_41_" class="st13" d="M582,105.7c0,0,7.6,3,10.2,11.9c2.8,8.9-5.4,31.6-2.6,42.1s2.4,30.1-6.5,34.2
			c-8.9,4.1-27.1-3.3-30.9-14.6c-3.9-11.3-2.3-54.4,5.3-69.1C565,95.6,580.2,103,582,105.7z"/>
		<path id="XMLID_40_" class="st19" d="M573.4,144.3c2,2.2,7-1.7,7-1.7s-0.1,19.5-5.6,21c-5.5,1.5-19.5-15.4-18.9-20
			C556.5,139.1,569,139.5,573.4,144.3z"/>
		<path id="XMLID_39_" class="st1" d="M552.2,139.5c0,0,5.5,4.9,15.3,7.2c9.7,2.3,14.9-2.4,19.9,4.1c7.4,9.7-4.6,27.6-11,36.8
			c-2.4,3.5-7.4,13-8.4,22.2c0,0-16.8,5-31.3-1.5l-1.1-21.3C535.6,186.9,526.5,158.2,552.2,139.5z"/>
		<path id="XMLID_38_" class="st19" d="M569.6,160.2c0,0,7.7-18.9,9.9-20.1c2.3-1.2,7.8,1.7,9,4.3c1.2,2.6,0,8.3,0,8.3
			S582.5,145.5,569.6,160.2z"/>
		<path id="XMLID_37_" class="st8" d="M606.4,240.1c-3.5,7.4-12.1,9.5-12.1,9.5s-0.7-1.1-1.7-2.9c-0.1-0.2-0.2-0.4-0.4-0.6
			c-6.8-11.3-27.3-47.5-26.9-66.2c0.4-22.5,14.7-34.8,14.7-34.8c7.2,1.8,9.4,3.8,9.4,3.8s2.4,12.8,0.2,28.2
			c-2.3,15.4-6.2,19.4-4.2,20.6c2,1.1,0,3.5,0,3.5s11.9,17.2,14.2,22.5c1.5,3.5,3.9,9.4,5.4,13.1c0.1,0.2,0.2,0.5,0.3,0.8
			C605.9,239.1,606.4,240.1,606.4,240.1z"/>
		<path id="XMLID_36_" class="st3" d="M585.6,148.9c0,0-8.6,6.5-3.6,16.6l23.7,25.4c-13,14.3-14.3,20.2-23.7,26.8l3.6,5.7
			c0,0,32.9-26.1,33-32.5C618.6,188.1,598.4,155.2,585.6,148.9z"/>
		<path id="XMLID_35_" class="st3" d="M581.5,217.6c0,0-4.5,0.5-7.3,1.3c-2.8,0.8-6.6,1.5-6.8,2.1c-0.1,0.6,6.2,0,6.2,0
			s-5.2,2.2-5.3,3.1c-0.1,0.8,6.6-0.6,6.6-0.6s-4.3,2.7-4,3.5c0.2,0.8,5.5-1.1,5.5-1.1s-0.9,2.6-2,3.8c0,0,1,0.6,3.1-1.8
			c2-2.4,5.4-1.6,8-3.7C588.1,222,583.9,217.3,581.5,217.6z"/>
		<path id="XMLID_34_" class="st8" d="M557.3,142.6c0,0-6.5,4.4-10.6,14.9c-4.1,10.5-17.1,30.3-20.1,35.4
			c-3.1,5.1-0.9,32.9-0.9,32.9s-3.8-16.8-5.5-23.4c-1.7-6.5,5.4-22.8,6.5-23.7c1.1-0.8,6.5,0.8,5.5-5.9
			c-1.1-6.6,13.7-34.9,17.7-35.7C549.8,137.1,556.2,138.3,557.3,142.6z"/>
		<path id="XMLID_33_" class="st8" d="M537.2,144c-0.1,0.2-0.2,0.5-0.4,0.7c-1.5,2.2-4.2,3.9-4.2,3.9s-4.9,7.2-5,8
			c-0.1,0.7-8.6,7.1-12.4,7l0,0c-0.5,0-0.9-0.2-1.2-0.5c-2.3-2.2,7.7-20.7,9.9-24.7c0.1-0.2,0.2-0.5,0.4-0.6
			c0.1-0.1,0.1-0.2,0.1-0.2s-1.7-6.8,5.6-5.5c6.1,1.1,7.3,6,7.9,9.4C537.8,142.5,537.6,143.2,537.2,144z"/>
		<path id="XMLID_32_" class="st3" d="M511.7,151c5-6.8,22.7-20.1,32-24l2.3,4.5c0,0-18,16.4-22.2,23.4s-9.4,9.9-14.5,7.6
			C504.3,160,510.6,152.5,511.7,151z"/>
		<path id="XMLID_31_" class="st19" d="M535.5,142.6l-0.9,1.1l-0.5,0.6l-1.6,1.9c0,0-4,5-3.8,7c0.1,1.4-7.5,7.8-13.5,10.5
			c-2.4,1.1-4.6,1.6-5.8,0.8c-4.3-2.6-3.3-10.3-0.9-15.5c2.1-4.6,11.5-10.4,14-11.9c0.3-0.2,0.5-0.3,0.6-0.4l0,0l0.9-3.6
			c0,0,3.3-2,5.9-0.8c0,0-5.7,0.2-4.8,2.6C525.9,137.1,533.9,142.5,535.5,142.6z"/>
		<g id="XMLID_281_">
			<path id="XMLID_30_" class="st3" d="M556.2,123.7c-5.7,2.4-4.9,7.8-10.2,7.8c-3.3,0-3.7-3.8-3.7-3.8c1.5-3.3,2.4-8.9,2.6-11.6
				c0.2-2.7,1.1-1.7,1.1-1.7c0-0.2,0-0.5,0-0.8c-0.1-1.8-0.4-3.1,0.7-2.3c1.3,0.9,1.7,5.9,1.7,5.9c1.1-7.4-0.5-8.6,0.7-7.9
				c1.7,0.9,1.7,7.4,1.7,7.7c1.4-4.3,1-6.8,2-5.8c0.9,1-0.5,8.9-1,11.9c-0.1,0.7-0.2,1.1-0.2,1.1
				C556.1,121.9,556.2,123.7,556.2,123.7z"/>
			<path id="XMLID_29_" class="st2" d="M551.8,123.2c-0.1,0.7-0.2,1.1-0.2,1.1s-2.1-0.2-3.6,2.1C548,126.3,548.4,123.2,551.8,123.2z
				"/>
			<path id="XMLID_28_" class="st2" d="M546.3,119.8c0.1-0.6,0.3-4.2-0.3-5.3c0-0.2,0-0.5,0-0.8C547.3,114,546.4,119,546.3,119.8z"
				/>
		</g>
		<path id="XMLID_27_" class="st19" d="M549.8,151c0,0,3.8-10.9,5.1-13.3c1.2-2.4,7.7-2,12.6-1.1c4.9,1,5.9,7.7,5.9,7.7
			S558.6,137.1,549.8,151z"/>
		<path id="XMLID_26_" class="st2" d="M574.9,129.6c0,0-4.6,8.9-4.6,18.7c0,0-7.6,5.3-10.2-1.4c0,0,2.9-8.7,1.5-20.5
			C560.6,118.7,574.9,129.6,574.9,129.6z"/>
		<g id="XMLID_261_">
			<path id="XMLID_25_" class="st3" d="M560,117.3c0,0-1.4-5.1-3.8-1.5c-2.8,4.1,0.1,8.2,1.6,7.2C559.3,122,560,117.3,560,117.3z"/>
			<path id="XMLID_24_" class="st3" d="M582,130.4c0,0,4.9-1.4,3.3,2.6c-2,4.7-6.8,4.2-6.8,2.3C578.5,133.5,582,130.4,582,130.4z"/>
			<path id="XMLID_23_" class="st3" d="M562,139.5c-7-4.1-8.4-11.1-0.7-25.3c4-7.3,10-9.7,17.9-5.1c7.8,4.6,8.7,11,4.7,18.3
				C575.7,142.6,569.3,143.7,562,139.5z"/>
			<path id="XMLID_22_" class="st6" d="M577.6,129.1c1,0.4,1.6,1.3,1.3,2.1c-0.3,0.8-1.3,1.1-2.3,0.8c-1-0.4-1.6-1.3-1.3-2.1
				C575.6,129,576.7,128.7,577.6,129.1z"/>
			<path id="XMLID_21_" class="st6" d="M563.6,120.8c0.9,0.6,1.2,1.6,0.8,2.3s-1.5,0.8-2.4,0.2c-0.9-0.6-1.2-1.6-0.8-2.3
				S562.7,120.2,563.6,120.8z"/>
			<g id="XMLID_272_">
				<path id="XMLID_20_" class="st7" d="M579.9,121.9c-0.1,0-0.4-0.2-0.4-0.3c-0.4-1.7-2.1-2.6-2.2-2.6c-0.2-0.1-0.3-0.4-0.1-0.5
					c0.1-0.2,0.4-0.3,0.5-0.2c0.1,0.1,2,1.1,2.5,3.1C580.4,121.7,580.2,121.9,579.9,121.9C580,121.9,580,121.9,579.9,121.9z"/>
			</g>
			<g id="XMLID_270_">
				<path id="XMLID_19_" class="st7" d="M570.3,114.8c-0.1,0-0.1,0-0.2-0.1c0,0-1.7-1.1-3.3-0.5c-0.2,0.1-0.4-0.1-0.5-0.3
					c-0.1-0.2,0.1-0.5,0.3-0.5c1.9-0.6,3.8,0.6,3.9,0.7c0.2,0.2,0.2,0.4,0.1,0.6C570.5,114.8,570.5,114.8,570.3,114.8z"/>
			</g>
			<path id="XMLID_18_" class="st7" d="M577.1,123.2c0.5,0.3,0.5,1.2,0,2.2c-0.5,0.9-1.3,1.4-1.8,1.1c-0.5-0.3-0.5-1.2,0-2.2
				C575.8,123.4,576.6,122.9,577.1,123.2z"/>
			<path id="XMLID_17_" class="st7" d="M567.2,117.8c0.5,0.3,0.5,1.2,0,2.2c-0.5,0.9-1.3,1.4-1.8,1.1c-0.5-0.3-0.5-1.2,0-2.2
				C565.9,118,566.7,117.5,567.2,117.8z"/>
			<path id="XMLID_16_" class="st7" d="M563.8,129.2c0,0,4,3.2,6.9,3.2c0,0-3.1,2.6-5.3,0.9C563.2,131.7,563.8,129.2,563.8,129.2z"
				/>
			<path id="XMLID_15_" class="st7" d="M574.9,123.5c0,0,1.8-1.9,2.6-1.2c0.7,0.7,0.4,2.9,0.4,2.9l1.6,0.1l-1.3-0.5
				c0,0,0.4-2.3-0.4-2.9C576.6,121.2,574.9,123.5,574.9,123.5z"/>
			<path id="XMLID_14_" class="st7" d="M568,119.9c0,0,0.6-2.6-0.4-2.9c-0.9-0.3-2.6,1.2-2.6,1.2l-0.9-1.4l1.2,0.9
				c0,0,1.7-1.6,2.5-1.1C569,117.2,568,119.9,568,119.9z"/>
			<path id="XMLID_13_" class="st13" d="M581.1,112.1c0,0-2.5-3.6-6-0.8c-3.5,2.9-11.3,7.4-15.1,5.9c-3.8-1.5,8.4-18.5,19-13.5
				c10.6,5,9.7,21.1,5.2,26.2c-4.4,5.1-2.3,0.4-2.3,0.4s0.3-7.3,1.7-12.1C585.3,113.5,581.1,112.1,581.1,112.1z"/>
			<g id="XMLID_262_">
				<path id="XMLID_12_" class="st6" d="M569.3,127.5c-0.2,0-0.4,0-0.6-0.1l0.2-0.9c0.7,0.2,1.1-0.2,1.2-0.5c0.2-0.5,0.2-1,0-1.2
					c-0.1-0.2-0.3-0.1-0.6,0l-0.4-0.8c0.9-0.5,1.4-0.1,1.6,0.2c0.5,0.5,0.5,1.5,0.1,2.3C570.6,127.2,570,127.5,569.3,127.5z"/>
			</g>
		</g>
		<g id="XMLID_257_">
			<path id="XMLID_11_" class="st19" d="M620.6,189.9c-0.4,6.4-15.6,27.1-18.2,27.8c-0.7,0.2-1.3,0.6-2,1c-0.3,0.2-0.5,0.4-0.8,0.6
				c-1.5,1.2-2.5,2.6-2.5,2.6c-4.4-0.3-16.9-6.2-12.9-7.6c0.2-0.1,0.5-0.2,0.8-0.5c0.1-0.2,0.4-0.2,0.5-0.5
				c4.7-4.1,13.9-20.7,13.9-21.9c0.1-1.4,1.7-1.7,1.7-1.7s-8.6-13.1-13.7-14.7c-5-1.6-7.6-7.9-7.6-7.9c-4.9-21.7,9.4-18.3,9.4-18.3
				C600,155.5,621,183.5,620.6,189.9z"/>
			<g id="XMLID_258_">
				<path id="XMLID_10_" class="st20" d="M600.5,218.7c-0.3,0.2-0.5,0.4-0.8,0.6c-6.8-0.5-12.5-4-14.7-5.4c0.1-0.2,0.4-0.2,0.5-0.5
					C587.8,214.9,593.6,218.4,600.5,218.7z"/>
			</g>
		</g>
		<g id="XMLID_255_">
			<path id="XMLID_9_" class="st20" d="M537.2,144c-0.1,0.2-0.2,0.5-0.4,0.7c-0.9-0.1-1.9-0.2-2.8-0.4c-4.5-1-8-3.5-10.2-5.9
				c-0.5-0.5-0.9-1.1-1.4-1.5c0.3-0.2,0.5-0.3,0.6-0.4c0.4,0.4,0.7,0.8,1.2,1.2c2.3,2.3,5.7,5,10.4,5.9
				C535.4,143.9,536.3,144,537.2,144z"/>
		</g>
		<g id="XMLID_253_">
			<path id="XMLID_8_" class="st20" d="M605.3,237.5c-2.1,3.7-6,8.1-12.7,9.2c-0.1-0.2-0.2-0.4-0.4-0.6c7-1.1,10.8-5.7,12.8-9.4
				C605,237,605.2,237.3,605.3,237.5z"/>
		</g>
		<g id="XMLID_248_">
			<path id="XMLID_7_" class="st5" d="M489.8,356.9c0,0-1.6,1.6-3.3,4.6c-1.7,2.9,0.1,5.7-7.8,12.5c0,0-16.1-9.8-23.4-22.3
				c0,0,0.1-3.6,3.6-4.4c1.9-0.5,7.1,2.1,12.1,3.1c0.7,0.2,1.5,0.2,2.1,0.3c0.9,0.1,1.7,0.1,2.5,0c0.7-0.1,1.5-0.2,2.2-0.5l0,0
				c1.7-0.8,3.1-2.2,3.8-4.7c0,0,4.3,2.6,1.5,6.8C483.2,352.3,488.2,350,489.8,356.9z"/>
			<path id="XMLID_6_" class="st0" d="M478.7,374.1c0,0-16.1-9.8-23.4-22.3c0,0,2.7-0.6,4.9,3.5C462.5,359.5,480,368.9,478.7,374.1z
				"/>
			<path id="XMLID_5_" class="st0" d="M478.8,354.3c-1.3,2.1-1.3-1.8-3.1-3.7c0.7-0.1,1.5-0.2,2.2-0.5l0,0
				C478.7,351,479.8,352.7,478.8,354.3z"/>
			<path id="XMLID_4_" class="st0" d="M473.7,354.5c-1.4,1.4-1.8-2.2-2.6-4.1c0.7,0.2,1.5,0.2,2.1,0.3
				C474,351.8,474.8,353.4,473.7,354.5z"/>
		</g>
		<g id="XMLID_244_">
			<path id="XMLID_3_" class="st5" d="M588.8,400.1H566c0,0-0.9-3.3,0-6.9c0.4-1.6,2.8-3,4.9-5c0.6-0.6,1.2-1.1,1.7-1.8
				c0.4-0.5,0.8-1.1,1.2-1.7c0.4-0.8,0.7-1.6,0.9-2.5c0.4-1.8,0.2-3.9-0.7-6.4c0,0,7.8-1.7,10.5,2.7c0,0,0.3-2,2.8-0.7
				c0,0-0.4,4.1,0.1,7.4C588,388.6,591,389.6,588.8,400.1z"/>
			<path id="XMLID_2_" class="st0" d="M583,385.9c-0.2,0.2-0.5,0.4-0.7,0.4s-0.4-0.1-0.7-0.2c-1.2-1-3.8-2.5-7.6-1.4
				c0.4-0.8,0.7-1.6,0.9-2.5c1.5-0.6,4.4-0.9,7.9,2.2C583.3,384.8,583.3,385.5,583,385.9z"/>
			<path id="XMLID_1_" class="st0" d="M581,389.8l-0.1,0.2c-0.3,0.5-0.9,0.7-1.4,0.4c-1.5-1-5-2.7-8.4-2.3c0.6-0.6,1.2-1.1,1.7-1.8
				c1.7-0.4,4.9-0.6,8,2C581.2,388.8,581.3,389.4,581,389.8z"/>
		</g>
	</g>
</g>
</svg>
