<?xml version="1.0" encoding="utf-8"?>
<!-- Generator: Adobe Illustrator 19.0.0, SVG Export Plug-In . SVG Version: 6.00 Build 0)  -->
<svg version="1.1" id="Layer_1" xmlns="http://www.w3.org/2000/svg" xmlns:xlink="http://www.w3.org/1999/xlink" x="0px" y="0px"
	 viewBox="0 0 300 300" style="enable-background:new 0 0 300 300;" xml:space="preserve">
<style type="text/css">
	.st0{fill:#ADBEC4;}
	.st1{fill:#103A44;}
	.st2{fill:#EE6E4C;}
	.st3{fill:#F68B68;}
	.st4{fill:#184453;}
	.st5{fill:#D0D8DC;}
	.st6{fill:#DC624E;}
	.st7{fill:#1C4951;}
	.st8{fill:#6197B1;}
	.st9{fill:#225360;}
	.st10{fill:#8C393F;}
	.st11{fill:#662D34;}
	.st12{fill:#CE384D;}
	.st13{fill:#EF4353;}
	.st14{fill:#A23045;}
	.st15{fill:#FBB879;}
	.st16{fill:#0C486C;}
	.st17{fill:#125F9A;}
	.st18{fill:#255967;}
	.st19{fill:#8CBEDC;}
	.st20{fill:#3F6676;}
</style>
<g id="XMLID_242_">
	<g id="XMLID_531_">
		<path id="XMLID_240_" class="st0" d="M63.2,272.4H27.8c-0.4,0-0.7-0.4-0.7-0.9v-1.7c0-0.5,0.3-0.9,0.7-0.9h35.3
			c0.4,0,0.7,0.4,0.7,0.9v1.7C63.8,272,63.5,272.4,63.2,272.4z"/>
		<path id="XMLID_239_" class="st0" d="M282,272.4h-10.2c-0.4,0-0.7-0.4-0.7-0.9v-1.7c0-0.5,0.3-0.9,0.7-0.9H282
			c0.4,0,0.7,0.4,0.7,0.9v1.7C282.8,272,282.4,272.4,282,272.4z"/>
		<path id="XMLID_238_" class="st0" d="M128.1,272.4H92.8c-0.4,0-0.7-0.4-0.7-0.9v-1.7c0-0.5,0.3-0.9,0.7-0.9h35.3
			c0.4,0,0.7,0.4,0.7,0.9v1.7C128.9,272,128.5,272.4,128.1,272.4z"/>
		<path id="XMLID_237_" class="st0" d="M178.9,272.4h-35.3c-0.4,0-0.7-0.4-0.7-0.9v-1.7c0-0.5,0.3-0.9,0.7-0.9h35.3
			c0.4,0,0.7,0.4,0.7,0.9v1.7C179.6,272,179.3,272.4,178.9,272.4z"/>
		<path id="XMLID_236_" class="st0" d="M241,272.4h-47.9c-0.4,0-0.7-0.4-0.7-0.9v-1.7c0-0.5,0.3-0.9,0.7-0.9H241
			c0.4,0,0.7,0.4,0.7,0.9v1.7C241.7,272,241.4,272.4,241,272.4z"/>
	</g>
	<g id="XMLID_455_">
		<path id="XMLID_235_" class="st1" d="M74.3,75.8c0,0-3.7-3.1-9-0.7c-5.3,2.4-6.5,11.4-5.2,18.7c1.3,7.3-6,32.2-6,32.2
			s3.8,6.7,17.2,4.1c0,0,10-22.7,9.2-38.9S74.3,75.8,74.3,75.8z"/>
		<path id="XMLID_234_" class="st2" d="M78.5,103.9c5-2,8.1,3.2,11,13s3.8,10.7,3.8,10.7l11.1,8.9l-0.9,5.2c0,0-10.6-5.2-13.1-8.5
			c-2.6-3.3-9.9-20-9.9-20L78.5,103.9z"/>
		<path id="XMLID_233_" class="st3" d="M54.1,166.8c0,0-2.2,13.8-1.8,34.6c0,0-8.6,15.8-1.5,61.1h3.7c0,0,3-38.4,5.3-48.9
			c2.3-10.4,10.9-13.6,11.4-45.3L54.1,166.8z"/>
		<path id="XMLID_232_" class="st3" d="M37.1,207.4c-2.2-8.9-7.7-23.8-21.9-44c0,0-0.8-0.5-2,0.3c-1.2,0.9-1.2,2-1.2,2
			s7.1,19.5,11.7,33.7c1.5,4.8,5.2,7.9,9.4,7.9L37.1,207.4L37.1,207.4z"/>
		<path id="XMLID_231_" class="st4" d="M63,224.6c0,0,0,6.6-3.4,6.7c-4.9,0.1-5.1-6.5-10.7-6.3s-17.1,1.9-20.7-8.9
			c-1.9-5.6,0.7-12.9-5.4-18.3c-6.1-5.4-3.1-11.5,0-14.8c3.1-3.2-1.4-6.8,1.9-8.5c0.8-0.4,1.6-0.3,2.3,0c0.4,0.2,0.8,0.4,1.2,0.7
			c1.7,1.4,2.9,3.9,2.9,3.9c9.2-31.6,25.7-35.8,25.7-35.8l16.3,7C73.4,199.6,63,224.6,63,224.6z"/>
		<path id="XMLID_230_" class="st5" d="M78.5,103.9c0,0-3.8,1.6-9.2,0.6c-5.4-1-7.1-5.2-10.9-2.5c-5.7,4.1-3,18.2-1.6,25.5
			c0.5,2.7,1.2,9.9-0.1,15.8c0,0,7.6,7.4,16.3,7l4.7-12.9C77.7,137.4,88,122,78.5,103.9z"/>
		<path id="XMLID_229_" class="st2" d="M68.9,92c0,0,0.6,6.7-1.4,12.7c0,0,2.8,5.2,5.5,1.8c0,0,0.2-6.1,3.3-13
			C78.3,88.9,68.9,92,68.9,92z"/>
		<g id="XMLID_506_">
			<path id="XMLID_228_" class="st3" d="M64.6,92.3c0,0-2.4-1.9-2.1,1c0.3,3.3,2.9,4,3.2,2.8C66,95,64.6,92.3,64.6,92.3z"/>
			<path id="XMLID_227_" class="st3" d="M78.2,88.7c0,0,1.5-2.9,2.2-0.2c0.9,3.2-1.3,5.2-1.9,4.3C77.9,91.8,78.2,88.7,78.2,88.7z"/>
			<path id="XMLID_226_" class="st3" d="M73.3,102.3c-4.3,1.2-7.4-1.6-9.2-12.2c-1-5.4,0.6-9.4,5.5-10.8c4.8-1.3,7.5,1.4,8.4,6.9
				C80,97.6,77.7,101.1,73.3,102.3z"/>
			<path id="XMLID_225_" class="st6" d="M76,90c0.5-0.3,1.1-0.1,1.3,0.4s-0.1,1.1-0.7,1.4c-0.5,0.3-1.1,0.1-1.3-0.4S75.4,90.2,76,90
				z"/>
			<path id="XMLID_224_" class="st6" d="M67.3,92.4c0.6-0.1,1.1,0.2,1.1,0.8c0.1,0.5-0.3,1.1-0.9,1.2c-0.6,0.1-1.1-0.2-1.1-0.8
				C66.3,93,66.7,92.5,67.3,92.4z"/>
			<g id="XMLID_517_">
				<path id="XMLID_223_" class="st1" d="M74.2,85.5c0,0-0.1,0-0.1,0c-0.7-0.6-1.8-0.3-1.8-0.3c-0.1,0-0.2,0-0.3-0.2
					c0-0.1,0-0.3,0.2-0.3c0,0,1.2-0.4,2.2,0.3c0.1,0.1,0.1,0.2,0.1,0.4C74.3,85.5,74.3,85.5,74.2,85.5z"/>
			</g>
			<g id="XMLID_515_">
				<path id="XMLID_222_" class="st1" d="M66.1,87.8c0,0-0.1,0-0.1,0c-0.1-0.1-0.1-0.2-0.1-0.4c0.6-1.1,1.8-1.4,1.8-1.4
					c0.1,0,0.2,0,0.2,0.2c0,0.1,0,0.3-0.2,0.3c0,0-1.1,0.2-1.5,1.2C66.3,87.7,66.2,87.8,66.1,87.8z"/>
			</g>
			<path id="XMLID_221_" class="st7" d="M73.6,87.4c0.3-0.1,0.6,0.4,0.8,1.1c0.1,0.7,0,1.3-0.3,1.4c-0.3,0.1-0.6-0.4-0.8-1.1
				C73.2,88.1,73.3,87.5,73.6,87.4z"/>
			<path id="XMLID_220_" class="st7" d="M67.6,89c0.3-0.1,0.6,0.4,0.8,1.1c0.1,0.7,0,1.3-0.3,1.4c-0.3,0.1-0.6-0.4-0.8-1.1
				C67.2,89.7,67.3,89.1,67.6,89z"/>
			<path id="XMLID_219_" class="st7" d="M70.3,96.4c0,0,2.7-0.3,4-1.5c0,0-0.3,2.7-1.8,2.9C71,97.9,70.3,96.4,70.3,96.4z"/>
			<path id="XMLID_218_" class="st7" d="M72.9,88.6c0,0,0.1-1.7,0.6-1.8c0.6,0,1.2,1.3,1.2,1.3l0.7-0.7l-0.8,0.3
				c0,0-0.7-1.3-1.2-1.2C72.7,86.6,72.9,88.6,72.9,88.6z"/>
			<path id="XMLID_217_" class="st7" d="M68.7,89.9c0,0-0.7-1.5-1.2-1.3c-0.5,0.2-0.6,1.8-0.6,1.8l-0.8-0.3l0.8-0.1
				c0,0,0.1-1.6,0.6-1.7C68.2,88.1,68.7,89.9,68.7,89.9z"/>
			<g id="XMLID_508_">
				<path id="XMLID_216_" class="st6" d="M71.7,93.3l-0.2-0.5c0.4-0.2,0.4-0.5,0.4-0.8c0-0.3-0.3-0.5-0.4-0.6
					c-0.1,0-0.2,0.1-0.2,0.3l-0.4-0.2c0.2-0.6,0.6-0.7,0.7-0.6c0.4,0,0.8,0.5,0.8,1C72.4,92.4,72.2,93,71.7,93.3z"/>
			</g>
			<path id="XMLID_215_" class="st1" d="M64.9,94.2c0,0-1.3-6.1-0.6-10.4c0,0,3.7-6.5,11-3.3c0,0,2.2,4.3,3.2,10.4
				c0,0,0.3-2.2-0.4-7C77.4,79,73.9,76,69.2,77C64.6,77.9,59.6,83.8,64.9,94.2z"/>
		</g>
		<path id="XMLID_214_" class="st1" d="M72.5,79.1c0,0,0.3,1.6-1,5.7c0,0-0.9-1.1-2,0c-1,1.1-3.1,0.8-3.9,1.4
			C65,86.9,65,88.3,65,88.3s-0.6-1.8,0-3.9c0,0-1.4,2.2-1.2,5c0,0-1.9-0.4-1.8-4.3s4.6-10.3,9.6-9.9s6.2,10.4,6.2,10.4
			s-0.5-0.4-1.2-0.2c0,0-0.1-2.1-1.2-4.8c0,0,0.5,1.9,0,4c0,0-1.4-0.9-2.5-0.6C72.9,83.8,73.6,82.2,72.5,79.1z"/>
		<path id="XMLID_213_" class="st3" d="M57.1,103.2c2.4-2.4,4.3,0.6,4.8,4.9c0.5,4.2-3.9,29.3-7.4,28.4c-1.3-0.3-1.9-6.9-1.9-6.9
			s1.3-7,2.2-17.7C55.3,107,55.9,104.5,57.1,103.2z"/>
		<path id="XMLID_212_" class="st3" d="M50,132.9c-3.3-3.9-9.2-17-10.7-23.6l2.5-1.2c0,0,7.5,13.5,11,16.9c3.4,3.4,4.6,7.2,3.1,10.4
			C54.3,138.6,50.7,133.8,50,132.9z"/>
		<g id="XMLID_499_">
			<path id="XMLID_211_" class="st3" d="M40.4,100.6c-0.2,4.2,2.6,5.3,1.4,8.5c-0.2,0.7-0.6,1-1,1.2c-0.8,0.3-1.6,0-2.2-0.7
				c-1.3-1.6-3.3-3.4-4.5-4.2c-1.2-0.9-0.5-1.1-0.5-1.1c-0.1,0-0.2-0.1-0.4-0.2c-0.9-0.4-1.6-0.6-1-1.1c0.7-0.5,3.3,0.6,3.3,0.6
				c-3.3-2.7-4.2-2.1-3.6-2.7c0.8-0.8,4,1,4.1,1.1c-1.8-2.1-3-2.5-2.3-2.8c0.7-0.3,4.2,2.8,5.4,4c0.3,0.2,0.5,0.4,0.5,0.4
				C39.5,100.1,40.4,100.6,40.4,100.6z"/>
			<path id="XMLID_210_" class="st2" d="M39.1,103.2c0.3,0.2,0.5,0.4,0.5,0.4s-0.6,1.2,0.2,2.8C39.7,106.5,38.3,105.4,39.1,103.2z"
				/>
			<path id="XMLID_209_" class="st2" d="M36.2,105.7c-0.3-0.2-2-1.4-2.6-1.3c-0.1,0-0.2-0.1-0.4-0.2
				C33.6,103.4,35.8,105.4,36.2,105.7z"/>
		</g>
		<g id="XMLID_462_">
			<ellipse id="XMLID_208_" class="st8" cx="48.6" cy="168.9" rx="0.7" ry="0.8"/>
			<ellipse id="XMLID_207_" class="st8" cx="60.6" cy="174.7" rx="0.7" ry="0.8"/>
			<ellipse id="XMLID_206_" class="st8" cx="70.8" cy="177.8" rx="0.7" ry="0.8"/>
			<ellipse id="XMLID_205_" class="st8" cx="55.1" cy="158" rx="0.7" ry="0.8"/>
			<ellipse id="XMLID_204_" class="st8" cx="57.4" cy="166" rx="0.7" ry="0.8"/>
			<ellipse id="XMLID_203_" class="st8" cx="68" cy="170.5" rx="0.7" ry="0.8"/>
			<ellipse id="XMLID_202_" class="st8" cx="69.4" cy="156.7" rx="0.7" ry="0.8"/>
			<ellipse id="XMLID_201_" class="st8" cx="62.5" cy="153.9" rx="0.7" ry="0.8"/>
			<ellipse id="XMLID_200_" class="st8" cx="42.7" cy="185.3" rx="0.7" ry="0.8"/>
			<ellipse id="XMLID_199_" class="st8" cx="33.2" cy="181.7" rx="0.7" ry="0.8"/>
			<path id="XMLID_198_" class="st8" d="M28.2,175.2c-0.1,0.2-0.3,0.4-0.6,0.4c-0.4,0-0.7-0.4-0.7-0.8c0-0.1,0-0.2,0-0.3
				C27.4,174.6,27.8,174.9,28.2,175.2z"/>
			<ellipse id="XMLID_197_" class="st8" cx="46.1" cy="196.2" rx="0.7" ry="0.8"/>
			<ellipse id="XMLID_196_" class="st8" cx="29" cy="208.1" rx="0.7" ry="0.8"/>
			<ellipse id="XMLID_195_" class="st8" cx="36" cy="200.9" rx="0.7" ry="0.8"/>
			<ellipse id="XMLID_194_" class="st8" cx="25.6" cy="194.5" rx="0.7" ry="0.8"/>
			<ellipse id="XMLID_193_" class="st8" cx="34" cy="219.6" rx="0.7" ry="0.8"/>
			<ellipse id="XMLID_192_" class="st8" cx="40.4" cy="175.6" rx="0.7" ry="0.8"/>
			<ellipse id="XMLID_191_" class="st8" cx="46.8" cy="161.4" rx="0.7" ry="0.8"/>
			<ellipse id="XMLID_190_" class="st8" cx="54.1" cy="149.7" rx="0.7" ry="0.8"/>
			<ellipse id="XMLID_189_" class="st8" cx="39.3" cy="166.8" rx="0.7" ry="0.8"/>
			<ellipse id="XMLID_188_" class="st8" cx="47.5" cy="153" rx="0.7" ry="0.8"/>
			<ellipse id="XMLID_187_" class="st8" cx="34.7" cy="190.8" rx="0.7" ry="0.8"/>
			<ellipse id="XMLID_186_" class="st8" cx="26.2" cy="183.4" rx="0.7" ry="0.8"/>
			<ellipse id="XMLID_185_" class="st8" cx="50.6" cy="180.9" rx="0.7" ry="0.8"/>
			<ellipse id="XMLID_184_" class="st8" cx="64.5" cy="185.3" rx="0.7" ry="0.8"/>
			<ellipse id="XMLID_183_" class="st8" cx="63.8" cy="161.4" rx="0.7" ry="0.8"/>
			<ellipse id="XMLID_182_" class="st8" cx="71.8" cy="163.2" rx="0.7" ry="0.8"/>
			<ellipse id="XMLID_181_" class="st8" cx="55.8" cy="191.6" rx="0.7" ry="0.8"/>
			<ellipse id="XMLID_180_" class="st8" cx="50" cy="206.6" rx="0.7" ry="0.8"/>
			<ellipse id="XMLID_179_" class="st8" cx="39.7" cy="209" rx="0.7" ry="0.8"/>
			<ellipse id="XMLID_178_" class="st8" cx="68" cy="196.2" rx="0.7" ry="0.8"/>
			<ellipse id="XMLID_177_" class="st8" cx="58.7" cy="202.6" rx="0.7" ry="0.8"/>
			<ellipse id="XMLID_176_" class="st8" cx="44.8" cy="221.3" rx="0.7" ry="0.8"/>
			<ellipse id="XMLID_175_" class="st8" cx="55.1" cy="216.9" rx="0.7" ry="0.8"/>
			<ellipse id="XMLID_174_" class="st8" cx="65.1" cy="212" rx="0.7" ry="0.8"/>
			<ellipse id="XMLID_173_" class="st8" cx="60.6" cy="226.4" rx="0.7" ry="0.8"/>
		</g>
		<g id="XMLID_459_">
			<path id="XMLID_172_" class="st4" d="M60.5,270.6h-11c-0.7-2.5,0.6-5.1,0.4-7.4c-0.4-3.8,1.4-1.7,1.4-1.7c0.3-4.1,4.9-4.9,4.9-3
				c-0.1,2.7,0.4,4.3,1,5.5c1.2,2.2,3.3,2.2,3.6,3.8c0,0.1,0.1,0.3,0.1,0.4C61.2,270.2,60.5,270.6,60.5,270.6z"/>
			<path id="XMLID_171_" class="st9" d="M60.8,268.2c-2.3,0.6-7.5-0.2-7.7-1.8c-0.2-1.6,2.6-2.3,4-2.4c1.2,2.2,3.3,2.2,3.6,3.8
				C60.8,267.9,60.8,268,60.8,268.2z"/>
		</g>
		<g id="XMLID_456_">
			<path id="XMLID_170_" class="st4" d="M15.3,163.9c-1.2-1.3-3.1,0.8-3.1,0.8s1,1.9,0.4,2.6c-0.7,0.7-1.4-1-2.7-0.2
				c-0.1,0-0.2,0.1-0.3,0.2c-1,0.7-2.1,2.3-2.9,3.5c-0.2,0.2-0.4,0.4-0.5,0.6c-1,1.3-3.5,2.1-4-1.4c-0.5-3.5,2.7-7.6,6.1-11.3
				s5.7-1.5,5.7-1.5s0.8,1.6,0.8,2.5c0,1,0.7,1.4,1.1,2.4C16.1,163.3,15.3,163.9,15.3,163.9z"/>
			<path id="XMLID_169_" class="st9" d="M9.6,167.5c-1,0.7-2.1,2.3-2.9,3.5c-1.3,0.4-2.4,0.2-2.6-1.2c-0.4-3.6,5.4-8.3,4.9-5.7
				C8.7,165.3,9.1,166.6,9.6,167.5z"/>
		</g>
	</g>
	<g id="XMLID_390_">
		<path id="XMLID_168_" class="st5" d="M213.1,264.6c-0.6-0.3-1-1.1-1.5-2.1c0,0-0.4-2.9,0-6c0.4-3.1-0.7-5.6-4.2-6.5
			c-3.4-0.9-5.4,1.1-4.6,9.6l0,0c-0.5,3.5-0.6,7.6,0.6,11h10.4C213.8,270.6,215.5,266.2,213.1,264.6z"/>
		<path id="XMLID_167_" class="st3" d="M222.2,218.7c0,0,0,8.5-3.8,17.2c-3.9,8.9-8.7,21.1-8.7,21.1s-3.2,3.9-5.3-2.6
			c0,0,1.4-22.6,4.7-30.9C212.5,215.2,222.2,218.7,222.2,218.7z"/>
		<path id="XMLID_166_" class="st3" d="M272.2,191c0,0,6.2,32.7,10.2,41.3c0,0-0.9,3.6-5.2,4.7c0,0-13.5-24.9-14.4-35.3
			C261.9,191.2,272.2,191,272.2,191z"/>
		<g id="XMLID_442_">
			<path id="XMLID_165_" class="st10" d="M275.2,198.7c-1.6,5-14.4,5.2-14.4,5.2l-1-1.8l-0.2-0.4l-2-3.7c0,0-21.1-26-25.2-23.8l0,0
				c-0.1,0-0.2,0.1-0.4,0.2c-2.8,2.5-3.1,16.4-6.4,39.6c-0.3,2.2-1,4.8-1.6,6.5c-0.1,0.2-0.1,0.4-0.2,0.5c-0.3,1-0.5,1.6-0.5,1.6
				c-12.9,6.5-17.1-6.4-17.1-6.4s0.2-0.4,0.4-1c0-0.1,0.1-0.3,0.2-0.4c0.7-1.8,1.8-5.1,1.8-6.8c0-1.9,0-3.7,0-5.4c0-0.1,0-0.3,0-0.4
				c0-5.6,0-10.4,0-14.7v-0.4c0-1.8,0-3.5,0.1-5.1v-0.4c0.1-7.3,0.3-12.3,0.5-15.5c0-0.1,0-0.3,0-0.4c0.4-5.5,0.7-6,0.7-6l-2.6-22.5
				h28.2c0,0,4.2,5.3,9.7,12.3c0.1,0.1,0.2,0.3,0.4,0.4c2,2.5,4.1,5.3,6.3,8.1c0.1,0.1,0.2,0.2,0.2,0.3c0.8,1.1,1.7,2.2,2.6,3.3
				c0.1,0.1,0.2,0.2,0.3,0.4c2.8,3.7,5.6,7.3,7.9,10.4c0.1,0.1,0.2,0.2,0.2,0.3c3.2,4.3,5.7,7.8,6.5,9.4c2.2,4.3,4,9.8,4.9,13.3l0,0
				c0,0.1,0.1,0.3,0.1,0.4C275,197.6,275.2,198.7,275.2,198.7z"/>
			<g id="XMLID_443_">
				<path id="XMLID_164_" class="st11" d="M213.9,163c-1.2,1.7-2.8,2.7-5,3.1c0-0.1,0-0.3,0-0.4c2-0.3,3.6-1.3,4.7-2.9
					c2-2.8,1.6-6.7,1.6-6.7l0.4,0C215.7,156,216,159.9,213.9,163z"/>
				<path id="XMLID_163_" class="st11" d="M245.4,149.9c-0.1,0-0.2,0-0.3,0c-3.1,0-6.4-4.3-6.6-4.5l0.2-0.3c0,0,3.3,4.3,6.3,4.4
					C245.1,149.6,245.3,149.7,245.4,149.9z"/>
				<path id="XMLID_162_" class="st11" d="M224,220.6c-0.1,0.2-0.1,0.4-0.2,0.5c-2.1,0.9-4,1.3-5.7,1.3c-5.6,0-9.4-4-11.6-7.1
					c0-0.1,0.1-0.3,0.2-0.4C209.4,219,215.2,224.9,224,220.6z"/>
				<path id="XMLID_161_" class="st11" d="M231.6,166.1c0.5,2.5,0.8,5.2,0.8,8.1c-0.1,0-0.2,0.1-0.4,0.2c0-13.2-6.1-23.5-6.2-23.6
					l0.3-0.2c0,0.1,3.7,6.2,5.4,15c0.7-0.6,1.2-1.4,1.4-2.5c0.9-4.6-3.1-12.2-3.1-12.2l0.3-0.2c0.2,0.3,4.1,7.8,3.2,12.6
					C233,164.5,232.4,165.5,231.6,166.1z"/>
				<path id="XMLID_160_" class="st11" d="M262.9,172.7c-1,1.4-2,2.6-2.1,2.7l-0.2,0.2l-0.1-0.3c-1.4-4.5-10.1-14.2-10.2-14.3
					l-0.1-0.1l1.5-3c0.1,0.1,0.2,0.2,0.2,0.3l-1.2,2.5c1.7,0.7,2.9,0.8,3.8,0.7c0.1,0.1,0.2,0.2,0.3,0.4c-0.3,0-0.6,0.1-0.9,0.1
					c-0.8,0-1.7-0.2-2.7-0.6c2,2.2,8.2,9.4,9.6,13.4c0.6-0.7,1.2-1.6,1.9-2.5C262.8,172.5,262.8,172.6,262.9,172.7z"/>
				<path id="XMLID_159_" class="st11" d="M214.8,202.7l-0.1,0c-0.1,0-1.7,0.4-3.5,0.4c-0.9,0-1.9-0.1-2.7-0.4c0-0.1,0-0.3,0-0.4
					c2.3,0.8,5.4,0.2,6.1,0l-0.6-18.2c-0.3,1-1,2.3-2.2,3.1c-0.6,0.3-1.2,0.5-2,0.5c-0.4,0-0.9,0-1.4-0.2v-0.4
					c1.2,0.3,2.2,0.2,3.1-0.3c1.5-0.9,2.1-2.9,2.2-3.6c-1.2,0.2-3.5-0.5-5.3-1.2v-0.4c1.9,0.7,4.5,1.6,5.5,1.1l0.2-0.1L214.8,202.7z
					"/>
				<path id="XMLID_158_" class="st11" d="M274.5,195.9c-2,2.5-6.2,6.3-12.6,6.3c-0.7,0-1.4,0-2.1-0.1l-0.2-0.4
					c7.8,1.1,12.6-3.4,14.8-6.2C274.4,195.6,274.4,195.8,274.5,195.9z"/>
			</g>
		</g>
		<path id="XMLID_157_" class="st12" d="M240.5,41.5c0,0-0.8-2.2-4.1-2.2c-2.5,0-3.5,1.7-3.5,1.7c-1.5,5.5-3.1,26.7-3.7,27.4
			c-0.3,0.4-19,16.2-19,16.2c10.2,0.2,16.5,15.9,16.5,15.9c0.3-5.1,11.8-25.6,11.9-27.4C238.9,69.7,243.8,54.4,240.5,41.5z"/>
		<path id="XMLID_156_" class="st12" d="M208,152c0,0-0.1,4.4,1,4.7c1.2,0.3,10.4,3.7,21.1-2.3s12.5-10.6,9.4-13.9
			C236.5,137.1,208,152,208,152z"/>
		<path id="XMLID_155_" class="st13" d="M203.8,87.7c0,0-9.7-1.4-15.3,1.6c0,0-1.6,8.6,6.1,28s5.9,31.5,14.5,36.1
			c7.7,4,30.2-8,30.9-12c1.8-10.1-12-27.8-12.9-38C226.3,92.9,218.2,77.5,203.8,87.7z"/>
		<path id="XMLID_154_" class="st12" d="M188.5,89.2c-6.8,3-14.4,12.6-14.4,17.2c0,4.6,6.4,6.4,6.4,6.4l10.4-6.4c0,0,3-2.6,1.1-10.2
			C190.1,88.5,188.5,89.2,188.5,89.2z"/>
		<g id="XMLID_436_">
			<path id="XMLID_153_" class="st5" d="M216.4,97.7c-2,0-4.5-0.9-6.1-2.3c-0.9-0.7-1.4-1.6-1.5-2.5c-0.4-3,2-4.5,2.1-4.6l0.3,0.8
				c-0.1,0-2,1.3-1.7,3.7c0.1,0.6,0.5,1.3,1.2,1.9c1.8,1.5,4.8,2.5,6.7,2c0.9-0.2,1.5-0.6,1.7-1.2c0.3-0.7,0-1.5,0-1.5l0.6-0.3
				c0,0,0.4,1.2-0.1,2.3c-0.4,0.8-1.1,1.4-2.2,1.6C217.2,97.7,216.8,97.7,216.4,97.7z"/>
		</g>
		<g id="XMLID_434_">
			<path id="XMLID_152_" class="st5" d="M207.8,106.9c-1.5,0-4-0.8-4.3-3.9c-0.2-1.5-0.1-2.9,0-4c0.2-1.7,0.3-3-0.5-4.6
				c-1.3-2.6-3.1-2.8-3.1-2.8l0-0.8c0.1,0,2.2,0.2,3.7,3.2c0.9,1.8,0.8,3.5,0.6,5.2c-0.1,1.1-0.2,2.3,0,3.8c0.4,3.3,3.8,3.1,3.9,3.1
				l0,0.8C208,106.9,207.9,106.9,207.8,106.9z"/>
		</g>
		<path id="XMLID_151_" class="st12" d="M209.9,91.3c0,0,5.1-4.4,3.9-9.1s-17.7-4.4-22,1.2c-4.3,5.7,9.2,9.4,9.2,9.4
			C202.1,90.2,208.7,89.9,209.9,91.3z"/>
		<path id="XMLID_150_" class="st14" d="M200.7,90.5c-2.4-1-3.9-3.2-3.3-5.8c0.5-2.5,11-2.6,13-0.6
			C212.3,86.2,209.5,94.3,200.7,90.5z"/>
		<path id="XMLID_149_" class="st2" d="M199.5,83.4c0,0,2.2,4.6,1.2,7.1c0,0,7.4,3.2,7.4-2c0,0-1.4-3.9-0.9-6.4L199.5,83.4z"/>
		<g id="XMLID_414_">
			<path id="XMLID_148_" class="st15" d="M197,79.4c0,0-3.6-7.3-3.3-14.2c0.2-3.5,1.6-4.8,1.6-4.8s-1.2-2,0.1-5.1
				c0,0,1.7,2.5,7.7,1.7c5.8-0.7,6.4,4.4,6.4,4.4c4.1,0.7,1.4,16.5-1.6,18.1L197,79.4L197,79.4z"/>
			<path id="XMLID_147_" class="st3" d="M195.5,72.6c0,0-2.1-2.6-2.4,0.4c-0.3,3.5,2.3,4.9,2.7,3.8
				C196.4,75.8,195.5,72.6,195.5,72.6z"/>
			<path id="XMLID_146_" class="st3" d="M210.1,72.8c0,0,2.1-2.6,2.4,0.4c0.3,3.5-2.3,4.9-2.7,3.8C209.2,76,210.1,72.8,210.1,72.8z"
				/>
			<path id="XMLID_145_" class="st3" d="M202.6,85.5c-4.6,0-7.3-3.8-7.3-15.2c0-5.8,2.4-9.5,7.6-9.5c5.2,0,7.4,3.6,7.4,9.5
				C210.3,82.5,207.4,85.5,202.6,85.5z"/>
			<path id="XMLID_144_" class="st6" d="M207.5,73.5c0.6-0.1,1.1,0.2,1.2,0.8c0.1,0.6-0.3,1.1-0.9,1.3c-0.6,0.1-1.1-0.2-1.2-0.8
				C206.5,74.2,207,73.7,207.5,73.5z"/>
			<path id="XMLID_143_" class="st6" d="M198.2,73.5c0.6,0,1,0.6,1,1.1c0,0.6-0.5,1-1.1,1c-0.6,0-1-0.6-1-1.1
				C197.1,73.9,197.6,73.5,198.2,73.5z"/>
			<g id="XMLID_423_">
				<path id="XMLID_142_" class="st15" d="M206.7,68.2c-0.1,0-0.1,0-0.2,0c-0.8-0.7-1.8-0.4-1.9-0.4c-0.1,0-0.2,0-0.3-0.2
					c0-0.1,0-0.3,0.2-0.3c0,0,1.3-0.3,2.2,0.5c0.1,0.1,0.1,0.3,0,0.4C206.8,68.2,206.8,68.2,206.7,68.2z"/>
			</g>
			<g id="XMLID_421_">
				<path id="XMLID_141_" class="st15" d="M197.8,68.3c0,0-0.1,0-0.2-0.1c-0.1-0.1-0.1-0.3,0-0.4c0.9-0.9,2.2-0.6,2.2-0.6
					c0.1,0,0.2,0.1,0.2,0.3c0,0.1-0.2,0.2-0.3,0.2c0,0-1.1-0.2-1.8,0.5C198,68.3,197.9,68.3,197.8,68.3z"/>
			</g>
			<ellipse id="XMLID_140_" class="st7" cx="205.7" cy="71.5" rx="0.6" ry="1.3"/>
			<ellipse id="XMLID_139_" class="st7" cx="199.5" cy="71.5" rx="0.6" ry="1.3"/>
			<path id="XMLID_138_" class="st15" d="M196.8,62.1c0,0,4.9,2.2,12,1.6c0,0,1.5,2.3,1.3,10.7c0,0,4.1-15-8-15
				c-12.1,0-6.7,14.6-6.7,14.6S194.5,64.9,196.8,62.1z"/>
			<g id="XMLID_416_">
				<path id="XMLID_137_" class="st6" d="M202.9,75.4l-0.4-0.4l0.9-1.1c-0.9-1.6-0.9-5.2-0.9-5.4h0.5c0,0,0,3.9,0.9,5.2l0.2,0.2
					L202.9,75.4z"/>
			</g>
			<path id="XMLID_136_" class="st7" d="M199.8,77.3c0,0,4.5,0.2,6.9-0.5c0,0,0.4,4.1-3.1,4.3C199.8,81.4,199.8,77.3,199.8,77.3z"/>
		</g>
		<path id="XMLID_135_" class="st5" d="M219.3,93c0.9-0.2,0.8,2.6,0,1.8C218.5,94,218.4,93.2,219.3,93z"/>
		<path id="XMLID_134_" class="st5" d="M208.8,106.8c-0.1,1.1-2.3,0-1.4-0.6C208.3,105.6,208.9,105.7,208.8,106.8z"/>
		<path id="XMLID_133_" class="st2" d="M199.4,112.8c0,0-1.4,4.4-1.3,6.9c0.1,2.5,0.7,2.2,0.7,2.2s-1,0.5-1.2,1.9s2.7,2.5,2.9,2.5
			s2.3-1,2.3-1l0.4-8.2l-1.8-1.4L199.4,112.8z"/>
		<path id="XMLID_132_" class="st3" d="M200.6,112.2c0,0,2.5,1.9,3.5,3.1c1,1.2,0.4,10.5,0,10.9c-0.4,0.4-3.6,1.3-4.2,0.8
			c-0.6-0.5,0.2-3.2,0.2-3.2s1.6-0.4,1.4,0.3c-0.2,0.7,0,1.4,0,1.4l0.7-0.3c0,0-0.3-2,0-3.6s-2.3-3.1-2.6-5.9
			C199.2,113,200.6,112.2,200.6,112.2z"/>
		<path id="XMLID_131_" class="st12" d="M174.5,107.7c-0.8-4.3,2.6-5.9,7.5-5.1c5.6,0.8,17,2.7,19.5,10.2c0,0,0.8,3-1.3,4.4
			C194.3,121.2,176,115.9,174.5,107.7z"/>
		<path id="XMLID_130_" class="st14" d="M191.9,104.8c0,0-6.7-3.4-10-3.8C178.6,100.6,186.5,104.3,191.9,104.8z"/>
		<g id="XMLID_405_">
			<path id="XMLID_129_" class="st3" d="M241.6,29.9c-0.5,0.7-1.3,3.5-1.3,3.5c-0.4,2.3-0.6,3.6-1.2,4.7c-0.6,1-0.3,2.9-0.3,2.9
				s-2.6,1.6-4.7-0.4c0,0,0.2-1.9,0-2.4c-0.4-1-1.8-1.6-2.3-3.8c-0.5-2.1-1.9-4.5-1.9-4.5s0.4-1.1,1.2-0.4c0.8,0.7,1.2,2.4,1.6,2.6
				c0.1,0,0.2,0,0.2,0c0,0,0,0,0,0c0.3,0,0.6,0,0.8-0.2l0,0c0.7-1,0.8-3.9,0.8-5.3c0-1.8,0-4.3,0.9-3.9c0.9,0.4,0.1,1.4,0.8,5.5
				l0.3,0c0.1,0.3,0.7-2.4,0.8-5c0.1-1.7,1-1.1,1.2-0.5c0.2,0.5-0.1,2.3-0.2,3.6c0,0.8-0.1,1.7-0.1,2.2l0.4,0.2
				c1.4-3,0.9-4.3,1.8-4.4c0.8,0,0.5,2.5,0.1,3.5c-0.2,0.4-0.4,1.3-0.5,2.2c1.4-2.1,1.3-3.2,2-3C242.8,27.2,242.2,29.2,241.6,29.9z"
				/>
			<path id="XMLID_128_" class="st2" d="M235.4,34.7c-0.5-1.7-2.2-2.4-2.4-2.5c0.3,0,0.6,0,0.8-0.2
				C235.5,32.9,235.4,34.7,235.4,34.7z"/>
		</g>
		<g id="XMLID_400_">
			<path id="XMLID_127_" class="st5" d="M205.2,257.8c0,0-1-2.4-0.1-3.5c0.9-1,1.9,0.9,3.3,0.4c1.5-0.4,1.8-1.7,2.2,0
				S210.5,262.1,205.2,257.8z"/>
			<path id="XMLID_126_" class="st0" d="M210.7,257.7c0,0-3.9,1.7-6,0l0.5,2.1c0,0,4.3,0.5,4.9-0.8L210.7,257.7z"/>
			<path id="XMLID_125_" class="st0" d="M210.7,260.3c0,0-3.6-0.6-5.3,0.5v1c0,0,4.7-1.4,6.2,0L210.7,260.3z"/>
			<path id="XMLID_124_" class="st0" d="M205.1,264.1c0,0,0.7-2.1,2.9-2.3c2.2-0.1,3.7,1.3,3.7,1.3S208.2,261.4,205.1,264.1z"/>
		</g>
		<g id="XMLID_393_">
			<path id="XMLID_123_" class="st5" d="M298,234.4c-6.9,11.6-16.3,13.8-16.3,13.8c-2.7-2.7-2.8-6-2.8-6s-2.6-2.9-3-4.3
				s2.3-5.7,3.8-5.2c1.1,0.3,1.7,1.4,2,2c-1.3-3.6-0.2-4.9,1.6-4.6c1.9,0.3,0.1,0.9,1.5,2.8c0.1,0.1,0.2,0.2,0.3,0.3
				c0.2,0.2,0.6,0.3,0.9,0.4c0.3,0,0.6,0.1,1,0c0.2,0,0.4,0,0.6,0c0.4,0,0.7-0.2,1.1-0.3c0.6-0.2,1.2-0.5,1.8-0.9
				c2.4-1.6,3.4-2.2,5.2-1.6c1.8,0.6,1.8,2.3,1.8,2.3L298,234.4z"/>
			<path id="XMLID_122_" class="st0" d="M298,234.4c-6.9,11.6-16.3,13.8-16.3,13.8c4.8-2.6,9.2-6,12.2-10.2
				C296.9,233.9,298,234.4,298,234.4z"/>
			<g id="XMLID_394_">
				<path id="XMLID_121_" class="st0" d="M285,233.2c0.2,0.2,0.6,0.3,0.9,0.4c-1.8,0.4-2,2.5-2,2.5l-0.8-0.3
					C283.4,233.4,284.9,233.2,285,233.2z"/>
				<path id="XMLID_120_" class="st0" d="M286.3,236.4l-0.8,0c-0.3-1.4,0.1-2.3,0.5-2.8c0.3,0,0.6,0.1,1,0
					C286,234.9,286.3,236.4,286.3,236.4z"/>
				<path id="XMLID_119_" class="st0" d="M288.3,235.9l-0.8,0.1c-0.3-1-0.2-1.8,0-2.3c0.4,0,0.7-0.2,1.1-0.3
					C287.9,234.6,288.3,235.9,288.3,235.9z"/>
			</g>
		</g>
		<path id="XMLID_118_" class="st12" d="M210.8,128.3c0,0,1.8,12.1-1.8,16.9c-3.6,4.8-1.2,0.8-0.2-5.3
			C209.9,133.7,209.1,127.1,210.8,128.3z"/>
		<path id="XMLID_117_" class="st12" d="M227.5,122.9c0,0,5.7,2.3,8.7,8.9C236.1,131.9,232.2,121.1,227.5,122.9z"/>
	</g>
	<g id="XMLID_350_">
		<g id="XMLID_387_">
			<path id="XMLID_116_" class="st3" d="M79.5,33.1c0.8,0,2.9,1.1,2.9,1.1c1.6,1.2,2.5,1.9,3.6,2c1.1,0.1,1.5,2.4,1.5,2.4
				s4.2,1.1,4.5-2.2c0,0-2.4-4.2-2.5-4.7c-0.3-1.1,0.3-2.8-0.7-4.7c-1-1.9-1.4-4.8-1.4-4.8s-0.9-0.3-1,0.8s0.6,2.7,0.4,3.2
				c0,0.1-0.1,0.2-0.1,0.3c0,0,0,0,0,0c-0.2,0.3-0.4,0.5-0.7,0.6c0,0,0,0-0.1,0c-1,0-2.9-1.8-3.7-2.8c-1-1.2-2.6-2.9-2.9-1.8
				c-0.4,1.1,0.8,1,2.7,4.4l-0.2,0.3c0.1,0.2-1.9-1-3.5-2.6c-1.1-1.1-1.4,0.2-1.2,0.7c0.2,0.5,1.4,1.4,2.2,2.2
				c0.5,0.5,1.1,1,1.4,1.4l-0.1,0.5c-2.7-0.7-3.2-2-3.8-1.3c-0.6,0.7,1.2,2.2,2,2.4c0.4,0.1,1,0.5,1.6,1c-2.2,0-2.7-0.9-3.1-0.2
				C77.1,32.3,78.7,33.1,79.5,33.1z"/>
			<path id="XMLID_115_" class="st2" d="M86.5,30.6c-0.7-1.6,0-3.7,0.1-4c-0.2,0.3-0.4,0.5-0.7,0.6C85.3,29.4,86.5,30.6,86.5,30.6z"
				/>
		</g>
		<g id="XMLID_384_">
			<path id="XMLID_114_" class="st3" d="M203.5,33.1c-0.8,0-2.9,1.1-2.9,1.1c-1.6,1.2-2.5,1.9-3.6,2c-1.1,0.1-1.5,2.4-1.5,2.4
				s-4.2,1.1-4.5-2.2c0,0,2.4-4.2,2.5-4.7c0.3-1.1-0.3-2.8,0.7-4.7c1-1.9,1.4-4.8,1.4-4.8s0.9-0.3,1,0.8c0.1,1.1-0.6,2.7-0.4,3.2
				c0,0.1,0.1,0.2,0.1,0.3c0,0,0,0,0,0c0.2,0.3,0.4,0.5,0.7,0.6c0,0,0,0,0.1,0c1,0,2.9-1.8,3.7-2.8c1-1.2,2.6-2.9,2.9-1.8
				s-0.8,1-2.7,4.4l0.2,0.3c-0.1,0.2,1.9-1,3.5-2.6c1.1-1.1,1.4,0.2,1.2,0.7c-0.2,0.5-1.4,1.4-2.2,2.2c-0.5,0.5-1.1,1-1.4,1.4
				l0.1,0.5c2.7-0.7,3.2-2,3.8-1.3c0.6,0.7-1.2,2.2-2,2.4c-0.4,0.1-1,0.5-1.6,1c2.2,0,2.7-0.9,3.1-0.2
				C205.9,32.3,204.3,33.1,203.5,33.1z"/>
			<path id="XMLID_113_" class="st2" d="M196.5,30.6c0.7-1.6,0-3.7-0.1-4c0.2,0.3,0.4,0.5,0.7,0.6C197.6,29.4,196.5,30.6,196.5,30.6
				z"/>
		</g>
		<path id="XMLID_112_" class="st1" d="M166.5,193.2l-8.1-62.8l-16.2,2.2l-16.2-2.2l-8.1,62.8l-3.9,61c0,0,1.2,5,9.3,1.5
			c0,0,6-56.5,6.9-57.8c0.9-1.2,10.4-38.1,10.4-38.1h3c0,0,9.5,36.9,10.4,38.1s6.9,57.8,6.9,57.8c8.1,3.5,9.3-1.5,9.3-1.5
			L166.5,193.2z"/>
		<path id="XMLID_111_" class="st16" d="M137,69.6c1,1.2,6.1,3.5,8.7,0l1.8,2.2c0,0-2.1,6-5.7,6.3c-3.6,0.2-6.2-5.4-6.2-5.4
			L137,69.6z"/>
		<path id="XMLID_110_" class="st16" d="M151.3,68.9c6-3.2,25.5-11.9,25.5-11.9s13.1-20.6,15.8-23.6c0,0,2.9,0.6,3.7,5.2
			c0,0-8.4,22.6-13,29.1s-27.8,20.5-27.8,20.5L151.3,68.9z"/>
		<path id="XMLID_109_" class="st15" d="M130.2,68.4C132,67,141,74.6,141,74.6s11.7-7.8,14.5-6.3c0,0,2.5,4.1,3.5,14.8
			c1,10.7,1,54.6,1,54.6s-7.9,3.5-18.5,3.5c-12.2,0-18.7-4.3-18.7-4.3S120.6,76,130.2,68.4z"/>
		<path id="XMLID_108_" class="st2" d="M137.5,67.3c0,0,1.3,5.1,0,7.1c0,0,1.4,3.5,3.8,3.7c2.8,0.2,3.8-3.7,3.8-3.7s-1.5-4.9,0-6.7
			L137.5,67.3z"/>
		<g id="XMLID_362_">
			<path id="XMLID_107_" class="st10" d="M134.3,62.2c0,0-2.7-6.6-2.2-13.6c0.6-7,9-8.6,14.7-5.2c0,0-1.7-2.1-1-2.6
				c0.7-0.6,1.8,3.1,1.8,3.1s1.8-0.7,2.1,0c0.3,0.7-1.8,1-1.8,1s3.7,2.5,0.2,16.2L134.3,62.2z"/>
			<path id="XMLID_106_" class="st3" d="M133.9,58.1c0,0-2-2.5-2.3,0.4c-0.3,3.4,2.2,4.8,2.7,3.7C134.8,61.1,133.9,58.1,133.9,58.1z
				"/>
			<path id="XMLID_105_" class="st3" d="M148.1,58.3c0,0,2-2.5,2.3,0.4c0.3,3.4-2.2,4.8-2.7,3.7C147.2,61.3,148.1,58.3,148.1,58.3z"
				/>
			<path id="XMLID_104_" class="st3" d="M140.8,70.6c-4.5,0-7.1-3.7-7.1-14.8c0-5.7,2.3-9.2,7.4-9.2s7.2,3.5,7.2,9.2
				C148.3,67.7,145.4,70.6,140.8,70.6z"/>
			<path id="XMLID_103_" class="st6" d="M145.6,58.9c0.6-0.1,1.1,0.2,1.2,0.8s-0.3,1.1-0.9,1.3c-0.6,0.1-1.1-0.2-1.2-0.8
				C144.6,59.6,145,59.1,145.6,58.9z"/>
			<path id="XMLID_102_" class="st6" d="M136.5,58.9c0.6,0,1,0.6,1,1.1c0,0.6-0.5,1-1.1,1s-1-0.6-1-1.1
				C135.5,59.3,136,58.9,136.5,58.9z"/>
			<g id="XMLID_371_">
				<path id="XMLID_101_" class="st10" d="M144.7,54c0,0-0.1,0-0.2-0.1c-0.6-0.8-1.7-0.8-1.8-0.8c-0.1,0-0.2-0.1-0.2-0.2
					s0.1-0.3,0.2-0.3c0,0,1.3,0,2.1,0.9c0.1,0.1,0.1,0.3,0,0.4C144.8,54,144.8,54,144.7,54z"/>
			</g>
			<g id="XMLID_369_">
				<path id="XMLID_100_" class="st10" d="M136.2,54c0,0-0.1,0-0.2-0.1c-0.1-0.1-0.1-0.3,0-0.4c0.8-1,2-0.9,2.1-0.9
					c0.1,0,0.2,0.1,0.2,0.3c0,0.1-0.1,0.3-0.2,0.2c0,0-1.1,0-1.8,0.8C136.4,54,136.3,54,136.2,54z"/>
			</g>
			<ellipse id="XMLID_99_" class="st7" cx="143.8" cy="57" rx="0.6" ry="1.2"/>
			<ellipse id="XMLID_98_" class="st7" cx="137.7" cy="57" rx="0.6" ry="1.2"/>
			<path id="XMLID_97_" class="st7" d="M138.3,64.5c0,0,4,0.6,6-0.6c0,0-1.2,3.4-3.3,3.1C138.8,66.7,138.3,64.5,138.3,64.5z"/>
			<path id="XMLID_96_" class="st10" d="M147.8,59.5c0,0-0.2-6.1-2.1-10.9c0,0-3.4,1.9-4.1,1.5c-0.8-0.4,0.7-1.5,0.7-1.5
				s-5.6,2.3-5.9,1.8c-0.3-0.4,1.8-1.8,1.8-1.8l-3.5,1.5c0,0-1.1,5.5-0.6,9.4c0,0-1.5-3.2-1.7-5.4c-0.2-2.2,0.6-8.5,5.8-9
				c5.2-0.4,8.2,1,9.4,4C149.1,52.1,148.9,55.8,147.8,59.5z"/>
			<g id="XMLID_363_">
				<path id="XMLID_95_" class="st6" d="M141.6,62.7c-0.4,0-0.9-0.1-1-0.2l0.1-0.6c0.5,0.1,1.2,0.2,1.4,0c0-0.1,0-0.3-0.1-0.5
					c-0.6-1.7-0.8-6.1-0.8-6.3h0.5c0,0,0.1,4.4,0.8,6.1c0.2,0.5,0.2,0.9,0,1.2C142.3,62.6,141.9,62.7,141.6,62.7z"/>
			</g>
		</g>
		<path id="XMLID_94_" class="st17" d="M146.6,71.2c0,0,8.2,31.8,9,57.7c0,0,2.9,1,6.3-4.6c3.3-5.7,1.4-50.6-5-58.1
			C156.8,66.2,153.9,65.3,146.6,71.2z"/>
		<path id="XMLID_93_" class="st16" d="M147.9,76.8c0,0,1.5-4.2,0.8-7.2s-2.9,0-2.9,0S146.7,74.4,147.9,76.8z"/>
		<path id="XMLID_92_" class="st16" d="M131.5,68.9C125.5,65.6,106,57,106,57S92.8,35.8,90.2,32.8c0,0-3.3,2.3-3.5,7.2
			c0,0,8.2,21.2,12.8,27.7c4.6,6.5,27.8,20.5,27.8,20.5L131.5,68.9z"/>
		<path id="XMLID_91_" class="st17" d="M136.2,71.2c0,0-8.2,31.8-9,57.7c0,0-2.9,1-6.3-4.6c-3.3-5.7-1.4-50.6,5-58.1
			C126,66.2,128.9,65.3,136.2,71.2z"/>
		<path id="XMLID_90_" class="st16" d="M134.9,76.8c0,0-1.5-4.2-0.8-7.2c0.7-2.9,2.9,0,2.9,0S136.1,74.4,134.9,76.8z"/>
		<g id="XMLID_354_">
			<path id="XMLID_89_" class="st11" d="M177.6,270.6h-16.2c-1.1-8.1,0.7-16.2,0.7-16.2l7.4-1.6c0.7,5.1,1.5,7.1,2.6,8.2l0,0
				c0.8,0.7,1.8,1,3,1.5c1.4,0.6,2.2,1.7,2.5,2.9C178.3,267.8,177.6,270.6,177.6,270.6z"/>
			<path id="XMLID_88_" class="st10" d="M177.6,265.4c-4,0.6-12.8,1.7-12.3-1.2c0.4-2.4,4.1-3.1,6.7-3.2l0,0c0.8,0.7,1.8,1,3,1.5
				C176.5,263.1,177.2,264.2,177.6,265.4z"/>
		</g>
		<g id="XMLID_351_">
			<path id="XMLID_87_" class="st11" d="M123.2,270.6H107c0,0-0.5-1.9-0.3-3.9c0.2-1.6,0.9-3.3,2.7-4.2c1.4-0.6,2.5-0.8,3.4-1.9
				c1-1.1,1.7-3.2,2.3-7.8l7.4,1.6C122.5,254.4,124.3,262.5,123.2,270.6z"/>
			<path id="XMLID_86_" class="st10" d="M106.7,266.7c0.2-1.6,0.9-3.3,2.7-4.2c1.4-0.6,2.5-0.8,3.4-1.9c2.1,0.8,4.9,2.2,5.8,4.4
				C119.9,268.1,110.4,267.6,106.7,266.7z"/>
		</g>
	</g>
	<g id="XMLID_306_">
		<g id="XMLID_345_">
			<path id="XMLID_85_" class="st4" d="M239.8,269.1c0,0.8-0.1,1.4-0.1,1.4H220c0-0.5,0-1,0-1.4c0.2-6.4,1.8-12.1,1.8-12.1l4.9-2.6
				c0.4,3.2,1.5,5.2,2.9,6.5c0.4,0.3,0.8,0.6,1.1,0.9c0.2,0.1,0.4,0.2,0.6,0.3c0.4,0.2,0.8,0.4,1.3,0.6c1.8,0.6,3.5,0.8,4.7,1
				C239.4,264.2,239.8,267.3,239.8,269.1z"/>
			<path id="XMLID_84_" class="st18" d="M239.8,269.1c0,0.8-0.1,1.4-0.1,1.4H220c0-0.5,0-1,0-1.4H239.8L239.8,269.1z"/>
			<path id="XMLID_83_" class="st18" d="M230.8,261.8l-2.7,1.1l-0.6-1.2l2.2-0.7C230,261.3,230.4,261.6,230.8,261.8z"/>
			<path id="XMLID_82_" class="st18" d="M232.6,262.8l-1.8,1.5l-1.1-0.5l1.7-1.5C231.8,262.4,232.2,262.6,232.6,262.8z"/>
		</g>
		<g id="XMLID_340_">
			<path id="XMLID_81_" class="st4" d="M164.4,269.1c0,0.8-0.2,1.4-0.2,1.4H151c-0.2-0.5-0.3-0.9-0.4-1.4
				c-1.3-7.9,7.5-17.5,7.5-17.5l2.8,4.6c0,0-0.3,7.4,2,8.9C164.3,266.1,164.5,267.9,164.4,269.1z"/>
			<path id="XMLID_80_" class="st18" d="M150.7,269.1h13.7c0,0.8-0.2,1.4-0.2,1.4H151C150.9,270.1,150.7,269.6,150.7,269.1z"/>
			<path id="XMLID_79_" class="st18" d="M162.3,264.6c0,0-5.5-1.6-8,0.4v-1.1C154.2,263.9,158.9,261.1,162.3,264.6z"/>
			<path id="XMLID_78_" class="st18" d="M161.2,262.8c0,0-3.5-2-7,0l0.4-1.1C154.6,261.7,158.8,259.7,161.2,262.8z"/>
		</g>
		<path id="XMLID_77_" class="st19" d="M233.8,199.1c0,6.6-4.7,60.6-4.7,60.6c-4.7,0.6-8.4-0.6-8.4-0.6c-1.3-27.4-1.4-50.9-1.4-50.9
			l-22.5-21.1l0,0c0,0-0.1,0.5-0.2,1.3c-1.1,6.2-5.8,32.1-7.8,38c-2.2,6.8-26.7,35.2-26.7,35.2c-4.5-0.8-8.4-4.9-8.4-4.9
			c8.8-18.2,20.7-36.5,20.7-36.5c0.9-6.6,1.6-21.2,2-32.1c0-0.1,0-0.3,0-0.5c0.3-7.4,0.4-13,0.4-13l-4.1-10.6l26.2-12l5.9,9.4
			c0,0,1.4,1.5,3.5,4c0.1,0.1,0.2,0.2,0.3,0.3C216.3,175.2,233.8,196.1,233.8,199.1z"/>
		<g id="XMLID_335_">
			<path id="XMLID_76_" class="st8" d="M176.4,188.2c0-0.1,0-0.3,0-0.5c5.5-3.7,4.6-9.7,4.6-9.8l0.4-0.1
				C181.3,177.9,182.3,184.3,176.4,188.2z"/>
			<path id="XMLID_75_" class="st8" d="M196.4,182.9c0.2,1.3,0.3,2.7,0.4,4.2l0,0c0,0-0.1,0.5-0.2,1.3c-0.2-10.2-3.6-16.3-3.7-16.4
				l0.3-0.2c0,0,2.2,3.9,3.2,10.6c4-4.4,0.1-13.5,0-13.6l0.3-0.2C196.7,168.7,200.8,178.3,196.4,182.9z"/>
			<path id="XMLID_74_" class="st8" d="M208.4,165.9L208.4,165.9c-0.2,0.1-0.4,0.1-0.6,0.1c-1.9,0-5.2-3.4-5.3-3.5l0.2-0.3
				c1,1.1,4,3.8,5.4,3.4C208.2,165.6,208.4,165.8,208.4,165.9z"/>
		</g>
		<path id="XMLID_73_" class="st0" d="M174.5,107.7c0,0,8-1.6,12,1.6c4,3.2,9.2,11.5,9.2,11.5s-6.2,1-6.9,6.3
			C188.8,127.1,184.2,113.6,174.5,107.7z"/>
		<path id="XMLID_72_" class="st5" d="M162.5,112.9c-3.4,2.3-9,10.8-9.2,16.1c-0.2,5.1,2.8,9.9,4.8,13.9c6.4,12.5,13.1,23.6,16,38.3
			c0,0.1,14.6,7.3,31.8-18.5c0,0-9.7-16.3-13-30.2c-1.4-5.6-2.7-11.7-5.4-16.6c-2.9-5.5-7.8-8.7-13-8.2
			C170.1,108.1,165.8,110.6,162.5,112.9z"/>
		<path id="XMLID_71_" class="st2" d="M161.1,107.6c0,0,2.2,4.6,1.2,7.1c0,0,7.4,3.2,7.4-2c0,0-1.4-3.9-0.9-6.4L161.1,107.6z"/>
		<path id="XMLID_70_" class="st2" d="M177.5,139.2c0,0-4.1,1.4-5.1,3.3c-1,1.8-2,5.9-2,5.9h7.1l1.4-3.1l1.6-4.1L177.5,139.2z"/>
		<g id="XMLID_311_">
			<path id="XMLID_69_" class="st4" d="M170.7,102.5c0,0,2.9-1.5,1-12.4c-1.2-7.2-3-8.3-4.2-8.3c0,0-1.4-2.6-6.3-1.4
				c-3.3,0.8-6,3.4-7.2,8.1c-1.2,4.9,1.2,15.5,4.5,16.5L170.7,102.5z"/>
			<path id="XMLID_68_" class="st3" d="M171.4,95.1c0,0,1.8-3.2,2.5,0c0.8,3.6-1.7,5.6-2.4,4.6C170.9,98.6,171.4,95.1,171.4,95.1z"
				/>
			<path id="XMLID_67_" class="st3" d="M156.2,98.5c0,0-2.6-2.3-2.4,0.9c0.2,3.7,3,4.7,3.4,3.4C157.6,101.6,156.2,98.5,156.2,98.5z"
				/>
			<path id="XMLID_66_" class="st3" d="M165.8,110c4.8-1,7.1-5.5,5.5-17.4c-0.8-6.1-3.8-9.3-9.2-8.2c-5.4,1.1-7.2,5.3-6.4,11.5
				C157.3,108.6,160.8,111,165.8,110z"/>
			<path id="XMLID_65_" class="st6" d="M158.9,100.9c-0.6,0-1.1-0.5-1.1-1.2s0.5-1.1,1.1-1.1c0.6,0,1.1,0.5,1.1,1.2
				S159.5,100.9,158.9,100.9z"/>
			<path id="XMLID_64_" class="st6" d="M169.1,98.8c-0.6,0.2-1.2-0.2-1.3-0.8c-0.1-0.6,0.3-1.3,0.9-1.4c0.6-0.2,1.2,0.2,1.3,0.8
				S169.7,98.7,169.1,98.8z"/>
			<g id="XMLID_323_">
				<path id="XMLID_63_" class="st7" d="M159.2,93.1c0,0-0.1,0-0.1,0c-0.1-0.1-0.2-0.3-0.1-0.4c0.7-1.2,2-1.5,2.1-1.5
					c0.2,0,0.2,0.1,0.3,0.2c0,0.1-0.1,0.3-0.2,0.3c0,0-1.2,0.2-1.8,1.2C159.3,93.1,159.3,93.1,159.2,93.1z"/>
			</g>
			<g id="XMLID_321_">
				<path id="XMLID_62_" class="st7" d="M168.3,91.2c0,0-0.1,0-0.2,0c-0.8-0.7-2-0.4-2-0.4c-0.1,0-0.3-0.1-0.3-0.2
					c0-0.1,0.1-0.3,0.2-0.3c0,0,1.4-0.3,2.4,0.5c0.1,0.1,0.1,0.3,0,0.4C168.4,91.2,168.4,91.2,168.3,91.2z"/>
			</g>
			<path id="XMLID_61_" class="st7" d="M160.8,97.5c-0.3,0.1-0.7-0.5-0.8-1.3s0.1-1.4,0.4-1.5c0.3-0.1,0.7,0.5,0.8,1.3
				C161.3,96.8,161.1,97.5,160.8,97.5z"/>
			<path id="XMLID_60_" class="st7" d="M167.3,96.2c-0.3,0.1-0.7-0.5-0.8-1.3s0.1-1.4,0.4-1.5c0.3-0.1,0.7,0.5,0.8,1.3
				C167.8,95.5,167.6,96.1,167.3,96.2z"/>
			<path id="XMLID_59_" class="st7" d="M168.3,101.8c0,0-4.2,1.4-6.5,0.8c0,0,1.6,2.5,3.9,1.8C168,103.7,168.3,101.8,168.3,101.8z"
				/>
			<path id="XMLID_58_" class="st1" d="M168.5,87.1c0,0-5.5,4.9-12.3,5.3l0.2,7.6c0,0-6.4-14.7,6.3-17.3c12.6-2.6,9,13.8,9,13.8
				S171.2,89.5,168.5,87.1z"/>
			<g id="XMLID_315_">
				<path id="XMLID_57_" class="st6" d="M164.1,99.7l0-0.6c0,0,0.7,0,0.9-0.6c0.1-0.2-0.2-1-0.5-1.6c-0.4-0.9-0.8-2-1-3.3l0.5-0.1
					c0.2,1.1,0.6,2.2,1,3.1c0.4,0.9,0.7,1.6,0.5,2.2C165.1,99.6,164.1,99.7,164.1,99.7z"/>
			</g>
			<path id="XMLID_56_" class="st12" d="M171.5,87.2c-9.2-5-17.9,5.3-17.9,5.3s-1-8.4,0.8-10.3c0.5-0.5,1-0.9,1.5-1.3
				c4.1-3.2,9.4-3.1,11.9-2c0.5,0.2,0.9,0.5,1.1,0.8C170.3,81.4,171.5,87.2,171.5,87.2z"/>
			<path id="XMLID_55_" class="st5" d="M170.3,85.3c0,0-7.7-1.9-14.9,4c0,0-0.5-5.4,0.4-8.5c4.1-3.2,9.4-3.1,11.9-2
				C169.2,80.8,170.3,85.3,170.3,85.3z"/>
			<path id="XMLID_54_" class="st14" d="M154.4,91.5c0,0,1.2-6.5,2.9-8.3c2.7-3,10.4-4.1,14.5-2.2c4,1.8,0,7.4,0,7.4
				S165.3,82.5,154.4,91.5z"/>
		</g>
		<path id="XMLID_53_" class="st3" d="M166.3,134.7c0,0,3.1,6.1,8.5,9.7c0,0,6.7-7.3,15.4-6.6c0,0-7.2,16.3-13.4,18.1
			c-3.3,0.9-15-8.8-15-8.8S164.1,136.7,166.3,134.7z"/>
		<path id="XMLID_52_" class="st0" d="M154.7,123.6c2.9-5.9,9.5,2.8,11.8,9c2.3,6.2,3.9,7.5,3.9,7.5s-6.7,3.5-6.6,9.7
			C163.8,149.9,148.4,136.5,154.7,123.6z"/>
		<path id="XMLID_51_" class="st2" d="M174.8,141.7c0,0,4.1-5,17.3-11.5l-1.7-6.8c1.5-2.5,4.3-2.5,4.3-2.5s6.8,12.1,5.7,15.7
			C199.7,138.9,185.5,141.3,174.8,141.7z"/>
		<path id="XMLID_50_" class="st3" d="M189.4,131.9c0,0,0.1-0.7,0.6-1.6c0.5-0.8,0.4-2.4,0.5-2.9c0.2-0.5,1.2-2.5,1.9-2.9
			c0.7-0.4,1.6-1,1.8,0.1c0.2,1.1-1.2,0.8-1.9,2.4c0,0,1.4-0.5,2.6-0.2c1.1,0.3,1.4,1.6,0,1.6c-1.1,0-2.5,0.9-2.5,0.9
			s1.4,0.2,1.2,1.1C193.3,131.5,191.5,130.8,189.4,131.9z"/>
	</g>
	<g id="XMLID_243_">
		<path id="XMLID_49_" class="st20" d="M91,154.6c1.2,3.8,6.1,10.3,6.1,10.3s11.9-8.9,17.4-5.2c5.5,3.7,9.8,6,13.4,4.4
			c3.5-1.6-11.7-36.4-11.7-36.4l-19.8-9.5c0,0-0.4,6.3-2.7,7.4s-4.7,11.5-4.5,13.4C89.3,141.1,91,154.6,91,154.6z"/>
		<path id="XMLID_48_" class="st2" d="M113.2,165.2c0,0-5.1,12.5-15.7,28.6c0,0-1.1,19.1-29,49.1l-2.9-2.9c0,0,16.6-32.5,19.9-42.6
			c3.3-10-1.8-19.1,13.4-44.4L113.2,165.2z"/>
		<path id="XMLID_47_" class="st11" d="M97,143c-4.4,10.5-5.9,24-5.9,24l-2,6.3c0,0,7.1,4.8,15.3,6.5l3.3-10.9L97,143z"/>
		<path id="XMLID_46_" class="st3" d="M119.9,164.2c0,0,2.2,13.8,1.8,34.6c0,0,8.6,15.8,1.5,61.1h-3.7c0,0-3-38.4-5.3-48.9
			c-2.3-10.4-10.9-13.6-11.4-45.3L119.9,164.2z"/>
		<g id="XMLID_297_">
			<path id="XMLID_45_" class="st10" d="M122.1,179c0,0-7,1.5-19.3,0.8l-0.2-1.7l0-0.4l-1.3-11.2c0,0-1.2-1.8-2.4-4.8
				c-0.2-0.3-0.3-0.7-0.4-1.1c-1.7-4.4-3.1-10.8-1.5-17.6l2.6,0.1l0.4,0l8.7,0.5l0.4,0l2.9,0.1l0.4,0l1.8,0.1c0,0,9.4,10.6,7.7,30.3
				l0.1,2.7v0.4L122.1,179z"/>
			<g id="XMLID_298_">
				<path id="XMLID_44_" class="st11" d="M100,143.2c-0.2,0.9-1.9,7.5-1.1,18.5c-0.2-0.3-0.3-0.7-0.4-1.1c-0.6-10,0.8-16.2,1.1-17.4
					c0-0.1,0.1-0.2,0.1-0.2l0.3,0.1C100,143.1,100,143.1,100,143.2z"/>
				<path id="XMLID_43_" class="st11" d="M122,177.4c-2.5,0.8-6.7,1-10.6,1c-3.6,0-7-0.2-8.8-0.3l0-0.4c3.1,0.2,11.4,0.6,16.7-0.1
					l-0.4-7c0.1-8.2-1.9-15.2-3.8-20c-4.8-1.1-6.2-5.6-6.5-6.8c0-0.2-0.1-0.3-0.1-0.3l0.4,0c0,0,0,0.1,0.1,0.4
					c0.3,1.3,1.6,5.2,5.9,6.3c-1.3-3.1-2.5-5.3-3-6.1c-0.2-0.2-0.2-0.4-0.2-0.4l0.3-0.3c0,0,0.2,0.2,0.4,0.7
					c1.6,2.7,7.1,13.1,6.9,26.6l0.4,7c0.9-0.1,1.8-0.3,2.4-0.5L122,177.4z"/>
			</g>
		</g>
		<path id="XMLID_42_" class="st19" d="M104.2,95.7c-2.8-1.9-22.8,7.9-22.8,7.9s-2.9,6.6-1.1,9.2c1.8,2.6,8.4,1.4,10.4,0
			c2-1.4,7.3-2.5,7.3-2.5L104.2,95.7z"/>
		<path id="XMLID_41_" class="st13" d="M121.9,74.9c0,0,4.1,2,5.6,7.9c1.5,5.9-3,21-1.4,28s1.3,20-3.5,22.8
			c-4.9,2.7-14.9-2.2-17-9.7c-2.2-7.5-1.2-36.2,2.9-45.9C112.6,68.1,120.9,73,121.9,74.9z"/>
		<path id="XMLID_40_" class="st19" d="M117.1,100.5c1.1,1.4,3.9-1.1,3.9-1.1s0,13-3.1,14c-3,1-10.7-10.2-10.4-13.3
			C107.9,97,114.8,97.3,117.1,100.5z"/>
		<path id="XMLID_39_" class="st1" d="M105.6,97.3c0,0,3,3.2,8.4,4.8c5.3,1.5,8.2-1.6,10.9,2.7c4.1,6.4-2.6,18.3-6.1,24.5
			c-1.3,2.3-4.1,8.6-4.6,14.8c0,0-9.2,3.3-17.2-1l-0.6-14.2C96.4,128.8,91.4,109.8,105.6,97.3z"/>
		<path id="XMLID_38_" class="st19" d="M115.1,111.1c0,0,4.2-12.6,5.4-13.4c1.2-0.8,4.3,1.1,4.9,2.8c0.6,1.7,0,5.5,0,5.5
			S122.1,101.3,115.1,111.1z"/>
		<path id="XMLID_37_" class="st8" d="M135.2,164.2c-1.9,4.9-6.6,6.3-6.6,6.3s-0.4-0.7-1-1.9c-0.1-0.1-0.1-0.2-0.2-0.4
			c-3.7-7.5-15-31.5-14.8-44c0.2-14.9,8-23.1,8-23.1c3.9,1.2,5.2,2.5,5.2,2.5s1.3,8.5,0.1,18.7c-1.2,10.2-3.4,12.9-2.3,13.7
			c1.1,0.7,0,2.3,0,2.3s6.5,11.4,7.8,15c0.8,2.3,2.2,6.2,3,8.7c0,0.1,0.1,0.3,0.2,0.5C135,163.5,135.2,164.2,135.2,164.2z"/>
		<path id="XMLID_36_" class="st3" d="M123.8,103.6c0,0-4.7,4.3-2,11l13,16.9c-7.1,9.5-7.9,13.4-13,17.8l2,3.8
			c0,0,18.1-17.4,18.1-21.6C142,129.6,130.9,107.7,123.8,103.6z"/>
		<path id="XMLID_35_" class="st3" d="M121.6,149.3c0,0-2.5,0.3-4,0.8c-1.6,0.5-3.6,1-3.7,1.4s3.4,0,3.4,0s-2.9,1.4-2.9,2
			c-0.1,0.5,3.6-0.4,3.6-0.4s-2.4,1.8-2.2,2.3c0.1,0.5,3-0.7,3-0.7s-0.5,1.7-1.1,2.5c0,0,0.6,0.4,1.7-1.2c1.1-1.6,2.9-1,4.4-2.4
			C125.2,152.1,122.9,149.1,121.6,149.3z"/>
		<path id="XMLID_34_" class="st8" d="M108.3,99.4c0,0-3.6,2.9-5.8,9.9c-2.3,7-9.4,20.1-11,23.5c-1.7,3.4-0.5,21.9-0.5,21.9
			s-2.1-11.2-3-15.6c-0.9-4.3,3-15.1,3.6-15.7c0.6-0.5,3.6,0.5,3-3.9c-0.6-4.4,7.5-23.2,9.7-23.8C104.2,95.7,107.7,96.5,108.3,99.4z
			"/>
		<path id="XMLID_33_" class="st8" d="M97.3,100.3c-0.1,0.1-0.1,0.3-0.2,0.4c-0.8,1.4-2.3,2.6-2.3,2.6s-2.7,4.8-2.7,5.3
			c0,0.4-4.7,4.7-6.8,4.6l0,0c-0.3,0-0.5-0.1-0.7-0.3c-1.2-1.4,4.2-13.8,5.4-16.4c0.1-0.1,0.1-0.3,0.2-0.4c0,0,0-0.1,0-0.1
			s-1-4.5,3.1-3.6c3.3,0.7,4,4,4.3,6.2C97.6,99.3,97.5,99.8,97.3,100.3z"/>
		<path id="XMLID_32_" class="st3" d="M83.3,105c2.7-4.5,12.4-13.3,17.5-15.9l1.3,3c0,0-9.9,10.9-12.2,15.5c-2.3,4.6-5.2,6.6-7.9,5
			C79.2,111,82.7,105.9,83.3,105z"/>
		<path id="XMLID_31_" class="st19" d="M96.3,99.4l-0.5,0.7l-0.3,0.4l-0.9,1.2c0,0-2.2,3.3-2.1,4.6c0.1,0.9-4.1,5.2-7.4,7
			c-1.3,0.7-2.5,1-3.2,0.5c-2.4-1.7-1.8-6.8-0.5-10.3c1.2-3,6.3-6.9,7.7-7.9c0.2-0.1,0.3-0.2,0.3-0.2l0,0l0.5-2.4
			c0,0,1.8-1.3,3.2-0.5c0,0-3.1,0.1-2.6,1.7C91.1,95.7,95.5,99.3,96.3,99.4z"/>
		<g id="XMLID_281_">
			<path id="XMLID_30_" class="st3" d="M107.7,86.8c-3.1,1.6-2.7,5.2-5.6,5.2c-1.8,0-2-2.5-2-2.5c0.8-2.2,1.3-5.9,1.4-7.7
				c0.1-1.8,0.6-1.1,0.6-1.1c0-0.1,0-0.3,0-0.5c0-1.2-0.2-2,0.4-1.5c0.7,0.6,1,3.9,1,3.9c0.6-4.9-0.3-5.7,0.4-5.2
				c0.9,0.6,1,4.9,1,5.1c0.8-2.8,0.6-4.5,1.1-3.8c0.5,0.6-0.3,5.9-0.6,7.9c-0.1,0.4-0.1,0.7-0.1,0.7
				C107.7,85.6,107.7,86.8,107.7,86.8z"/>
			<path id="XMLID_29_" class="st2" d="M105.3,86.5c-0.1,0.4-0.1,0.7-0.1,0.7s-1.2-0.1-2,1.4C103.2,88.6,103.4,86.5,105.3,86.5z"/>
			<path id="XMLID_28_" class="st2" d="M102.3,84.2c0-0.4,0.2-2.8-0.2-3.5c0-0.1,0-0.3,0-0.5C102.8,80.4,102.4,83.7,102.3,84.2z"/>
		</g>
		<path id="XMLID_27_" class="st19" d="M104.2,105c0,0,2.1-7.2,2.8-8.8s4.2-1.3,6.9-0.7s3.2,5.1,3.2,5.1S109,95.7,104.2,105z"/>
		<path id="XMLID_26_" class="st2" d="M118,90.7c0,0-2.6,5.9-2.5,12.4c0,0-4.1,3.5-5.6-0.9c0,0,1.6-5.8,0.8-13.6
			C110.1,83.5,118,90.7,118,90.7z"/>
		<g id="XMLID_261_">
			<path id="XMLID_25_" class="st3" d="M109.8,82.6c0,0-0.8-3.4-2.1-1c-1.6,2.7,0,5.4,0.9,4.8C109.4,85.7,109.8,82.6,109.8,82.6z"/>
			<path id="XMLID_24_" class="st3" d="M121.9,91.2c0,0,2.7-0.9,1.8,1.7c-1.1,3.1-3.7,2.8-3.7,1.5C119.9,93.3,121.9,91.2,121.9,91.2
				z"/>
			<path id="XMLID_23_" class="st3" d="M110.9,97.3c-3.8-2.7-4.6-7.4-0.4-16.8c2.2-4.8,5.5-6.4,9.8-3.4s4.8,7.3,2.6,12.2
				C118.4,99.4,114.9,100.1,110.9,97.3z"/>
			<path id="XMLID_22_" class="st6" d="M119.5,90.4c0.5,0.2,0.9,0.9,0.7,1.4s-0.7,0.7-1.2,0.5c-0.5-0.2-0.9-0.9-0.7-1.4
				C118.4,90.4,118.9,90.1,119.5,90.4z"/>
			<path id="XMLID_21_" class="st6" d="M111.8,84.9c0.5,0.4,0.7,1.1,0.4,1.5c-0.2,0.5-0.8,0.5-1.3,0.1c-0.5-0.4-0.7-1.1-0.4-1.5
				S111.3,84.5,111.8,84.9z"/>
			<g id="XMLID_272_">
				<path id="XMLID_20_" class="st7" d="M120.7,85.6c-0.1,0-0.2-0.1-0.2-0.2c-0.2-1.1-1.2-1.7-1.2-1.7c-0.1,0-0.2-0.2-0.1-0.3
					c0-0.1,0.2-0.2,0.3-0.1c0,0,1.1,0.7,1.4,2C121,85.5,120.9,85.6,120.7,85.6C120.8,85.6,120.8,85.6,120.7,85.6z"/>
			</g>
			<g id="XMLID_270_">
				<path id="XMLID_19_" class="st7" d="M115.5,80.9c0,0-0.1,0-0.1,0c0,0-0.9-0.7-1.8-0.3c-0.1,0-0.2,0-0.3-0.2c0-0.1,0-0.3,0.2-0.3
					c1-0.4,2.1,0.4,2.2,0.4c0.1,0.1,0.1,0.2,0.1,0.4C115.6,80.9,115.6,80.9,115.5,80.9z"/>
			</g>
			<path id="XMLID_18_" class="st7" d="M119.2,86.5c0.3,0.2,0.3,0.8,0,1.4c-0.3,0.6-0.7,0.9-1,0.7c-0.3-0.2-0.3-0.8,0-1.4
				S118.9,86.3,119.2,86.5z"/>
			<path id="XMLID_17_" class="st7" d="M113.8,82.9c0.3,0.2,0.3,0.8,0,1.4s-0.7,0.9-1,0.7c-0.3-0.2-0.3-0.8,0-1.4
				C113.1,83,113.5,82.7,113.8,82.9z"/>
			<path id="XMLID_16_" class="st7" d="M111.9,90.4c0,0,2.2,2.1,3.8,2.1c0,0-1.7,1.7-2.9,0.6C111.6,92.1,111.9,90.4,111.9,90.4z"/>
			<path id="XMLID_15_" class="st7" d="M118,86.7c0,0,1-1.2,1.4-0.8c0.4,0.4,0.2,1.9,0.2,1.9l0.9,0l-0.7-0.3c0,0,0.2-1.5-0.2-1.9
				C118.9,85.2,118,86.7,118,86.7z"/>
			<path id="XMLID_14_" class="st7" d="M114.2,84.3c0,0,0.3-1.7-0.2-1.9c-0.5-0.2-1.4,0.8-1.4,0.8l-0.5-0.9l0.6,0.6c0,0,1-1,1.4-0.7
				C114.8,82.5,114.2,84.3,114.2,84.3z"/>
			<path id="XMLID_13_" class="st13" d="M121.4,79.1c0,0-1.4-2.4-3.3-0.5c-1.9,1.9-6.2,4.9-8.3,3.9c-2.1-1,4.6-12.3,10.4-9
				c5.8,3.3,5.3,14,2.9,17.4c-2.4,3.4-1.3,0.2-1.3,0.2s0.2-4.8,1-8C123.7,80,121.4,79.1,121.4,79.1z"/>
			<g id="XMLID_262_">
				<path id="XMLID_12_" class="st6" d="M114.9,89.4c-0.1,0-0.2,0-0.3,0l0.1-0.6c0.4,0.1,0.6-0.1,0.7-0.3c0.1-0.3,0.1-0.6,0-0.8
					c-0.1-0.1-0.2,0-0.3,0l-0.2-0.5c0.5-0.3,0.8,0,0.9,0.1c0.3,0.3,0.3,1,0,1.5C115.6,89.1,115.3,89.4,114.9,89.4z"/>
			</g>
		</g>
		<g id="XMLID_257_">
			<path id="XMLID_11_" class="st19" d="M143,130.8c-0.2,4.2-8.6,18-10,18.5c-0.4,0.1-0.7,0.4-1.1,0.6c-0.2,0.1-0.3,0.2-0.4,0.4
				c-0.8,0.8-1.4,1.7-1.4,1.7c-2.4-0.2-9.3-4.1-7.1-5c0.1,0,0.3-0.1,0.4-0.3c0.1-0.1,0.2-0.1,0.3-0.3c2.6-2.7,7.6-13.8,7.7-14.6
				c0-0.9,0.9-1.1,0.9-1.1s-4.7-8.7-7.5-9.8c-2.7-1-4.1-5.2-4.1-5.2c-2.7-14.4,5.2-12.2,5.2-12.2C131.8,107.9,143.3,126.5,143,130.8
				z"/>
			<g id="XMLID_258_">
				<path id="XMLID_10_" class="st20" d="M132,150c-0.2,0.1-0.3,0.2-0.4,0.4c-3.7-0.3-6.9-2.6-8-3.6c0.1-0.1,0.2-0.1,0.3-0.3
					C125.1,147.5,128.3,149.8,132,150z"/>
			</g>
		</g>
		<g id="XMLID_255_">
			<path id="XMLID_9_" class="st20" d="M97.3,100.3c-0.1,0.1-0.1,0.3-0.2,0.4c-0.5,0-1-0.1-1.5-0.2c-2.5-0.6-4.4-2.3-5.6-3.9
				c-0.3-0.3-0.5-0.7-0.8-1c0.2-0.1,0.3-0.2,0.3-0.2c0.2,0.2,0.4,0.5,0.6,0.8c1.2,1.5,3.1,3.3,5.7,3.9
				C96.3,100.2,96.8,100.3,97.3,100.3z"/>
		</g>
		<g id="XMLID_253_">
			<path id="XMLID_8_" class="st20" d="M134.6,162.5c-1.2,2.4-3.3,5.4-7,6.1c-0.1-0.1-0.1-0.2-0.2-0.4c3.8-0.7,5.9-3.8,7-6.2
				C134.5,162.1,134.6,162.3,134.6,162.5z"/>
		</g>
		<g id="XMLID_248_">
			<path id="XMLID_7_" class="st5" d="M71.3,241.8c0,0-0.9,1-1.8,3c-0.9,1.9,0.1,3.8-4.3,8.3c0,0-8.8-6.5-12.8-14.8
				c0,0,0.1-2.4,2-2.9c1-0.3,3.9,1.4,6.6,2c0.4,0.1,0.8,0.1,1.2,0.2c0.5,0,1,0,1.4,0c0.4,0,0.8-0.1,1.2-0.3l0,0
				c0.9-0.5,1.7-1.4,2.1-3.1c0,0,2.4,1.7,0.8,4.5C67.7,238.8,70.4,237.2,71.3,241.8z"/>
			<path id="XMLID_6_" class="st0" d="M65.2,253.2c0,0-8.8-6.5-12.8-14.8c0,0,1.5-0.4,2.7,2.3C56.3,243.5,65.9,249.8,65.2,253.2z"/>
			<path id="XMLID_5_" class="st0" d="M65.3,240.1c-0.7,1.4-0.7-1.2-1.7-2.4c0.4,0,0.8-0.1,1.2-0.3l0,0
				C65.2,237.9,65.8,239,65.3,240.1z"/>
			<path id="XMLID_4_" class="st0" d="M62.5,240.2c-0.8,0.9-1-1.4-1.4-2.7c0.4,0.1,0.8,0.1,1.2,0.2
				C62.6,238.5,63.1,239.5,62.5,240.2z"/>
		</g>
		<g id="XMLID_244_">
			<path id="XMLID_3_" class="st5" d="M125.6,270.6h-12.5c0,0-0.5-2.2,0-4.6c0.2-1,1.5-2,2.7-3.3c0.3-0.4,0.6-0.7,1-1.2
				c0.2-0.3,0.4-0.7,0.6-1.1c0.2-0.5,0.4-1,0.5-1.6c0.2-1.2,0.1-2.6-0.4-4.2c0,0,4.3-1.1,5.8,1.8c0,0,0.2-1.3,1.5-0.4
				c0,0-0.2,2.7,0.1,4.9C125.2,262.9,126.8,263.6,125.6,270.6z"/>
			<path id="XMLID_2_" class="st0" d="M122.4,261.1c-0.1,0.1-0.3,0.2-0.4,0.2s-0.2,0-0.4-0.1c-0.6-0.6-2.1-1.6-4.1-0.9
				c0.2-0.5,0.4-1,0.5-1.6c0.8-0.4,2.4-0.6,4.3,1.4C122.6,260.4,122.6,260.8,122.4,261.1z"/>
			<path id="XMLID_1_" class="st0" d="M121.3,263.7l-0.1,0.1c-0.2,0.3-0.5,0.4-0.8,0.2c-0.8-0.6-2.7-1.8-4.6-1.5
				c0.3-0.4,0.6-0.7,1-1.2c0.9-0.2,2.7-0.4,4.4,1.3C121.5,263,121.5,263.4,121.3,263.7z"/>
		</g>
	</g>
</g>
</svg>
